<?xml version="1.0" encoding="utf-8"?>
<!-- Generator: Adobe Illustrator 19.2.0, SVG Export Plug-In . SVG Version: 6.00 Build 0)  -->
<svg version="1.2" baseProfile="tiny" id="Calque_1"
	 xmlns="http://www.w3.org/2000/svg" xmlns:xlink="http://www.w3.org/1999/xlink" x="0px" y="0px" viewBox="0 0 560.4 1025.8"
	 xml:space="preserve">
<path fill="#831D1D" d="M550.6,280C550.6,130.5,429.5,9.3,280,9.3C130.5,9.3,9.3,130.5,9.3,280c0,106.2,61.2,198.1,150.2,242.4
	c0,22.2-0.1,50.5,0.1,72.2c0,1.6,0,3.1-0.3,4.5c0,0,0,0,0,0c-0.2,0.8-0.5,1.6-1,2.2c0,0,0,0,0,0c-0.9,1.5-2.3,2.7-4.3,3.6
	c2-0.8,3.3-1.4,4.3-2c-0.6,0.5-1.3,0.9-2.2,1.3c-9.8,4.7-15,12.5-14.6,23.8c0.4,9.3,5.9,15,13.1,19.7c0-0.2,0.1-0.5,0.3-0.7v0.8
	c2.7,1.4,2.9,2.9,0,4.6c-3,1.8-5.9,3.5-8.1,6.2c-0.4,0.6-0.8,1.1-1.2,1.7c0,0,0,0,0,0c-2,2.9-3.6,6.1-4.5,9.7c0,2.2,0,4.3,0,6.5
	c1.5,2.2,1.9,4.7,2,7.3c1.8,3,3.9,5.8,6.4,8.4c1.4,2.1,1,3.9-0.5,5.9c-1.3,1.8-2.9,3.6-3.4,5.9c-2.7,4.3-5.4,8.7-8.1,13
	c-0.4,2.8-2.6,4.4-4.1,6.4c-2.2,2.8-3.1,4.8,1.1,6.5c2.2,0.9,3,2.4,0,3.6c-0.6,0.6-1.1,1.2-1.7,1.8c-3.4,8.8-6.9,17.6-8.4,27
	c-1.7,10.4-2.7,20.8-3.6,31.3c-1.3,14.7-0.4,29.3-0.7,44c0,1.8,0.4,3.6,0.6,5.4c0.2,2.3,1.4,2.9,3.7,3c4.8,0.2,5,1,2.1,5.4
	c-3,7.6-1.6,15.4-0.9,23.2c0.2,2,0.4,4.1,2.5,5.1c2,0.9,3.4-0.5,4.8-1.8c2.1-2.1,3.8-1.8,4.7,1.2c3.3,11.1,9.3,21.2,12.2,32.5
	c0.5,1.9,2.1,3.5,4.4,3.4c2.4-0.1,3.3-1.8,3.8-3.9c0.4-2,1.4-3.7,2.2-5.5c3.2-7.6,7.5-14.7,9.7-22.7c1.2-0.5,1.8-1.6,2.3-2.8
	c3.1-8.3,6.1-16.6,9.2-24.8c1.6-4.1,2.5-8.6,4.2-12.6c2.9-6.8,4.4-14,6-21c1.9-8.1,3.7-16.3,4.8-24.7c2.1-14.6,2.1-28.9-1.5-43.2
	c-0.8-3.1,0.6-2.8,2.4-2.3c1.5,0.4,3.2,1.2,4.2-0.3c1.1-1.6,0.7-3.5-0.4-5.2c-1.8-2.9-3.5-5.8-5.1-8.7
	c-5.9-11.4-10.1-23.5-14.6-35.5c-1.5-4.1-1.5-7.3,2.2-10.5c4.9-4.2,7.7-9.9,8-16.5c0.4-9.6-4.2-16.8-11.7-22.1
	c-3.3-2.4-3.1-3.6,0.1-5.9c4-3,8.1-6.2,9-11.7c6.8-8.8-0.9-24.8-8.8-29.4c-8.6-5.1-8.7-4.9-8.8-14.8c-0.2-20.5,0.5-31.1-0.4-51.6
	c0-0.8,0.1-6.5,0.3-11.5c32.7,14.3,68.7,22.4,106.6,22.7c1.3,4-0.6,15.1-0.5,17.7c0.2,16.2,0,22.5,0.2,38.8c0,3.5-1,5.9-4,7.4
	c-7.1,3.6-11.1,9.5-14.1,16.8c-4,9.8,4.5,23.6,11.5,27.6c1.2,0.7,3.5,0.2,3.2,2.4c-0.2,1.7-2,2.1-3.4,2.7c-3.4,1.4-5.9,3.8-7.4,7.1
	c-1.9,1.4-2.1,3.5-2.6,5.6c-3.1,4.5-3.4,9.1-1,14c0,1.3,0.5,2.2,1.8,2.7c0,4.2,3.6,6.2,5.7,9c2.3,2.8,3.2,5.9,1.8,9.5
	c-0.2,1.6-1.1,2.7-1.8,4.1c-2.8,5.8-7.1,10.9-9.4,16.9c-1.4,0.1-2.1,1-2.8,2.1c-2.7,4.6-5.6,9-8.2,13.7c-2.2,4.1-5.8,7.4-7.2,12
	c-0.3,0.3-0.6,0.6-0.9,0.9c-3.4,1.5-4,4.5-2.2,7c1.9,2.7,3.5,0.1,4.9-1.5c0.6-0.1,1.1-0.1,1.7-0.2c1.3,0.2,2.7,0.2,2.9,2
	c-3.1,3.6-5.8,7.5-7.2,12.1c0,3.6-3.5,6.2-2.9,10c-0.2,0.3-0.5,0.4-0.8,0.2c0,0,0,0,0,0.1c-0.1,0.2-0.1,0.4-0.1,0.6
	c0-0.3,0-0.5,0-0.8c-0.1-0.1-0.1-0.1-0.2-0.2c-3,5.2-3.7,10.8-3.6,16.6l0,0c-2.3,9.9-3.6,19.9-3.2,30.2c0.1,1.6-0.5,3-0.9,4.4
	c-0.3,6.3,0.4,12.6-0.5,18.9c0.1,4.8-0.4,9.6,0.4,14.4c-0.1,0-0.3,0.1-0.4,0.3c0.3,15,0.7,30,1,45c0,0.5,0,0.9,0.1,1.4
	c0.6,4,2.2,4.8,6.4,3.4c0.9-0.7,1.8-1.3,2.7-2c2.2,0.5,1.8,2.1,1.7,3.7v0h0c-0.3,0.6-0.6,1.2-0.8,1.9c-1.3,1.6-1.4,3.6-1.8,5.5
	c-2,10.5,0.2,20.6,2,30.8c0.6,3.5,4.5,4.7,7.6,2.4c1.3-1,2.2-2.4,3.4-3.7c3.2-1.8,3.9,0.7,4.8,2.8c3.5,8,7,15.9,10.5,23.9
	c2.9,6.7,5.8,23.5,8.6,30.3c0.8,1.9,0.4,4.4,3.4,4.7c3,0.4,4.5-1.8,4.9-3.9c0.5-2.6,1.4-7.8,2.4-12.8c1.6-5.2,3.4-10.8,5.2-16.4
	c2.3-5.6,4.7-11.1,6.9-16.7c3-7.5,6-15,8.6-22.6c3.3-9.8,6.1-19.8,9.4-29.6c3.8-11.2,6.3-22.7,9.1-34.1c3.7-15.6,5.7-31.6,7.1-47.6
	c1-10.7,0.9-21.4-2.4-31.9c0.1-3.2,0-6.5-1.1-9.5c-0.8-2.5-2.1-4.8-3.1-7.2c-0.4-1-0.9-2.2,0.1-3c0.9-0.7,1.6,0.4,2.4,0.9
	c1,0.7,2,1.5,3.1,1.9c1.8,0.6,3.7,0.6,5-1.1c1.1-1.4,1-2.9,0.1-4.3c-6.2-8.9-11-18.6-15.5-28.4c-3.2-7.1-6.7-14-9.4-21.2
	c-3.5-9.3-6.1-18.8-9.4-28.2c-0.8-2.4-0.6-4,1.3-5.7c2.8-2.4,5.3-5.2,6.8-8.5c5.9-12.7,0.9-27.6-11.2-32.4c-1-0.4-2-1.1-2-2.3
	c0-1.4,1.1-1.8,2.2-1.9c2.9-0.3,4.3-2.8,6.1-4.6c8.5-8.4,10.2-22,2-32.4c-3.3-4.1-7.6-6.6-11.9-9.1c-2-1.2-2.7-2.6-2.7-4.8
	c0.1-6.9,0.1-13.8,0-20.7c0-1.9,0.9-4-0.9-5.6c-0.3-0.4-0.6-0.7-0.8-1.1c0.1-9.4,0.2-8.7,0.2-18c0-1.5,0.2-8.9,0.8-12.4
	c37.9-1.3,73.8-10.3,106.2-25.6c0,0.2,0,0.5,0,0.8c-0.2,22.1-0.6,45.2,0,67.2c0.2,6.4-1.8,9.3-7,12.3c-17,9.9-17,32-0.6,42.6
	c3,1.9,2.9,2.7,0.1,4.7c-3.6,2.4-7.7,4.6-8.5,9.6l0,0c-3.8,8-3.6,16,0.1,24c1.1,3.9,4.5,5.9,7.2,8.3c1.1,2.2,0.9,4.4-0.2,6.4
	c-1.7,3.2-2.7,6.6-3.5,10.1c0,0,0,0,0,0c-3.2,3.4-3.2,8.2-5.2,12.2c-4,7.9-6.7,16.4-11.9,23.6c-0.9,1.3-0.8,3.3,0.3,4.8
	c0.7,0.9,1.6,0.7,2.4,0.2c1.2-0.8,2.5-1.7,3.7-0.4c1.2,1.2,0.2,2.6-0.2,3.9c-2.4,8.3-3.2,16.8-3.1,25.4c0,9.6,1.9,18.9,3.6,28.2
	c2.3,12.6,5.8,24.9,9.8,37.1c2.9,9,6,18,9.4,26.8c5.2,13.6,11.6,26.8,17.5,40.2c0.7,1.7,1.8,2.9,3.8,2.7c2.1-0.2,3.3-1.4,3.9-3.4
	c1-3.7,2.3-7.3,3.8-10.8c2.9-6.5,5.9-13.1,8-19.9c1.2-3.8,1.7-5.3,5.4-2.2c2.9,2.4,6.4,1.6,6.6-1.3c0.6-7.8,2.3-15.5,0.2-23.3
	c0-0.5,0.1-0.9,0-1.4c-0.8-3.4-0.9-6.1,4.1-4.8c2,0.5,2.3-1.1,2.3-2.5c0.3-5.2,0.7-10.4,0.8-15.6c0.6-18.7-0.5-37.3-2.8-55.9
	c-1.8-14.1-4.1-28-12-40.2c-1-1.5-0.9-2.5,1.1-3c4.1-1.1,3.1-3.5,1.3-5.9c-6.3-8.6-12-17.6-17.9-26.5c-2.1-3.2-1.9-4.9,0.6-7.4
	c8.9-9,10.1-18.4,4.5-29.4c-2.2-4.3-5.5-7.3-9.4-9.8c-1.6-1-3-1.6-0.2-3.3c10.4-6.3,14.8-15.9,12.5-27.7
	c-1.4-7.1-5.4-13.2-12.7-16.1c-1.5-2.4-5.1-1.2-6.5-3.8c0-23.4,0.2-57.6,0-82.2C492.5,473.4,550.6,383.5,550.6,280z M187.7,632.2
	c0,0.2,0,0.3-0.1,0.5c0,0,0,0,0,0c0,0-0.1,0-0.1,0.1C187.6,632.6,187.6,632.4,187.7,632.2z M239.7,927.4l-0.3-0.2c0,0,0-0.1,0-0.1
	c0.1,0.1,0.2,0.1,0.4,0.2C239.8,927.3,239.7,927.4,239.7,927.4z M381.5,660.2C381.5,660.2,381.5,660.2,381.5,660.2
	C381.5,660.2,381.5,660.2,381.5,660.2L381.5,660.2z"/>
<g>
	<path fill="#831D1D" d="M154.8,647.1v0.8c-0.1-0.1-0.2-0.1-0.3-0.2c0,0,0,0,0,0C154.5,647.6,154.6,647.3,154.8,647.1z"/>
	<path fill="#831D1D" d="M168.2,520.8C168.2,520.8,168.2,520.8,168.2,520.8"/>
	<path fill="#831D1D" d="M194.4,748.6c1.2,0,2.2-0.2,2.8-0.7c-0.5,0.2-1.2,0.4-2.1,0.4c-4.2,0.1-5.4,1.8-3.6,5.7
		c1.1,2.4,1.6,4.9,1.9,7.5c2.9,21.3-0.3,42.1-5.6,62.6c-2.5,9.8-5.5,19.4-8.8,28.9c-0.5,1.3-1.2,2.8-0.4,4.2
		c-0.3-0.1-0.5-0.1-0.8,0.1c0.3,0,0.6,0,0.9,0c0,0.2,0,0.4,0,0.6c0.1-0.2,0.1-0.4,0.2-0.5c0,0,0,0,0-0.1c0-0.4,0.1-0.8,0.1-1.2
		c0.8-6.9,4.1-13.2,5.8-19.9c1.7-6.3,3.8-12.6,5.1-19c1.5-7.9,3.9-15.8,4.3-23.9c0.5-13.4,2.5-26.9-2.6-40
		C190.8,751.1,190,748.5,194.4,748.6z"/>
	<path fill="#831D1D" d="M146.7,658.8c-0.4,0.6-0.8,1.1-1.2,1.7C145.8,659.9,146.3,659.3,146.7,658.8z"/>
	<path fill="#831D1D" d="M382.3,717.1C382.3,717.2,382.3,717.2,382.3,717.1c-0.1,0.3-0.2,0.5-0.3,0.7c0-0.1,0-0.1,0.1-0.2
		c0,0,0,0,0,0c0.1-0.1,0.2-0.3,0.2-0.4C382.3,717.2,382.3,717.2,382.3,717.1z"/>
	<path fill="#831D1D" d="M410.9,910.7L410.9,910.7c-0.9-1.8-1.8-3.5-2.6-5.3c0.6,1.5,1.2,3.1,1.7,4.6c0.1,0.5,0.4,0.9,0.7,1.3
		c0.5,0.4,1,0.6,1.4,0.8C411.7,911.8,411.3,911.3,410.9,910.7z"/>
	<path fill="#831D1D" d="M444.4,782.4v0.6c-0.1-0.5-0.2-0.9-0.4-1.3C444.2,781.9,444.3,782.2,444.4,782.4z"/>
	<path fill="#831D1D" d="M313.6,755.4c-0.2,0-0.3-0.1-0.5-0.3c0.2,0,0.3,0,0.5,0C313.6,755.2,313.6,755.3,313.6,755.4z"/>
	<path fill="#831D1D" d="M159.3,521.3c0,0,0.1,0,0.1,0V520C159.4,518.6,159.4,520.4,159.3,521.3z M159.3,521.3
		C159.3,521.3,159.3,521.3,159.3,521.3C159.3,522.1,159.3,521.8,159.3,521.3z"/>
	<path fill="#831D1D" d="M233,798.9c0.2-1.6,1-3.1,1.5-4.7C234.1,795.8,233.6,797.4,233,798.9z M235.6,921.5L235.6,921.5
		C235.7,921.5,235.7,921.4,235.6,921.5z M324.6,807.2c-0.1,0.1-0.1,0.1-0.2,0.2l0,0c-0.1,0.1-0.1,0.1-0.2,0.2l0.2-0.2
		c0.2,0,0.4,0.1,0.7,0.1C324.9,807.5,324.7,807.3,324.6,807.2z"/>
	<path fill="#831D1D" d="M235.6,921.5L235.6,921.5C235.7,921.4,235.7,921.5,235.6,921.5z M313.1,755.1c0.2,0,0.3,0,0.5,0
		c0,0.1,0,0.2,0,0.3C313.4,755.4,313.3,755.3,313.1,755.1z M320.1,790.3c0-0.3,0.1-0.5,0.2-0.7C320.2,789.8,320.1,790,320.1,790.3z
		 M324.3,807.4L324.3,807.4c0.1-0.1,0.2-0.1,0.2-0.2c0.2,0.1,0.3,0.2,0.5,0.3C324.8,807.5,324.6,807.5,324.3,807.4l-0.2,0.2
		C324.2,807.5,324.3,807.5,324.3,807.4z"/>
	<path fill="#831D1D" d="M407.1,514.7c0,0.7,0,1.4,0,2.1c0.4-0.2,0.9-0.3,1.3-0.5C407.4,515.6,407.1,511.8,407.1,514.7z
		 M408.5,516.3c0.3,0.2,0.7,0.2,1.2-0.5C409.3,516,408.9,516.2,408.5,516.3z"/>
	<path fill="#831D1D" d="M369.4,746.1c0.1,0.4,0.2,0.8,0.4,1.1C369.4,746.9,369.3,746.6,369.4,746.1z M382.3,717.2
		c-0.1,0.2-0.2,0.4-0.3,0.7c0-0.1,0-0.1,0.1-0.2c0,0,0,0,0,0C382.1,717.5,382.1,717.4,382.3,717.2
		C382.3,717.2,382.3,717.2,382.3,717.2C382.3,717.2,382.3,717.2,382.3,717.2z M444.4,783c-0.1-0.5-0.2-0.9-0.4-1.3
		c0.1,0.2,0.2,0.5,0.4,0.8V783z"/>
	<path fill="#A05757" d="M235.9,791c-0.2,0.3-0.5,0.4-0.8,0.2c0-0.1,0-0.1,0-0.2c0,0,0-0.1,0-0.1c0.1-3.7,1.5-7,3.6-10
		C238.8,784.6,235.3,787.2,235.9,791z"/>
	<path fill="#B88787" d="M126.2,851.7c1.4-3,0.9-4.8-2.8-4.6c-2.5,0.1-3.6-1.1-3.7-3.6c0-0.6-0.3-1.2-0.3-1.8
		c0.1-18.5-0.8-37,0.9-55.5c0.7-7.6,1.7-15.2,3-22.7c1.7-9.8,4.4-19.3,9.3-28.1c-3.4,8.8-6.9,17.6-8.4,27
		c-1.7,10.4-2.7,20.8-3.6,31.3c-1.3,14.7-0.4,29.3-0.7,44c0,1.8,0.4,3.6,0.6,5.4c0.2,2.3,1.4,2.9,3.7,3
		C128.9,846.5,129.1,847.3,126.2,851.7z"/>
	<path fill="#B88787" d="M134.3,733.7c1.9-2,0.6-2.6-1.2-3.5c-3.4-1.6-3.7-3-1.4-5.9c1.9-2.3,3.7-4.8,5.5-7.2
		c-0.4,2.8-2.6,4.4-4.1,6.4c-2.2,2.8-3.1,4.8,1.1,6.5C136.5,730.9,137.2,732.4,134.3,733.7z"/>
	<path fill="#B88787" d="M142.8,684c-1.7-2.2-0.7-5-2-7.3C142.4,678.9,142.7,681.4,142.8,684z"/>
	<path fill="#B88787" d="M176,867.1c-1.5,5.5-3.7,10.9-6.5,15.9c2.7-7.3,5.4-14.6,8.2-21.9c0.4-1.1,0.9-2.1,1-3.2c0-0.2,0-0.4,0-0.6
		c-0.3,0-0.6,0-0.9,0c0.3-0.2,0.6-0.2,0.8-0.1c0.1,0,0.1,0,0.1,0.1c0.1,0,0.1,0.1,0.2,0.1c0,0,0.1,0.1,0.1,0.1
		C180.1,861.2,176.9,863.8,176,867.1z"/>
	<path fill="#C09595" d="M159.2,599.1c-0.2,0.8-0.5,1.6-1,2.2C158.6,600.6,159,599.9,159.2,599.1z"/>
	<path fill="#831D1D" d="M379.5,661.9L379.5,661.9C379.5,661.9,379.5,661.9,379.5,661.9L379.5,661.9z"/>
	<path fill="#BF9393" d="M382.3,717.1C382.3,717.2,382.3,717.2,382.3,717.1c-0.1,0.3-0.2,0.5-0.3,0.7c0-0.1,0-0.1,0.1-0.2
		c0,0,0,0,0,0c0.1-0.1,0.2-0.3,0.2-0.4C382.3,717.2,382.3,717.2,382.3,717.1z"/>
	<path fill="#831D1D" d="M379.5,661.9L379.5,661.9C379.5,661.9,379.5,661.9,379.5,661.9L379.5,661.9z"/>
	<path fill="#CAA9A9" d="M444.4,782.4v0.6c-0.1-0.5-0.2-0.9-0.4-1.3C444.2,781.9,444.3,782.2,444.4,782.4z"/>
	<path fill="#A86767" d="M313.6,755.4c-0.2,0-0.3-0.1-0.5-0.3c0.2,0,0.3,0,0.5,0C313.6,755.2,313.6,755.3,313.6,755.4z"/>
	<path fill="#C7A5A5" d="M126.2,851.7c0.2-2.4,0-4.4-3.4-3.4c-3,0.9-3.9-1.3-3.9-3.6c0.5-23.7-1.8-47.5,2.3-71.1
		c1.5-8.6,2.6-17.2,5.1-25.5c1.4-4.5,2.9-9,6.2-12.6c-3.4,8.8-6.9,17.6-8.4,27c-1.7,10.4-2.7,20.8-3.6,31.3
		c-1.3,14.7-0.4,29.3-0.7,44c0,1.8,0.4,3.6,0.6,5.4c0.2,2.3,1.4,2.9,3.7,3C128.9,846.5,129.1,847.3,126.2,851.7z"/>
	<path fill="#C39D9D" d="M235.6,921.5L235.6,921.5C235.7,921.4,235.7,921.5,235.6,921.5z"/>
	<path fill="#CDB0AF" d="M231.2,807.5c0.4,5.7-1.4,11.1-2.2,16.6c-0.8,5.9,0.7,11.9-1.4,17.6c-0.6-0.6-0.6-1.3-0.1-2
		c0-10.1-0.1-20.3,2.8-30.2C230.5,808.8,230.9,808.2,231.2,807.5z"/>
	<path fill="#C7A5A5" d="M134.3,733.7c0.2-1.4,0-2.4-1.7-2.6c-4.9-0.5-4.1-3.5-2.2-6.1c2.1-2.7,3.8-5.9,6.9-7.8
		c-0.4,2.8-2.6,4.4-4.1,6.4c-2.2,2.8-3.1,4.8,1.1,6.5C136.5,730.9,137.2,732.4,134.3,733.7z"/>
	<path fill="#D0B5B5" d="M227.5,839.7c0,0.7,0.1,1.3,0.1,2c0,6.4-0.1,12.9-0.1,19.3c-1.2,4.6,0.5,9.3-0.9,13.9
		c-1.8-3.9-1-8.2-0.7-12.1c0.6-6.8,0.6-13.7,0.8-20.5C226.8,841.4,227.2,840.5,227.5,839.7z"/>
	<path fill="#C8A6A5" d="M386.6,700.7c-1.7,3.2-2.7,6.6-3.5,10.1c-0.1-3.2,0.8-6.3,2.3-9.1c1.3-2.4,1.9-4.8,1.3-7.4
		C387.9,696.4,387.7,698.6,386.6,700.7z"/>
	<path fill="#CDB0AF" d="M233,798.9c0.2-1.6,1-3.1,1.5-4.7C234.1,795.8,233.6,797.4,233,798.9z"/>
	<path fill="#CDB0AF" d="M235.2,791.2c-0.1,0.2-0.1,0.4-0.1,0.6c0-0.3,0-0.5,0-0.8C235.1,791.1,235.1,791.2,235.2,791.2z"/>
	<path fill="#CDB0AF" d="M226.6,874.8c0.5-4.6-1-9.3,0.9-13.9c0,4.9,0,9.8,0,14.7c-0.3,0-0.6,0-0.9,0
		C226.6,875.4,226.6,875.1,226.6,874.8z"/>
	<path fill="#CDB0AF" d="M235.9,791c-0.2,0.3-0.5,0.4-0.8,0.2c0,0-0.1-0.1-0.1-0.1l-0.2-0.2c0.4-3.7,0.2-7.6,3.9-9.9
		C238.8,784.6,235.3,787.2,235.9,791z"/>
	<path fill="none" d="M144.6,613c-1.2,2.8-2.4,5.6-3.7,8.4"/>
	<path fill="#EBEBEB" d="M515.1,363.8c-4.3,2.1-4.7,2-7.3-1.9c-3.2-4.8-4.2-10.2-3.8-15.8c0.6-7.2-1.7-13.2-7.3-18
		c-3.5-3-5.8-7.1-8.7-10.7c-5-6.5-5.3-12.9-1.4-20.1c5.6-10.4,4.7-13.4-3.1-22c-7.7-8.5-14.5-17.5-13.8-30.1
		c0.3-5.1-2.6-7.4-7.8-7.7c-2.9-0.2-5.8-0.3-8.7-1c-5.8-1.5-8.2-0.1-10.2,5.5c-1.7,4.8-2.6,5.4-7.8,5c-4.7-0.4-8.4,1.1-11.3,4.7
		c-1,1.2-1.9,2.4-3,3.5c-2.6,2.7-5.3,2.8-8.1,0.4c-1.2-1-2.2-2.1-3.3-3.2c-4.7-5.1-9.5-10-15.9-13c-4.6-2.2-7.9-5.7-9.3-10.8
		c-0.8-3-2.7-5.5-4.5-8c-6.4-8.8-8.7-18.8-5.6-29.2c2.9-9.8,5.5-19.8,9.5-29.2c1.6-3.7,1.8-7.5,0.3-11.2c-1.5-3.7-3.6-4.3-7.2-2.5
		c-3.9,1.9-5.6,1.6-8.2-2c-1.5-2.1-3-4.3-4.4-6.5c-3.3-5.3-2.4-8,3.4-10.3c2.7-1.1,5.5-1.9,7.8-3.8c3.6-3,3.8-7.5,0.5-10.8
		c-1.3-1.3-3-2-4.8-2.5c-1.1-0.3-2.8,0.1-3-1.5c-0.2-1.4,1.3-1.9,2.3-2.6c3.8-2.5,6.1-6,7.4-10.2c1.2-4,2.3-7.9,4.3-11.6
		c1.6-2.8,0.8-5.5-2.1-7c-3.3-1.7-6.3-3.6-8.1-7.1c-1.2-2.2-3.7-2.5-6.1-2.6c-2.4,0-4.6-0.4-6.2-2.4c-1.5-1.8-2-3.7,0.1-5.2
		c5.6-3.9,5.9-9.3,4.3-15.2c-0.8-2.9,0-4.7,2.7-5.9c2.4-1.1,4.9-2.5,3.3-5.9c-42.7-16.3-86.6-20.9-131.7-14
		C93.4,43.1-5,183.4,23.8,327.1c27.5,137,156.5,228.3,294.2,205.4c100-16.6,167.9-74.8,204.1-169.6
		C519.4,359.8,517.2,362.7,515.1,363.8z"/>
	<path fill="#EBA960" d="M523.5,363.2c-3.5-1.2-5.7,1.6-8,3.2c-2.7,1.8-4.3,1.6-6.1-1c-3.4-5.1-6.1-10.4-5.4-16.7
		c1-8.3-1.4-14.9-8-20.3c-4.4-3.6-7.1-8.8-10.2-13.5c-3.6-5.5-3-11.3,0.2-17c0.9-1.6,1.7-3.2,2.5-4.9c2.8-6,2.4-9.3-2.4-14
		c-4.6-4.5-8.3-9.7-11.8-15.2c-3.3-5.3-5-10.7-4.6-16.9c0.4-6-1.4-7.6-7.4-7.9c-3.4-0.2-6.6-0.4-9.9-1.4c-3.6-1.2-5.9,0.7-6.7,4.3
		c-1.6,6.9-2.5,7.5-9.2,6.6c-3.7-0.5-7,0.4-9.5,3.4c-0.7,0.8-1.2,1.7-1.8,2.6c-4.3,6.1-9,6.6-13.9,0.8c-5.4-6.4-11.3-12-18.9-15.7
		c-4.1-2-6.9-5.2-7.8-10.1c-0.9-5.3-5.7-8.6-7.9-13.3c-3.7-8.1-5.4-16.5-2.5-24.9c3.5-10.4,5.7-21.2,10.4-31.2
		c1.2-2.6,1.1-5.8-0.2-8.5c-1.4-2.9-3-5.2-6.2-1.3c-2,2.4-4.7,1.9-6.8-0.2c-3.5-3.3-6-7.4-8.3-11.5c-2.4-4.4-1-7.6,3.6-9.6
		c2.4-1,4.9-1.8,7.3-2.8c2.6-1.1,5.1-2.7,4.7-6c-0.5-3.6-2.9-5.6-6.4-6.3c-0.9-0.2-1.8-0.1-2.7-0.2c-1.2-0.2-2.6-0.2-2.9-1.8
		c-0.3-1.4,0.7-2.4,1.8-2.9c6.4-3.1,9.3-8.4,10.7-15.1c0.5-2.6,1.2-5.3,3.2-7.5c2-2.2,1.3-4.2-1.4-5.5c-3.7-1.7-7.7-2.8-8.7-7.8
		c-0.4-2.1-3.1-1.6-4.9-1.5c-2.8,0.1-5.4,0-7.5-2.5c-3-3.7-3-5.2,0.8-8.2c4.6-3.6,5.3-6,3.6-12.5c-1.6-6.1-1.6-6.2,4.1-8.3
		c2.2-0.8,3-2.4,3.1-4.6c8.4,3,16.6,6.5,24.5,10.8c-0.4,2.2-2.3,3.6-3.1,5.6c-1.6,3.6-0.8,6.3,2.5,8.1c7.7,4.2,7.9,5.4,1.7,13.3
		c6.3-3.9,12.1-4.7,18.3-2.6c2,0.7,4.6,0.5,5.4-2.1c0.9-2.7-1.5-3.7-3.4-4.7c-1.5-0.8-3.2-1.1-4.6-2c-2.6-1.7-2.5-3.6,0-6.1
		c12.2,6.5,23,14.9,33.6,23.8c12.9,10.8,24.7,22.7,35,36.1c-2.7,2.2-5.5,1.3-8.2,0.1c-1.3-0.6-2.4-1.4-3.6-2.1
		c-2.8-1.5-4.5-0.9-5.4,2.4c-2.6,9.8-3,9.9-11.9,4.2c-8.2-5.2-17-9.2-26-12.8c-1.7-0.7-4.4-2.1-5.2,0.3c-0.6,1.8,2.4,2.3,4,2.9
		c3.3,1.1,6.8,1.8,10,3.3c3.6,1.8,5.1,4.7,4.3,8.2c-0.5,2.2-1.8,3.6-4,4c-2,0.3-3.3-0.9-3.9-2.6c-1.2-3.3-3.8-4.5-7-5.1
		c-3-0.5-5.8-2-8.8-2.6c-7-1.5-13.5-0.7-18.2,5.5c-0.9,1.2-2,2.4-3.2,3.3c-2,1.7-2.6,3.7-1.5,6.2c2.1,4.7,2.4,9.4,0.2,14.6
		c2.3-0.1,3.3-1.6,4.4-2.6c6.4-5.4,13-10.3,21.3-12.3c2.3-0.5,4.5-0.8,6.8-0.7c2.9,0.1,5.1,1.2,5.7,4.3c0.5,2.5,1.6,3.5,4.2,2.3
		c4-1.8,7.7-1.2,11.4,1c2.1,1.3,4.3,2.3,6.9,2.3c3.9,0,6-2.2,5.4-6c-0.4-2.4,0.4-4.3,2.5-4.7c8.8-1.7,17.3-5.6,26.5-4.3
		c14.2,18.7,24.9,39.3,33.2,61.1c12.9,34,18.3,69.2,16.3,105.5C536.6,316,532.1,340,523.5,363.2z"/>
	<path fill="#EBEBEB" d="M488.4,124.8c-8,1.6-16.1,3.2-24.1,4.9c-2.8,0.6-6.6,0.9-2.6,5.3c1.4,1.5-2.5,5.9-5.6,6.4
		c-3.3,0.5-6.4-0.2-9.1-2.2c-3.9-2.9-7.9-3.6-12.2-0.5c-2.4,1.8-4.3,0.8-4.2-2.2c0.2-4.5-2.2-5.5-6.1-5.2
		c-10.5,0.8-18.5,6.5-26.1,13.2c-1.4,1.2-2.4,2.8-4.3,3.4c-1,0.3-2.2,0.5-3-0.5c-0.6-0.8-0.1-1.7,0.5-2.5c3.2-3.7,2.3-7.8,0.7-11.7
		c-1.8-4.1-2.9-7.5,2.2-10c0.6-0.3,1-1.1,1.5-1.7c5.5-7,13.2-9.3,21.5-6.5c3.5,1.2,6.9,2.6,10.6,3c2.2,0.2,3.6,1.2,4.2,3.6
		c0.4,1.6,0.2,4.1,2.9,3.9c1.6-0.1,2.8-1.2,3.2-2.9c0.5-2.3,0.6-4.9-1.7-6.2c-2.5-1.4-5.3-2.3-8.1-3c-2.6-0.6-5-1.5-7.4-2.6
		c-1.5-0.7-3.5-1.5-2.7-3.6c0.7-1.8,2.6-2.6,4.6-2.2c1.8,0.3,3.6,0.9,5.3,1.6c9.7,4.5,19.6,8.6,28.3,14.9c1.2,0.9,2.3,2.2,4,1.4
		c1.7-0.8,1.6-2.5,1.7-4c0-0.8,0.1-1.5,0.2-2.3c1.1-6.3,3.3-7.4,8.5-3.6c3.3,2.4,6.7,2.8,10.4,2.7
		C483.8,118.7,486.1,121.7,488.4,124.8z"/>
	<path fill="#9D5050" d="M235.6,921.5L235.6,921.5C235.7,921.4,235.7,921.5,235.6,921.5z"/>
	<path fill="#9D5050" d="M325,807.6c-0.2,0-0.5-0.1-0.7-0.1l-0.2,0.2c0.1-0.1,0.1-0.1,0.2-0.2l0,0c0.1-0.1,0.1-0.1,0.2-0.2
		C324.7,807.3,324.9,807.5,325,807.6z"/>
	<path fill="#923B3B" d="M354.9,545.3c-0.1,0-0.1,0.1-0.2,0.1c0,0,0,0,0,0C354.7,545.4,354.8,545.3,354.9,545.3z"/>
	<path fill="#923B3B" d="M382.3,717.2c-0.1,0.2-0.2,0.4-0.3,0.7c0-0.1,0-0.1,0.1-0.2c0,0,0,0,0,0
		C382.1,717.5,382.2,717.4,382.3,717.2C382.2,717.3,382.3,717.2,382.3,717.2z"/>
	<path fill="#A35C5C" d="M197.9,746.4c0.1,0.6-0.2,1.1-0.8,1.4C197.6,747.5,197.9,747,197.9,746.4z"/>
	<path fill="#EBEBEA" d="M412.9,55.7c-2,3.2-1.4,5.1,2.5,5.8c1.2,0.2,2.3,0.8,3.4,1.3c2.7,1.2,5.1,2.9,4,6.3
		c-1.1,3.3-4.6,4.3-7.2,3.2c-6.4-2.7-11.9-1.2-17.6,1.6c-1,0.5-2.4,1.7-3.3,0.3c-0.9-1.6,0.8-2.3,1.9-3.1c0.9-0.8,1.9-1.6,2.6-2.6
		c2.3-3.2,1.7-5.3-2.2-6.5c-3-0.9-6.1-1.6-6.3-5.5c-0.3-4.5,1.3-8,5.4-10.2C401.8,49.1,407.6,51.9,412.9,55.7z"/>
	<path fill="#A66363" d="M369.8,747.2c-0.3-0.3-0.5-0.6-0.4-1.1C369.4,746.5,369.5,746.9,369.8,747.2z"/>
	<path fill="#9D5050" d="M230.4,838.9c-0.3-7.8,0.7-15.5,2.8-23.1C233,823.6,231.6,831.2,230.4,838.9z"/>
	<path fill="#9D5050" d="M324.3,807.4C324.3,807.4,324.3,807.4,324.3,807.4l-0.2,0.2C324.2,807.5,324.3,807.5,324.3,807.4z"/>
	<path fill="#9D5050" d="M313.6,755.4c-0.2,0-0.3-0.1-0.5-0.3c0.2,0,0.3,0,0.5,0C313.6,755.2,313.6,755.3,313.6,755.4z"/>
	<path fill="#A86767" d="M320.3,789.5c-0.1,0.2-0.2,0.4-0.2,0.7C320.1,790,320.2,789.8,320.3,789.5z"/>
	<path fill="#C39D9D" d="M233,798.9c0.2-1.6,1-3.1,1.5-4.7C234.1,795.8,233.6,797.4,233,798.9z"/>
	<path fill="#C39D9D" d="M235.9,791c-0.2,0.3-0.5,0.4-0.8,0.2c0,0,0,0,0,0.1c-0.1,0.2-0.1,0.4-0.1,0.6c0-0.3,0-0.5,0-0.8V791
		c0.1,0,0.1,0,0.2,0C235.4,791,235.7,790.9,235.9,791z"/>
	<path fill="#A66363" d="M444.4,782.4v0.6c-0.1-0.5-0.2-0.9-0.4-1.3C444.2,781.9,444.3,782.2,444.4,782.4z"/>
	<path fill="#A86767" d="M325,807.6c-0.2,0-0.5-0.1-0.7-0.1c0,0,0,0,0,0l0,0c0.1-0.1,0.1-0.1,0.2-0.2
		C324.7,807.3,324.9,807.5,325,807.6z"/>
	<path fill="#EBA960" d="M97,150.2c-5.6,1.1-10.8,3.6-16.6,3.3c-1.2-0.1-3,0.2-3.5-0.5c-3.7-4.7-5.7-2.3-7.8,1.5
		c-0.8,1.4-2.5,2.1-4,1.3c-1.9-1-3.8-2.3-4-4.7c-0.1-1.9,1.6-2.5,3-3.1c3.1-1.4,6.5-1.9,9.9-1.9c6.4,0,11.9-2.4,17.4-5.3
		c2.6-1.4,4.3-3.4,4.5-6.5c0.1-1.4,0.2-2.8,2-3.1c1.8-0.3,2.9,0.7,3.7,2.2c0.5,0.9,0.8,2,0.8,3.1c0,3.7,2,4.4,5.1,3.7
		c5.1-1.2,10.1-2.3,15.4-1c2.4,0.6,2.5-1.2,2.4-2.8c-0.2-3.4-0.7-6.7-0.8-10.1c-0.2-3.4,1.2-5.8,4.7-7c4.1-1.5,4.8-4.7,1.9-7.8
		c-0.6-0.6-1-1.2-0.8-2c0.3-1,1.2-1.4,2.1-1.5c2.4-0.1,4.6,0.4,6.6,1.6c4.9,2.9,9.9,2.6,14.9,0.3c1.3-0.6,2.5-1.1,3.7-1.8
		c6.5-3.7,12.9-3.4,19,0.9c4.7,3.3,9.6,4.5,15.2,2.6c1.7-0.6,3.6-0.5,5.4-0.6c1.3,0,2.6,0.4,2.8,1.8c0.2,1.6-1.3,2-2.4,2.3
		c-1.6,0.4-3.3,0.3-5,0.4c-1.5,0.1-2.7,0.7-3,2.3c-0.2,1.5,0.7,2.3,2,2.7c1.9,0.6,4.5,0.9,2.8,3.8c-1.6,2.9,0.5,9-6.4,7.7
		c-4.8-0.9-9.7-1.4-14.5-2.1c-2.4-0.4-2.8-1.7-1.5-3.6c0.9-1.3,1.8-2.8,0.7-4.2c-1.3-1.7-3.1-0.9-4.6-0.1c-1.6,0.8-2.9,0.5-4.4-0.3
		c-1.9-1-3.9-1.3-6.2-1.1c-3.9,0.4-5.3,1.3-3.3,5.4c1.6,3.3,0.6,7.7,3.9,10.5c0.3,0.3,0.3,1.2,0.2,1.8c-0.7,4.4-9.6,9.3-13.6,7.2
		c-2.5-1.3-3.7-1.1-4.9,1.6c-1.9,4.3-4.4,8.4-6.4,12.7c-2.2,4.9,0.6,9.1,5.5,7.9c9.2-2.3,18.6-1.2,27.8-3.4c2.7-0.6,5.2-1.3,6.1-4.1
		c1-2.8-0.2-4.9-2.2-7c-4.9-5-1.7-15.6,5.2-17.3c4.1-1,8.1-0.9,11.7,2.1c5.9,4.8,8,4.3,11.6-2.2c1.5-2.8,3.5-2.7,4.9-0.2
		c2.9,5.2,7.4,7.2,13,8.3c5.1,1,10,3,13.5,7.3c1,1.2,2.2,2.2,2.3,3.9c0.2,2.7,2,3.7,4.4,3.5c2.3-0.1,3.9,0.9,5,2.7
		c1.7,2.7,1.2,4.9-2.2,5.3c-3.5,0.4-7,0.4-10.6,0.2c-2.5-0.1-4.4-1.7-4.6-4.4c-0.4-4.2-3-4.3-5.9-3.1c-3.2,1.4-6.2,2.6-9.7,1.5
		c-0.4-0.1-0.9,0-1.4,0.1c-1.5,0.4-8.4,13.5-8,15c0.4,1.5,1.5,1.4,2.5,0.9c1.4-0.7,2.6-1.7,3.9-2.4c2.1-1.2,4.5-1.6,5.5,0.9
		c1.2,3.1,3.2,3.2,5.8,2.9c1-0.1,2.2-0.3,2.9,0.9c0.7,1.3,0.1,2.4-0.8,3.3c-2.6,2.6-4.6,5.7-9.2,2.3c-4-3-9.8,0.3-10,5.4
		c-0.3,6.9-0.9,13.5-6.5,18.5c-1.5,1.4-0.2,4.3-1.3,5.1c-4.8,3.5-5.3,7.5-2.7,12.5c0.4,0.8-0.4,2.4-1,3.4
		c-5.3,8.4-4.2,16.9-0.3,25.4c0.8,1.7,1.2,3.5,1.6,5.3c0.3,1.1,0.7,2.6-0.8,3.2c-1.2,0.5-2-0.4-2.7-1.2c-1.4-1.5-2.8-2.9-4-4.5
		c-5.2-7.1-14.7-4.4-18.1,0.6c-1.3,1.9-2.7,2.6-4.8,3c-11.3,2.2-17.1,9.2-17.6,20.8c-0.3,7.2-0.1,13.9,7.2,18
		c4.3,2.5,8.9,2.5,13.3,1.1c2.7-0.9,4.4-3.3,4.4-6.4c0-1.5,0.3-2.8,2-3.1c1.8-0.3,3,0.4,3.7,2c0.7,1.5,1.5,3,1.9,4.6
		c1.7,6.2,5.9,9.2,12.2,8.3c2.5-0.4,4,0.4,5.1,2.7c2.9,5.8,8.9,7.1,14.1,9.6c0.4,0.2,1,0.2,1.3,0c4.1-3.2,8.1-3.8,12.3,0.1
		c1,0.9,2.6-0.5,2.7-2.1c0.1-1.7,0.1-3.4,0-5.1c-0.3-4.2,2.1-6.8,5.7-7.1c11.7-0.8,23.5-2.7,35.3-1.4c1.7,0.2,3.5,0.4,4.7,1.6
		c4.1,4.1,9.1,5.2,14.7,5.2c5.6,0,10.8,2.4,15.7,4.8c9.4,4.6,19.1,4.9,29.1,2.9c5.9-1.2,11.6,0,17.2,1.7c2.3,0.7,4.1,2.9,3.3,5.4
		c-3.6,11.4,0.8,21.3,5.2,31.3c3.4,7.8,2.6,13.2-3.4,19.1c-4.6,4.5-9.8,8.7-11.2,15.4c-1.3,6-3.3,11.7-6,17.2
		c-1.8,3.7-1.9,7.6-1,11.7c0.9,4.2,1.3,8.5,1.1,12.8c-0.1,1.7-0.5,3.3-1.3,4.8c-1.6,2.9-3.6,3.4-5.5,0.4c-1.6-2.5-3.5-4.1-6.4-2.8
		c-3,1.4-2.6,4.4-2.2,6.9c0.6,3.9,3.2,6.9,5.7,9.9c2.1,2.5,2.5,4.9,0.3,7.4c-1.2,1.4-1.8,2.7-1.1,4.6c1.1,3-0.4,3.7-3.1,4
		c-7.4,0.8-9.6,3-9,10.2c0.7,9,3.3,17.7,6.1,26.3c1.2,3.6,3.7,5.6,7.8,4.5c2-0.5,4.1,0,4.6,2c0.5,2.3-2.1,2.3-3.5,2.7
		c-2.8,0.6-5.7,1-8.6,1.2c-5.7,0.4-10.1-1.9-13.3-6.7c-4.1-6.1-7-12.9-9.7-19.7c-2.3-5.7-5-11.2-7.6-16.7c-2.1-4.5-2.1-9.5-1.4-14.4
		c1.4-9.6,0.5-18.8-4-27.7c-3.9-7.8-7.6-15.7-10.4-24c-2.1-6.2-5.1-10.6-12.9-9.6c-4.7,0.6-7.2-3.6-9.8-6.7c-4.2-4.9-8.1-10-14-13.1
		c-6.5-3.4-9.2-9.1-9.1-16.3c0.1-5.4,0.2-10.8-0.1-16.1c-0.2-5.7-1.4-11.3-5.7-15.6c-1.2-1.2-2.5-2.6-4.3-2.2
		c-4.2,1-7.3-1.3-10.8-2.8c-3.1-1.3-6.3-2.6-9.6-3.2c-4.1-0.7-7.5-2.4-10.7-5c-2.3-1.9-4.9-2.7-8-2.8c-10.6-0.1-21.1,0.1-31.7,1.4
		c-7.9,1-15.7-0.9-21.5-7.1c-7.3-7.8-16.4-13.3-25.4-18.8c-2.3-1.4-4.7-2.6-6.5,1c-0.9,1.8-2.3,1.2-3-0.5c-2.4-5.1-6.9-7.3-11.9-8.6
		c-9.9-2.7-15.7-9.2-18.1-18.8c-2.9-11.5-6.4-22.7-12.3-33c-0.4-0.8-0.4-2-1.6-1.9c-1,0.1-1.3,1.2-1.6,2.1c-0.6,1.8-0.8,4.5-3.6,3.8
		c-2.4-0.6-3.5-2.7-3.7-5.3c-0.4-4,1.2-7.4,2.6-11c3.5-9.1,3.8-18.9,4.7-28.4c0.5-5.8,1-11.6,3.2-17.1c1.5-3.6,4-6.1,8.3-6.1
		c4.9,0,9.9,0.5,14.7-0.2C79.2,161.8,88.7,157.2,97,150.2z"/>
	<path fill="#EBA960" d="M293.1,50.9c-2.4,2.9-4.9,1.9-6.9,1.9c-2.4,0.1-4.5,0.2-6.2,2.2c-1.3,1.7-2.6,2.5-0.1,4.7
		c3.7,3.2,2.9,9.8-1.4,12.5c-5,3.1-9.3,7.3-14.7,9.8c-2.8,1.3-3.3,5.2-6.4,6.1c-4.9,1.5-7.9,4.8-10.7,8.9c-1.1,1.6-1.5,2.8-1.5,4.5
		c0,2.6-0.2,5.3,0.1,7.8c0.5,3.7-1.4,6.3-4.1,7.8c-2.2,1.2-4.9-0.9-6.5-2.2c-4-3.2-7.3-7.2-10.8-10.9c-1.7-1.8-1.8-4.5-3.1-6.7
		c-2.2-3.8-4.5-2.8-7.1-1.9c-2.1,0.8-3.4,0.3-5.6-0.6c-8.4-3.4-15-11.8-25.3-9.6c-3.3,0.7-4.1-2-5.4-3.5c-1.5-1.7,0.3-3.9,1.4-5.3
		c7.2-9.3,16.8-15.8,25.8-23.1c0.9-0.7,2.5-1.6,3.4-1.2c9.1,3.2,14.5-3.3,19.7-8.2c3.3-3.2,6.2-3.4,9.1-1.8c4.4,2.4,6.8,0.6,8.5-2.9
		c1.6-3.2,3.6-4.4,6.9-3.3c4.4,1.4,8.5-1.6,12.9-0.8c3.1,0.5,4.7,3.3,3.5,6.3c-0.6,1.4-2.3,1.9-2.1,4.2c0.7,7,0.6,7.2,7.4,4.8
		c2-0.7,3.5,0.6,5.4,0.5C283.5,50.8,287.9,50.9,293.1,50.9z"/>
	<path fill="#EBA960" d="M145.7,108.3c-3.3,0.2-5.8-0.6-7.1-4c-0.9-2.5-2.8-2.9-5.2-2.8c-2.6,0.2-5.2,0.3-7.8,0.3
		c-1.6,0-3.3-0.3-3.6-2.2c-0.4-2,1.1-3.1,2.8-3.6c2.9-0.9,5.9-1.7,8.8-2.5c1.5-0.4,2.7-1,2.7-2.7c0-5.5,3.9-8.1,8-9.6
		c8.6-3,16.5-7.1,23.8-12.4c0.9-0.7,2.2-1,3.4-1.2c0.9-0.2,1.9-0.2,2.3,0.9c0.4,1,0,2-0.8,2.4c-5.5,2.7-7.2,8-9,13.2
		c-1.5,4.1-5.2,6.3-8.4,8.9c-1.4,1.1-2.7,2.5-4,3.8c-2.2,2.3-2.2,4.1,1.4,4.6c1.2,0.2,2.6,0.1,2.7,1.8c0.2,1.8-0.9,3-2.5,3.5
		C150.8,107.5,148.2,107.8,145.7,108.3z"/>
	<path fill="#EBA961" d="M363.1,107.1c-4.1-0.2-5.8-3.2-7.2-6.3c-0.7-1.5-1.1-3.5-3.2-3.4c-2,0.2-2.4,2.1-2.5,3.8
		c-0.1,2.1-1.1,3.6-3.1,4c-2.3,0.4-4.2-0.9-5.6-2.6c-1.6-1.9,0.3-3.3,1.4-4.7c1.9-2.3,3.3-4.6,2.1-7.9c-0.8-2.2,0.5-4.6,1.6-6.5
		c1.4-2.7,3.6-1.5,5.4,0c4.8,4.1,9.1,8.6,15.2,10.8c0.7,0.3,1.4,0.7,2.1,0.9c4.7,1.6,5.4,4.4,2,7.9
		C368.9,105.6,366.1,106.6,363.1,107.1z"/>
	<path fill="#EBAB64" d="M208.3,280.4c-3.1,0.2-4.6-0.4-6.1-1.3c-4.4-2.5-8.8-3.1-13.2,0.5c-1,0.8-2.5,1.2-3.8,1.6
		c-1.4,0.4-2.9,0.2-3.4-1.5c-0.5-1.4-0.3-3,1.1-3.7c6.6-3.4,13.3-6.5,20.9-4c1.8,0.6,3.4,0.9,5.3,0.5c2.9-0.7,5.9-0.5,6.4,3.2
		c0.6,3.6-2.3,4.2-5,4.5C209.4,280.2,208.2,280.4,208.3,280.4z"/>
	<path fill="#EBAA63" d="M303.8,71.3c0.5,0.1,0.7,0,0.8,0.1c2,1.5,6,0.2,6.6,3c0.8,3.7-3.2,4.4-5.6,5.6c-2.7,1.4-5.5,2.2-7.5,4.8
		c-1.7,2.1-10.8-1.2-11.1-4c-0.3-2.8,2.3-3.6,4.2-4.1c3.9-1,7.7-1.6,10.4-5C302.1,71.4,303.3,71.5,303.8,71.3z"/>
	<path fill="#EBAD69" d="M83.5,137.7c-3.8-1.9-6.9,0.1-10.2,2c-1,0.6-2.3,1.4-3.2-0.1c-0.7-1.2,0-2.5,1.1-3.2
		c2.8-1.8,4.9-4.7,8.8-4.4c0.8,0.1,2-0.3,2.5-0.9c3.3-4.2,6.7,0.4,10.1-0.1c1.4-0.2,0.2,4.6-2.2,5.4C88.3,137,86,137.2,83.5,137.7z"
		/>
	<path fill="#EBAC67" d="M223.3,282c-2.7,0.2-4.3-0.5-4.9-2.3c-0.7-2,0.7-3.1,2.1-4.1c3-2,6.4-1.7,9.8-1.5c2.2,0.2,1.9,1.6,0.9,2.9
		C229,280,226.4,282.2,223.3,282z"/>
	<path fill="#EBB375" d="M109.9,114.4c-2-0.1-3.6-0.7-3.5-2.2c0.1-2.6,2.4-2.4,4.2-2.2c1.8,0.1,4.5,0.1,4.2,2.3
		C114.4,115.2,110.9,112.8,109.9,114.4z"/>
	<path fill="#EBB579" d="M94.1,123c-0.5,2.2-1.7,3.9-4.1,4.3c-1.2,0.2-1.5-0.8-1.4-1.8c0.2-2.2,1.5-3.6,3.5-4.2
		C93.4,120.8,94,121.8,94.1,123z"/>
	<path fill="#EBA960" d="M100.3,126.7c-0.6,1.9-2.2,2.8-3.9,3.2c-1.2,0.3-1.5-0.8-1.4-1.7c0.4-1.9,1.6-3.3,3.7-3.4
		C99.7,124.8,100.3,125.5,100.3,126.7z"/>
	<path fill="#EBE6E0" d="M148.1,131.7c0,1-0.4,1.8-1.4,2.2c-1,0.4-1.9,0.1-2.5-0.7c-2.3-3.1-5.4-4.7-9.2-5.2
		c-2.3-0.3-2.7-2.8-2.9-4.7c-0.2-1.9,1.4-2.7,2.6-1.8c3.8,2.8,8.6,4,11.9,7.6C147.3,129.8,148.1,130.5,148.1,131.7z"/>
</g>
</svg>
