<?xml version="1.0" encoding="utf-8"?>
<!-- Generator: Adobe Illustrator 19.2.0, SVG Export Plug-In . SVG Version: 6.00 Build 0)  -->
<svg version="1.2" baseProfile="tiny" id="Calque_1"
	 xmlns="http://www.w3.org/2000/svg" xmlns:xlink="http://www.w3.org/1999/xlink" x="0px" y="0px" viewBox="0 0 560.4 1025.8"
	 xml:space="preserve">
<path fill="#831D1D" d="M550.9,270.7C550.9,121.2,429.7,0,280.2,0C130.7,0,9.5,121.2,9.5,270.7c0,106.2,61.2,198.1,150.2,242.4
	c0,22.2-0.1,50.5,0.1,72.2c0,1.6,0,3.1-0.3,4.5c0,0,0,0,0,0c-0.2,0.8-0.5,1.6-1,2.2c0,0,0,0,0,0c-0.9,1.5-2.3,2.7-4.3,3.6
	c2-0.8,3.3-1.4,4.3-2c-0.6,0.5-1.3,0.9-2.2,1.3c-9.8,4.7-15,12.5-14.6,23.8c0.4,9.3,5.9,15,13.1,19.7c0-0.2,0.1-0.5,0.3-0.7v0.8
	c2.7,1.4,2.9,2.9,0,4.6c-3,1.8-5.9,3.5-8.1,6.2c-0.4,0.6-0.8,1.1-1.2,1.7c0,0,0,0,0,0c-2,2.9-3.6,6.1-4.5,9.7c0,2.2,0,4.3,0,6.5
	c1.5,2.2,1.9,4.7,2,7.3c1.8,3,3.9,5.8,6.4,8.4c1.4,2.1,1,3.9-0.5,5.9c-1.3,1.8-2.9,3.6-3.4,5.9c-2.7,4.3-5.4,8.7-8.1,13
	c-0.4,2.8-2.6,4.4-4.1,6.4c-2.2,2.8-3.1,4.8,1.1,6.5c2.2,0.9,3,2.4,0,3.6c-0.6,0.6-1.1,1.2-1.7,1.8c-3.4,8.8-6.9,17.6-8.4,27
	c-1.7,10.4-2.7,20.8-3.6,31.3c-1.3,14.7-0.4,29.3-0.7,44c0,1.8,0.4,3.6,0.6,5.4c0.2,2.3,1.4,2.9,3.7,3c4.8,0.2,5,1,2.1,5.4
	c-3,7.6-1.6,15.4-0.9,23.2c0.2,2,0.4,4.1,2.5,5.1c2,0.9,3.4-0.5,4.8-1.8c2.1-2.1,3.8-1.8,4.7,1.2c3.3,11.1,9.3,21.2,12.2,32.5
	c0.5,1.9,2.1,3.5,4.4,3.4c2.4-0.1,3.3-1.8,3.8-3.9c0.4-2,1.4-3.7,2.2-5.5c3.2-7.6,7.5-14.7,9.7-22.7c1.2-0.5,1.8-1.6,2.3-2.8
	c3.1-8.3,6.1-16.6,9.2-24.8c1.6-4.1,2.5-8.6,4.2-12.6c2.9-6.8,4.4-14,6-21c1.9-8.1,3.7-16.3,4.8-24.7c2.1-14.6,2.1-28.9-1.5-43.2
	c-0.8-3.1,0.6-2.8,2.4-2.3c1.5,0.4,3.2,1.2,4.2-0.3c1.1-1.6,0.7-3.5-0.4-5.2c-1.8-2.9-3.5-5.8-5.1-8.7
	c-5.9-11.4-10.1-23.5-14.6-35.5c-1.5-4.1-1.5-7.3,2.2-10.5c4.9-4.2,7.7-9.9,8-16.5c0.4-9.6-4.2-16.8-11.7-22.1
	c-3.3-2.4-3.1-3.6,0.1-5.9c4-3,8.1-6.2,9-11.7c6.8-8.8-0.9-24.8-8.8-29.4c-8.6-5.1-8.7-4.9-8.8-14.8c-0.2-20.5,0.5-31.1-0.4-51.6
	c0-0.8,0.1-6.5,0.3-11.5C204.1,533,240.1,541,278,541.4c1.3,4-0.6,15.1-0.5,17.7c0.2,16.2,0,22.5,0.2,38.8c0,3.5-1,5.9-4,7.4
	c-7.1,3.6-11.1,9.5-14.1,16.8c-4,9.8,4.5,23.6,11.5,27.6c1.2,0.7,3.5,0.2,3.2,2.4c-0.2,1.7-2,2.1-3.4,2.7c-3.4,1.4-5.9,3.8-7.4,7.1
	c-1.9,1.4-2.1,3.5-2.6,5.6c-3.1,4.5-3.4,9.1-1,14c0,1.3,0.5,2.2,1.8,2.7c0,4.2,3.6,6.2,5.7,9c2.3,2.8,3.2,5.9,1.8,9.5
	c-0.2,1.6-1.1,2.7-1.8,4.1c-2.8,5.8-7.1,10.9-9.4,16.9c-1.4,0.1-2.1,1-2.8,2.1c-2.7,4.6-5.6,9-8.2,13.7c-2.2,4.1-5.8,7.4-7.2,12
	c-0.3,0.3-0.6,0.6-0.9,0.9c-3.4,1.5-4,4.5-2.2,7c1.9,2.7,3.5,0.1,4.9-1.5c0.6-0.1,1.1-0.1,1.7-0.2c1.3,0.2,2.7,0.2,2.9,2
	c-3.1,3.6-5.8,7.5-7.2,12.1c0,3.6-3.5,6.2-2.9,10c-0.2,0.3-0.5,0.4-0.8,0.2c0,0,0,0,0,0.1c-0.1,0.2-0.1,0.4-0.1,0.6
	c0-0.3,0-0.5,0-0.8c-0.1-0.1-0.1-0.1-0.2-0.2c-3,5.2-3.7,10.8-3.6,16.6l0,0c-2.3,9.9-3.6,19.9-3.2,30.2c0.1,1.6-0.5,3-0.9,4.4
	c-0.3,6.3,0.4,12.6-0.5,18.9c0.1,4.8-0.4,9.6,0.4,14.4c-0.1,0-0.3,0.1-0.4,0.3c0.3,15,0.7,30,1,45c0,0.5,0,0.9,0.1,1.4
	c0.6,4,2.2,4.8,6.4,3.4c0.9-0.7,1.8-1.3,2.7-2c2.2,0.5,1.8,2.1,1.7,3.7v0h0c-0.3,0.6-0.6,1.2-0.8,1.9c-1.3,1.6-1.4,3.6-1.8,5.5
	c-2,10.5,0.2,20.6,2,30.8c0.6,3.5,4.5,4.7,7.6,2.4c1.3-1,2.2-2.4,3.4-3.7c3.2-1.8,3.9,0.7,4.8,2.8c3.5,8,7,15.9,10.5,23.9
	c2.9,6.7,5.8,23.5,8.6,30.3c0.8,1.9,0.4,4.4,3.4,4.7c3,0.4,4.5-1.8,4.9-3.9c0.5-2.6,1.4-7.8,2.4-12.8c1.6-5.2,3.4-10.8,5.2-16.4
	c2.3-5.6,4.7-11.1,6.9-16.7c3-7.5,6-15,8.6-22.6c3.3-9.8,6.1-19.8,9.4-29.6c3.8-11.2,6.3-22.7,9.1-34.1c3.7-15.6,5.7-31.6,7.1-47.6
	c1-10.7,0.9-21.4-2.4-31.9c0.1-3.2,0-6.5-1.1-9.5c-0.8-2.5-2.1-4.8-3.1-7.2c-0.4-1-0.9-2.2,0.1-3c0.9-0.7,1.6,0.4,2.4,0.9
	c1,0.7,2,1.5,3.1,1.9c1.8,0.6,3.7,0.6,5-1.1c1.1-1.4,1-2.9,0.1-4.3c-6.2-8.9-11-18.6-15.5-28.4c-3.2-7.1-6.7-14-9.4-21.2
	c-3.5-9.3-6.1-18.8-9.4-28.2c-0.8-2.4-0.6-4,1.3-5.7c2.8-2.4,5.3-5.2,6.8-8.5c5.9-12.7,0.9-27.6-11.2-32.4c-1-0.4-2-1.1-2-2.3
	c0-1.4,1.1-1.8,2.2-1.9c2.9-0.3,4.3-2.8,6.1-4.6c8.5-8.4,10.2-22,2-32.4c-3.3-4.1-7.6-6.6-11.9-9.1c-2-1.2-2.7-2.6-2.7-4.8
	c0.1-6.9,0.1-13.8,0-20.7c0-1.9,0.9-4-0.9-5.6c-0.3-0.4-0.6-0.7-0.8-1.1c0.1-9.4,0.2-8.7,0.2-18c0-1.5,0.2-8.9,0.8-12.4
	c37.9-1.3,73.8-10.3,106.2-25.6c0,0.2,0,0.5,0,0.8c-0.2,22.1-0.6,45.2,0,67.2c0.2,6.4-1.8,9.3-7,12.3c-17,9.9-17,32-0.6,42.6
	c3,1.9,2.9,2.7,0.1,4.7c-3.6,2.4-7.7,4.6-8.5,9.6l0,0c-3.8,8-3.6,16,0.1,24c1.1,3.9,4.5,5.9,7.2,8.3c1.1,2.2,0.9,4.4-0.2,6.4
	c-1.7,3.2-2.7,6.6-3.5,10.1c0,0,0,0,0,0c-3.2,3.4-3.2,8.2-5.2,12.2c-4,7.9-6.7,16.4-11.9,23.6c-0.9,1.3-0.8,3.3,0.3,4.8
	c0.7,0.9,1.6,0.7,2.4,0.2c1.2-0.8,2.5-1.7,3.7-0.4c1.2,1.2,0.2,2.6-0.2,3.9c-2.4,8.3-3.2,16.8-3.1,25.4c0,9.6,1.9,18.9,3.6,28.2
	c2.3,12.6,5.8,24.9,9.8,37.1c2.9,9,6,18,9.4,26.8c5.2,13.6,11.6,26.8,17.5,40.2c0.7,1.7,1.8,2.9,3.8,2.7c2.1-0.2,3.3-1.4,3.9-3.4
	c1-3.7,2.3-7.3,3.8-10.8c2.9-6.5,5.9-13.1,8-19.9c1.2-3.8,1.7-5.3,5.4-2.2c2.9,2.4,6.4,1.6,6.6-1.3c0.6-7.8,2.3-15.5,0.2-23.3
	c0-0.5,0.1-0.9,0-1.4c-0.8-3.4-0.9-6.1,4.1-4.8c2,0.5,2.3-1.1,2.3-2.5c0.3-5.2,0.7-10.4,0.8-15.6c0.6-18.7-0.5-37.3-2.8-55.9
	c-1.8-14.1-4.1-28-12-40.2c-1-1.5-0.9-2.5,1.1-3c4.1-1.1,3.1-3.5,1.3-5.9c-6.3-8.6-12-17.6-17.9-26.5c-2.1-3.2-1.9-4.9,0.6-7.4
	c8.9-9,10.1-18.4,4.5-29.4c-2.2-4.3-5.5-7.3-9.4-9.8c-1.6-1-3-1.6-0.2-3.3c10.4-6.3,14.8-15.9,12.5-27.7
	c-1.4-7.1-5.4-13.2-12.7-16.1c-1.5-2.4-5.1-1.2-6.5-3.8c0-23.4,0.2-57.6,0-82.2C492.8,464.1,550.9,374.2,550.9,270.7z M187.9,623
	c0,0.2,0,0.3-0.1,0.5c0,0,0,0,0,0c0,0-0.1,0-0.1,0.1C187.8,623.3,187.9,623.1,187.9,623z M239.9,918.1l-0.3-0.2c0,0,0-0.1,0-0.1
	c0.1,0.1,0.2,0.1,0.4,0.2C240,918,240,918.1,239.9,918.1z M381.8,650.9C381.8,650.9,381.7,650.9,381.8,650.9
	C381.8,650.9,381.8,650.9,381.8,650.9L381.8,650.9z"/>
<g>
	<path fill="#831D1D" d="M155,637.9v0.8c-0.1-0.1-0.2-0.1-0.3-0.2c0,0,0,0,0,0C154.7,638.3,154.8,638.1,155,637.9z"/>
	<path fill="#831D1D" d="M168.4,511.5C168.4,511.5,168.4,511.5,168.4,511.5"/>
	<path fill="#831D1D" d="M194.7,739.3c1.2,0,2.2-0.2,2.8-0.7c-0.5,0.2-1.2,0.4-2.1,0.4c-4.2,0.1-5.4,1.8-3.6,5.7
		c1.1,2.4,1.6,4.9,1.9,7.5c2.9,21.3-0.3,42.1-5.6,62.6c-2.5,9.8-5.5,19.4-8.8,28.9c-0.5,1.3-1.2,2.8-0.4,4.2
		c-0.3-0.1-0.5-0.1-0.8,0.1c0.3,0,0.6,0,0.9,0c0,0.2,0,0.4,0,0.6c0.1-0.2,0.1-0.4,0.2-0.5c0,0,0,0,0-0.1c0-0.4,0.1-0.8,0.1-1.2
		c0.8-6.9,4.1-13.2,5.8-19.9c1.7-6.3,3.8-12.6,5.1-19c1.5-7.9,3.9-15.8,4.3-23.9c0.5-13.4,2.5-26.9-2.6-40
		C191,741.8,190.3,739.2,194.7,739.3z"/>
	<path fill="#831D1D" d="M146.9,649.5c-0.4,0.6-0.8,1.1-1.2,1.7C146.1,650.6,146.5,650,146.9,649.5z"/>
	<path fill="#831D1D" d="M382.5,707.9C382.5,707.9,382.5,707.9,382.5,707.9c-0.1,0.3-0.2,0.5-0.3,0.7c0-0.1,0-0.1,0.1-0.2
		c0,0,0,0,0,0c0.1-0.1,0.2-0.3,0.2-0.4C382.5,708,382.5,707.9,382.5,707.9z"/>
	<path fill="#831D1D" d="M411.2,901.4L411.2,901.4c-0.9-1.8-1.8-3.5-2.6-5.3c0.6,1.5,1.2,3.1,1.7,4.6c0.1,0.5,0.4,0.9,0.7,1.3
		c0.5,0.4,1,0.6,1.4,0.8C411.9,902.5,411.5,902,411.2,901.4z"/>
	<path fill="#831D1D" d="M444.7,773.2v0.6c-0.1-0.5-0.2-0.9-0.4-1.3C444.4,772.7,444.5,772.9,444.7,773.2z"/>
	<path fill="#831D1D" d="M313.8,746.1c-0.2,0-0.3-0.1-0.5-0.3c0.2,0,0.3,0,0.5,0C313.8,745.9,313.8,746,313.8,746.1z"/>
	<path fill="#831D1D" d="M159.6,512c0,0,0.1,0,0.1,0v-1.3C159.7,509.3,159.6,511.1,159.6,512z M159.6,512
		C159.6,512,159.5,512,159.6,512C159.5,512.8,159.5,512.6,159.6,512z"/>
	<path fill="#831D1D" d="M233.3,789.6c0.2-1.6,1-3.1,1.5-4.7C234.4,786.5,233.9,788.1,233.3,789.6z M235.9,912.2L235.9,912.2
		C235.9,912.2,236,912.1,235.9,912.2z M324.8,798c-0.1,0.1-0.1,0.1-0.2,0.2l0,0c-0.1,0.1-0.1,0.1-0.2,0.2l0.2-0.2
		c0.2,0,0.4,0.1,0.7,0.1C325.1,798.2,325,798.1,324.8,798z"/>
	<path fill="#831D1D" d="M235.9,912.2L235.9,912.2C236,912.1,235.9,912.2,235.9,912.2z M313.3,745.8c0.2,0,0.3,0,0.5,0
		c0,0.1,0,0.2,0,0.3C313.7,746.1,313.5,746,313.3,745.8z M320.3,781c0-0.3,0.1-0.5,0.2-0.7C320.5,780.5,320.4,780.7,320.3,781z
		 M324.6,798.2L324.6,798.2c0.1-0.1,0.2-0.1,0.2-0.2c0.2,0.1,0.3,0.2,0.5,0.3C325,798.3,324.8,798.2,324.6,798.2l-0.2,0.2
		C324.5,798.3,324.5,798.2,324.6,798.2z"/>
	<path fill="#831D1D" d="M407.4,505.4c0,0.7,0,1.4,0,2.1c0.4-0.2,0.9-0.3,1.3-0.5C407.6,506.3,407.4,502.5,407.4,505.4z
		 M408.7,507.1c0.3,0.2,0.7,0.2,1.2-0.5C409.5,506.7,409.1,506.9,408.7,507.1z"/>
	<path fill="#831D1D" d="M369.6,736.8c0.1,0.4,0.2,0.8,0.4,1.1C369.7,737.7,369.5,737.3,369.6,736.8z M382.5,707.9
		c-0.1,0.2-0.2,0.4-0.3,0.7c0-0.1,0-0.1,0.1-0.2c0,0,0,0,0,0C382.3,708.3,382.4,708.1,382.5,707.9
		C382.5,708,382.5,707.9,382.5,707.9C382.5,707.9,382.5,707.9,382.5,707.9z M444.7,773.7c-0.1-0.5-0.2-0.9-0.4-1.3
		c0.1,0.2,0.2,0.5,0.4,0.8V773.7z"/>
	<path fill="#A05757" d="M236.2,781.7c-0.2,0.3-0.5,0.4-0.8,0.2c0-0.1,0-0.1,0-0.2c0,0,0-0.1,0-0.1c0.1-3.7,1.5-7,3.6-10
		C239,775.3,235.6,777.9,236.2,781.7z"/>
	<path fill="#B88787" d="M126.5,842.5c1.4-3,0.9-4.8-2.8-4.6c-2.5,0.1-3.6-1.1-3.7-3.6c0-0.6-0.3-1.2-0.3-1.8
		c0.1-18.5-0.8-37,0.9-55.5c0.7-7.6,1.7-15.2,3-22.7c1.7-9.8,4.4-19.3,9.3-28.1c-3.4,8.8-6.9,17.6-8.4,27
		c-1.7,10.4-2.7,20.8-3.6,31.3c-1.3,14.7-0.4,29.3-0.7,44c0,1.8,0.4,3.6,0.6,5.4c0.2,2.3,1.4,2.9,3.7,3
		C129.1,837.2,129.4,838,126.5,842.5z"/>
	<path fill="#B88787" d="M134.5,724.4c1.9-2,0.6-2.6-1.2-3.5c-3.4-1.6-3.7-3-1.4-5.9c1.9-2.3,3.7-4.8,5.5-7.2
		c-0.4,2.8-2.6,4.4-4.1,6.4c-2.2,2.8-3.1,4.8,1.1,6.5C136.7,721.7,137.4,723.2,134.5,724.4z"/>
	<path fill="#B88787" d="M143.1,674.8c-1.7-2.2-0.7-5-2-7.3C142.6,669.7,143,672.2,143.1,674.8z"/>
	<path fill="#B88787" d="M176.2,857.8c-1.5,5.5-3.7,10.9-6.5,15.9c2.7-7.3,5.4-14.6,8.2-21.9c0.4-1.1,0.9-2.1,1-3.2
		c0-0.2,0-0.4,0-0.6c-0.3,0-0.6,0-0.9,0c0.3-0.2,0.6-0.2,0.8-0.1c0.1,0,0.1,0,0.1,0.1c0.1,0,0.1,0.1,0.2,0.1c0,0,0.1,0.1,0.1,0.1
		C180.3,851.9,177.1,854.5,176.2,857.8z"/>
	<path fill="#C09595" d="M159.5,589.9c-0.2,0.8-0.5,1.6-1,2.2C158.9,591.4,159.2,590.6,159.5,589.9z"/>
	<path fill="#831D1D" d="M379.7,652.6L379.7,652.6C379.7,652.6,379.7,652.6,379.7,652.6L379.7,652.6z"/>
	<path fill="#BF9393" d="M382.5,707.9C382.5,707.9,382.5,707.9,382.5,707.9c-0.1,0.3-0.2,0.5-0.3,0.7c0-0.1,0-0.1,0.1-0.2
		c0,0,0,0,0,0c0.1-0.1,0.2-0.3,0.2-0.4C382.5,708,382.5,707.9,382.5,707.9z"/>
	<path fill="#831D1D" d="M379.7,652.6L379.7,652.6C379.7,652.6,379.7,652.6,379.7,652.6L379.7,652.6z"/>
	<path fill="#CAA9A9" d="M444.7,773.2v0.6c-0.1-0.5-0.2-0.9-0.4-1.3C444.4,772.7,444.5,772.9,444.7,773.2z"/>
	<path fill="#A86767" d="M313.8,746.1c-0.2,0-0.3-0.1-0.5-0.3c0.2,0,0.3,0,0.5,0C313.8,745.9,313.8,746,313.8,746.1z"/>
	<path fill="#C7A5A5" d="M126.5,842.5c0.2-2.4,0-4.4-3.4-3.4c-3,0.9-3.9-1.3-3.9-3.6c0.5-23.7-1.8-47.5,2.3-71.1
		c1.5-8.6,2.6-17.2,5.1-25.5c1.4-4.5,2.9-9,6.2-12.6c-3.4,8.8-6.9,17.6-8.4,27c-1.7,10.4-2.7,20.8-3.6,31.3
		c-1.3,14.7-0.4,29.3-0.7,44c0,1.8,0.4,3.6,0.6,5.4c0.2,2.3,1.4,2.9,3.7,3C129.1,837.2,129.4,838,126.5,842.5z"/>
	<path fill="#C39D9D" d="M235.9,912.2L235.9,912.2C236,912.1,235.9,912.2,235.9,912.2z"/>
	<path fill="#CDB0AF" d="M231.4,798.2c0.4,5.7-1.4,11.1-2.2,16.6c-0.8,5.9,0.7,11.9-1.4,17.6c-0.6-0.6-0.6-1.3-0.1-2
		c0-10.1-0.1-20.3,2.8-30.2C230.7,799.5,231.1,798.9,231.4,798.2z"/>
	<path fill="#C7A5A5" d="M134.5,724.4c0.2-1.4,0-2.4-1.7-2.6c-4.9-0.5-4.1-3.5-2.2-6.1c2.1-2.7,3.8-5.9,6.9-7.8
		c-0.4,2.8-2.6,4.4-4.1,6.4c-2.2,2.8-3.1,4.8,1.1,6.5C136.7,721.7,137.4,723.2,134.5,724.4z"/>
	<path fill="#D0B5B5" d="M227.7,830.4c0,0.7,0.1,1.3,0.1,2c0,6.4-0.1,12.9-0.1,19.3c-1.2,4.6,0.5,9.3-0.9,13.9
		c-1.8-3.9-1-8.2-0.7-12.1c0.6-6.8,0.6-13.7,0.8-20.5C227,832.1,227.5,831.2,227.7,830.4z"/>
	<path fill="#C8A6A5" d="M386.9,691.4c-1.7,3.2-2.7,6.6-3.5,10.1c-0.1-3.2,0.8-6.3,2.3-9.1c1.3-2.4,1.9-4.8,1.3-7.4
		C388.2,687.1,388,689.3,386.9,691.4z"/>
	<path fill="#CDB0AF" d="M233.3,789.6c0.2-1.6,1-3.1,1.5-4.7C234.4,786.5,233.9,788.1,233.3,789.6z"/>
	<path fill="#CDB0AF" d="M235.4,782c-0.1,0.2-0.1,0.4-0.1,0.6c0-0.3,0-0.5,0-0.8C235.3,781.9,235.3,781.9,235.4,782z"/>
	<path fill="#CDB0AF" d="M226.8,865.6c0.5-4.6-1-9.3,0.9-13.9c0,4.9,0,9.8,0,14.7c-0.3,0-0.6,0-0.9,0
		C226.8,866.1,226.8,865.8,226.8,865.6z"/>
	<path fill="#CDB0AF" d="M236.2,781.7c-0.2,0.3-0.5,0.4-0.8,0.2c0,0-0.1-0.1-0.1-0.1l-0.2-0.2c0.4-3.7,0.2-7.6,3.9-9.9
		C239,775.3,235.6,777.9,236.2,781.7z"/>
	<path fill="none" d="M144.8,603.7c-1.2,2.8-2.4,5.6-3.7,8.4"/>
	<path fill="#EBA960" d="M523.8,353.9c-3.5-1.2-5.7,1.6-8,3.2c-2.7,1.8-4.3,1.6-6.1-1c-3.4-5.1-6.1-10.4-5.4-16.7
		c1-8.3-1.4-14.9-8-20.3c-4.4-3.6-7.1-8.8-10.2-13.5c-3.6-5.5-3-11.3,0.2-17c0.9-1.6,1.7-3.2,2.5-4.9c2.8-6,2.4-9.3-2.4-14
		c-4.6-4.5-8.3-9.7-11.8-15.2c-3.3-5.3-5-10.7-4.6-16.9c0.4-6-1.4-7.6-7.4-7.9c-3.4-0.2-6.6-0.4-9.9-1.4c-3.6-1.2-5.9,0.7-6.7,4.3
		c-1.6,6.9-2.5,7.5-9.2,6.6c-3.7-0.5-7,0.4-9.5,3.4c-0.7,0.8-1.2,1.7-1.8,2.6c-4.3,6.1-9,6.6-13.9,0.8c-5.4-6.4-11.3-12-18.9-15.7
		c-4.1-2-6.9-5.2-7.8-10.1c-0.9-5.3-5.7-8.6-7.9-13.3c-3.7-8.1-5.4-16.5-2.5-24.9c3.5-10.4,5.7-21.2,10.4-31.2
		c1.2-2.6,1.1-5.8-0.2-8.5c-1.4-2.9-3-5.2-6.2-1.3c-2,2.4-4.7,1.9-6.8-0.2c-3.5-3.3-6-7.4-8.3-11.5c-2.4-4.4-1-7.6,3.6-9.6
		c2.4-1,4.9-1.8,7.3-2.8c2.6-1.1,5.1-2.7,4.7-6c-0.5-3.6-2.9-5.6-6.4-6.3c-0.9-0.2-1.8-0.1-2.7-0.2c-1.2-0.2-2.6-0.2-2.9-1.8
		c-0.3-1.4,0.7-2.4,1.8-2.9c6.4-3.1,9.3-8.4,10.7-15.1c0.5-2.6,1.2-5.3,3.2-7.5c2-2.2,1.3-4.2-1.4-5.5c-3.7-1.7-7.7-2.8-8.7-7.8
		c-0.4-2.1-3.1-1.6-4.9-1.5c-2.8,0.1-5.4,0-7.5-2.5c-3-3.7-3-5.2,0.8-8.2c4.6-3.6,5.3-6,3.6-12.5c-1.6-6.1-1.6-6.2,4.1-8.3
		c2.2-0.8,3-2.4,3.1-4.6c8.4,3,16.6,6.5,24.5,10.8c-0.4,2.2-2.3,3.6-3.1,5.6c-1.6,3.6-0.8,6.3,2.5,8.1c7.7,4.2,7.9,5.4,1.7,13.3
		c6.3-3.9,12.1-4.7,18.3-2.6c2,0.7,4.6,0.5,5.4-2.1c0.9-2.7-1.5-3.7-3.4-4.7c-1.5-0.8-3.2-1.1-4.6-2c-2.6-1.7-2.5-3.6,0-6.1
		c12.2,6.5,23,14.9,33.6,23.8c12.9,10.8,24.7,22.7,35,36.1c-2.7,2.2-5.5,1.3-8.2,0.1c-1.3-0.6-2.4-1.4-3.6-2.1
		c-2.8-1.5-4.5-0.9-5.4,2.4c-2.6,9.8-3,9.9-11.9,4.2c-8.2-5.2-17-9.2-26-12.8c-1.7-0.7-4.4-2.1-5.2,0.3c-0.6,1.8,2.4,2.3,4,2.9
		c3.3,1.1,6.8,1.8,10,3.3c3.6,1.8,5.1,4.7,4.3,8.2c-0.5,2.2-1.8,3.6-4,4c-2,0.3-3.3-0.9-3.9-2.6c-1.2-3.3-3.8-4.5-7-5.1
		c-3-0.5-5.8-2-8.8-2.6c-7-1.5-13.5-0.7-18.2,5.5c-0.9,1.2-2,2.4-3.2,3.3c-2,1.7-2.6,3.7-1.5,6.2c2.1,4.7,2.4,9.4,0.2,14.6
		c2.3-0.1,3.3-1.6,4.4-2.6c6.4-5.4,13-10.3,21.3-12.3c2.3-0.5,4.5-0.8,6.8-0.7c2.9,0.1,5.1,1.2,5.7,4.3c0.5,2.5,1.6,3.5,4.2,2.3
		c4-1.8,7.7-1.2,11.4,1c2.1,1.3,4.3,2.3,6.9,2.3c3.9,0,6-2.2,5.4-6c-0.4-2.4,0.4-4.3,2.5-4.7c8.8-1.7,17.3-5.6,26.5-4.3
		c14.2,18.7,24.9,39.3,33.2,61.1c12.9,34,18.3,69.2,16.3,105.5C536.9,306.7,532.4,330.7,523.8,353.9z"/>
	<path fill="#831D1D" d="M488.7,115.5c-8,1.6-16.1,3.2-24.1,4.9c-2.8,0.6-6.6,0.9-2.6,5.3c1.4,1.5-2.5,5.9-5.6,6.4
		c-3.3,0.5-6.4-0.2-9.1-2.2c-3.9-2.9-7.9-3.6-12.2-0.5c-2.4,1.8-4.3,0.8-4.2-2.2c0.2-4.5-2.2-5.5-6.1-5.2
		c-10.5,0.8-18.5,6.5-26.1,13.2c-1.4,1.2-2.4,2.8-4.3,3.4c-1,0.3-2.2,0.5-3-0.5c-0.6-0.8-0.1-1.7,0.5-2.5c3.2-3.7,2.3-7.8,0.7-11.7
		c-1.8-4.1-2.9-7.5,2.2-10c0.6-0.3,1-1.1,1.5-1.7c5.5-7,13.2-9.3,21.5-6.5c3.5,1.2,6.9,2.6,10.6,3c2.2,0.2,3.6,1.2,4.2,3.6
		c0.4,1.6,0.2,4.1,2.9,3.9c1.6-0.1,2.8-1.2,3.2-2.9c0.5-2.3,0.6-4.9-1.7-6.2c-2.5-1.4-5.3-2.3-8.1-3c-2.6-0.6-5-1.5-7.4-2.6
		c-1.5-0.7-3.5-1.5-2.7-3.6c0.7-1.8,2.6-2.6,4.6-2.2c1.8,0.3,3.6,0.9,5.3,1.6c9.7,4.5,19.6,8.6,28.3,14.9c1.2,0.9,2.3,2.2,4,1.4
		c1.7-0.8,1.6-2.5,1.7-4c0-0.8,0.1-1.5,0.2-2.3c1.1-6.3,3.3-7.4,8.5-3.6c3.3,2.4,6.7,2.8,10.4,2.7
		C484,109.4,486.3,112.4,488.7,115.5z"/>
	<path fill="#9D5050" d="M235.9,912.2L235.9,912.2C236,912.1,235.9,912.2,235.9,912.2z"/>
	<path fill="#9D5050" d="M325.3,798.3c-0.2,0-0.5-0.1-0.7-0.1l-0.2,0.2c0.1-0.1,0.1-0.1,0.2-0.2l0,0c0.1-0.1,0.1-0.1,0.2-0.2
		C325,798.1,325.1,798.2,325.3,798.3z"/>
	<path fill="#923B3B" d="M355.1,536c-0.1,0-0.1,0.1-0.2,0.1c0,0,0,0,0,0C355,536.1,355.1,536.1,355.1,536z"/>
	<path fill="#923B3B" d="M382.5,707.9c-0.1,0.2-0.2,0.4-0.3,0.7c0-0.1,0-0.1,0.1-0.2c0,0,0,0,0,0
		C382.3,708.3,382.4,708.1,382.5,707.9C382.5,708,382.5,708,382.5,707.9z"/>
	<path fill="#A35C5C" d="M198.2,737.2c0.1,0.6-0.2,1.1-0.8,1.4C197.9,738.2,198.1,737.7,198.2,737.2z"/>
	<path fill="#831D1D" d="M413.2,46.4c-2,3.2-1.4,5.1,2.5,5.8c1.2,0.2,2.3,0.8,3.4,1.3c2.7,1.2,5.1,2.9,4,6.3
		c-1.1,3.3-4.6,4.3-7.2,3.2c-6.4-2.7-11.9-1.2-17.6,1.6c-1,0.5-2.4,1.7-3.3,0.3c-0.9-1.6,0.8-2.3,1.9-3.1c0.9-0.8,1.9-1.6,2.6-2.6
		c2.3-3.2,1.7-5.3-2.2-6.5c-3-0.9-6.1-1.6-6.3-5.5c-0.3-4.5,1.3-8,5.4-10.2C402.1,39.8,407.9,42.6,413.2,46.4z"/>
	<path fill="#A66363" d="M370,737.9c-0.3-0.3-0.5-0.6-0.4-1.1C369.6,737.2,369.8,737.6,370,737.9z"/>
	<path fill="#9D5050" d="M230.6,829.6c-0.3-7.8,0.7-15.5,2.8-23.1C233.2,814.3,231.8,822,230.6,829.6z"/>
	<path fill="#9D5050" d="M324.6,798.2C324.6,798.2,324.6,798.2,324.6,798.2l-0.2,0.2C324.5,798.3,324.5,798.2,324.6,798.2z"/>
	<path fill="#9D5050" d="M313.8,746.1c-0.2,0-0.3-0.1-0.5-0.3c0.2,0,0.3,0,0.5,0C313.8,745.9,313.8,746,313.8,746.1z"/>
	<path fill="#A86767" d="M320.5,780.3c-0.1,0.2-0.2,0.4-0.2,0.7C320.3,780.7,320.4,780.5,320.5,780.3z"/>
	<path fill="#C39D9D" d="M233.3,789.6c0.2-1.6,1-3.1,1.5-4.7C234.4,786.5,233.9,788.1,233.3,789.6z"/>
	<path fill="#C39D9D" d="M236.2,781.7c-0.2,0.3-0.5,0.4-0.8,0.2c0,0,0,0,0,0.1c-0.1,0.2-0.1,0.4-0.1,0.6c0-0.3,0-0.5,0-0.8v-0.1
		c0.1,0,0.1,0,0.2,0C235.7,781.7,235.9,781.7,236.2,781.7z"/>
	<path fill="#A66363" d="M444.7,773.2v0.6c-0.1-0.5-0.2-0.9-0.4-1.3C444.4,772.7,444.5,772.9,444.7,773.2z"/>
	<path fill="#A86767" d="M325.3,798.3c-0.2,0-0.5-0.1-0.7-0.1c0,0,0,0,0,0l0,0c0.1-0.1,0.1-0.1,0.2-0.2
		C325,798.1,325.1,798.2,325.3,798.3z"/>
	<path fill="#EBA960" d="M97.2,140.9c-5.6,1.1-10.8,3.6-16.6,3.3c-1.2-0.1-3,0.2-3.5-0.5c-3.7-4.7-5.7-2.3-7.8,1.5
		c-0.8,1.4-2.5,2.1-4,1.3c-1.9-1-3.8-2.3-4-4.7c-0.1-1.9,1.6-2.5,3-3.1c3.1-1.4,6.5-1.9,9.9-1.9c6.4,0,11.9-2.4,17.4-5.3
		c2.6-1.4,4.3-3.4,4.5-6.5c0.1-1.4,0.2-2.8,2-3.1c1.8-0.3,2.9,0.7,3.7,2.2c0.5,0.9,0.8,2,0.8,3.1c0,3.7,2,4.4,5.1,3.7
		c5.1-1.2,10.1-2.3,15.4-1c2.4,0.6,2.5-1.2,2.4-2.8c-0.2-3.4-0.7-6.7-0.8-10.1c-0.2-3.4,1.2-5.8,4.7-7c4.1-1.5,4.8-4.7,1.9-7.8
		c-0.6-0.6-1-1.2-0.8-2c0.3-1,1.2-1.4,2.1-1.5c2.4-0.1,4.6,0.4,6.6,1.6c4.9,2.9,9.9,2.6,14.9,0.3c1.3-0.6,2.5-1.1,3.7-1.8
		c6.5-3.7,12.9-3.4,19,0.9c4.7,3.3,9.6,4.5,15.2,2.6c1.7-0.6,3.6-0.5,5.4-0.6c1.3,0,2.6,0.4,2.8,1.8c0.2,1.6-1.3,2-2.4,2.3
		c-1.6,0.4-3.3,0.3-5,0.4c-1.5,0.1-2.7,0.7-3,2.3c-0.2,1.5,0.7,2.3,2,2.7c1.9,0.6,4.5,0.9,2.8,3.8c-1.6,2.9,0.5,9-6.4,7.7
		c-4.8-0.9-9.7-1.4-14.5-2.1c-2.4-0.4-2.8-1.7-1.5-3.6c0.9-1.3,1.8-2.8,0.7-4.2c-1.3-1.7-3.1-0.9-4.6-0.1c-1.6,0.8-2.9,0.5-4.4-0.3
		c-1.9-1-3.9-1.3-6.2-1.1c-3.9,0.4-5.3,1.3-3.3,5.4c1.6,3.3,0.6,7.7,3.9,10.5c0.3,0.3,0.3,1.2,0.2,1.8c-0.7,4.4-9.6,9.3-13.6,7.2
		c-2.5-1.3-3.7-1.1-4.9,1.6c-1.9,4.3-4.4,8.4-6.4,12.7c-2.2,4.9,0.6,9.1,5.5,7.9c9.2-2.3,18.6-1.2,27.8-3.4c2.7-0.6,5.2-1.3,6.1-4.1
		c1-2.8-0.2-4.9-2.2-7c-4.9-5-1.7-15.6,5.2-17.3c4.1-1,8.1-0.9,11.7,2.1c5.9,4.8,8,4.3,11.6-2.2c1.5-2.8,3.5-2.7,4.9-0.2
		c2.9,5.2,7.4,7.2,13,8.3c5.1,1,10,3,13.5,7.3c1,1.2,2.2,2.2,2.3,3.9c0.2,2.7,2,3.7,4.4,3.5c2.3-0.1,3.9,0.9,5,2.7
		c1.7,2.7,1.2,4.9-2.2,5.3c-3.5,0.4-7,0.4-10.6,0.2c-2.5-0.1-4.4-1.7-4.6-4.4c-0.4-4.2-3-4.3-5.9-3.1c-3.2,1.4-6.2,2.6-9.7,1.5
		c-0.4-0.1-0.9,0-1.4,0.1c-1.5,0.4-8.4,13.5-8,15c0.4,1.5,1.5,1.4,2.5,0.9c1.4-0.7,2.6-1.7,3.9-2.4c2.1-1.2,4.5-1.6,5.5,0.9
		c1.2,3.1,3.2,3.2,5.8,2.9c1-0.1,2.2-0.3,2.9,0.9c0.7,1.3,0.1,2.4-0.8,3.3c-2.6,2.6-4.6,5.7-9.2,2.3c-4-3-9.8,0.3-10,5.4
		c-0.3,6.9-0.9,13.5-6.5,18.5c-1.5,1.4-0.2,4.3-1.3,5.1c-4.8,3.5-5.3,7.5-2.7,12.5c0.4,0.8-0.4,2.4-1,3.4
		c-5.3,8.4-4.2,16.9-0.3,25.4c0.8,1.7,1.2,3.5,1.6,5.3c0.3,1.1,0.7,2.6-0.8,3.2c-1.2,0.5-2-0.4-2.7-1.2c-1.4-1.5-2.8-2.9-4-4.5
		c-5.2-7.1-14.7-4.4-18.1,0.6c-1.3,1.9-2.7,2.6-4.8,3c-11.3,2.2-17.1,9.2-17.6,20.8c-0.3,7.2-0.1,13.9,7.2,18
		c4.3,2.5,8.9,2.5,13.3,1.1c2.7-0.9,4.4-3.3,4.4-6.4c0-1.5,0.3-2.8,2-3.1c1.8-0.3,3,0.4,3.7,2c0.7,1.5,1.5,3,1.9,4.6
		c1.7,6.2,5.9,9.2,12.2,8.3c2.5-0.4,4,0.4,5.1,2.7c2.9,5.8,8.9,7.1,14.1,9.6c0.4,0.2,1,0.2,1.3,0c4.1-3.2,8.1-3.8,12.3,0.1
		c1,0.9,2.6-0.5,2.7-2.1c0.1-1.7,0.1-3.4,0-5.1c-0.3-4.2,2.1-6.8,5.7-7.1c11.7-0.8,23.5-2.7,35.3-1.4c1.7,0.2,3.5,0.4,4.7,1.6
		c4.1,4.1,9.1,5.2,14.7,5.2c5.6,0,10.8,2.4,15.7,4.8c9.4,4.6,19.1,4.9,29.1,2.9c5.9-1.2,11.6,0,17.2,1.7c2.3,0.7,4.1,2.9,3.3,5.4
		c-3.6,11.4,0.8,21.3,5.2,31.3c3.4,7.8,2.6,13.2-3.4,19.1c-4.6,4.5-9.8,8.7-11.2,15.4c-1.3,6-3.3,11.7-6,17.2
		c-1.8,3.7-1.9,7.6-1,11.7c0.9,4.2,1.3,8.5,1.1,12.8c-0.1,1.7-0.5,3.3-1.3,4.8c-1.6,2.9-3.6,3.4-5.5,0.4c-1.6-2.5-3.5-4.1-6.4-2.8
		c-3,1.4-2.6,4.4-2.2,6.9c0.6,3.9,3.2,6.9,5.7,9.9c2.1,2.5,2.5,4.9,0.3,7.4c-1.2,1.4-1.8,2.7-1.1,4.6c1.1,3-0.4,3.7-3.1,4
		c-7.4,0.8-9.6,3-9,10.2c0.7,9,3.3,17.7,6.1,26.3c1.2,3.6,3.7,5.6,7.8,4.5c2-0.5,4.1,0,4.6,2c0.5,2.3-2.1,2.3-3.5,2.7
		c-2.8,0.6-5.7,1-8.6,1.2c-5.7,0.4-10.1-1.9-13.3-6.7c-4.1-6.1-7-12.9-9.7-19.7c-2.3-5.7-5-11.2-7.6-16.7c-2.1-4.5-2.1-9.5-1.4-14.4
		c1.4-9.6,0.5-18.8-4-27.7c-3.9-7.8-7.6-15.7-10.4-24c-2.1-6.2-5.1-10.6-12.9-9.6c-4.7,0.6-7.2-3.6-9.8-6.7c-4.2-4.9-8.1-10-14-13.1
		c-6.5-3.4-9.2-9.1-9.1-16.3c0.1-5.4,0.2-10.8-0.1-16.1c-0.2-5.7-1.4-11.3-5.7-15.6c-1.2-1.2-2.5-2.6-4.3-2.2
		c-4.2,1-7.3-1.3-10.8-2.8c-3.1-1.3-6.3-2.6-9.6-3.2c-4.1-0.7-7.5-2.4-10.7-5c-2.3-1.9-4.9-2.7-8-2.8c-10.6-0.1-21.1,0.1-31.7,1.4
		c-7.9,1-15.7-0.9-21.5-7.1c-7.3-7.8-16.4-13.3-25.4-18.8c-2.3-1.4-4.7-2.6-6.5,1c-0.9,1.8-2.3,1.2-3-0.5c-2.4-5.1-6.9-7.3-11.9-8.6
		c-9.9-2.7-15.7-9.2-18.1-18.8c-2.9-11.5-6.4-22.7-12.3-33c-0.4-0.8-0.4-2-1.6-1.9c-1,0.1-1.3,1.2-1.6,2.1c-0.6,1.8-0.8,4.5-3.6,3.8
		c-2.4-0.6-3.5-2.7-3.7-5.3c-0.4-4,1.2-7.4,2.6-11c3.5-9.1,3.8-18.9,4.7-28.4c0.5-5.8,1-11.6,3.2-17.1c1.5-3.6,4-6.1,8.3-6.1
		c4.9,0,9.9,0.5,14.7-0.2C79.5,152.5,89,147.9,97.2,140.9z"/>
	<path fill="#EBA960" d="M293.3,41.7c-2.4,2.9-4.9,1.9-6.9,1.9c-2.4,0.1-4.5,0.2-6.2,2.2c-1.3,1.7-2.6,2.5-0.1,4.7
		c3.7,3.2,2.9,9.8-1.4,12.5c-5,3.1-9.3,7.3-14.7,9.8c-2.8,1.3-3.3,5.2-6.4,6.1c-4.9,1.5-7.9,4.8-10.7,8.9c-1.1,1.6-1.5,2.8-1.5,4.5
		c0,2.6-0.2,5.3,0.1,7.8c0.5,3.7-1.4,6.3-4.1,7.8c-2.2,1.2-4.9-0.9-6.5-2.2c-4-3.2-7.3-7.2-10.8-10.9c-1.7-1.8-1.8-4.5-3.1-6.7
		c-2.2-3.8-4.5-2.8-7.1-1.9c-2.1,0.8-3.4,0.3-5.6-0.6c-8.4-3.4-15-11.8-25.3-9.6c-3.3,0.7-4.1-2-5.4-3.5c-1.5-1.7,0.3-3.9,1.4-5.3
		c7.2-9.3,16.8-15.8,25.8-23.1c0.9-0.7,2.5-1.6,3.4-1.2c9.1,3.2,14.5-3.3,19.7-8.2c3.3-3.2,6.2-3.4,9.1-1.8c4.4,2.4,6.8,0.6,8.5-2.9
		c1.6-3.2,3.6-4.4,6.9-3.3c4.4,1.4,8.5-1.6,12.9-0.8c3.1,0.5,4.7,3.3,3.5,6.3c-0.6,1.4-2.3,1.9-2.1,4.2c0.7,7,0.6,7.2,7.4,4.8
		c2-0.7,3.5,0.6,5.4,0.5C283.8,41.5,288.1,41.7,293.3,41.7z"/>
	<path fill="#EBA960" d="M145.9,99c-3.3,0.2-5.8-0.6-7.1-4c-0.9-2.5-2.8-2.9-5.2-2.8c-2.6,0.2-5.2,0.3-7.8,0.3
		c-1.6,0-3.3-0.3-3.6-2.2c-0.4-2,1.1-3.1,2.8-3.6c2.9-0.9,5.9-1.7,8.8-2.5c1.5-0.4,2.7-1,2.7-2.7c0-5.5,3.9-8.1,8-9.6
		c8.6-3,16.5-7.1,23.8-12.4c0.9-0.7,2.2-1,3.4-1.2c0.9-0.2,1.9-0.2,2.3,0.9c0.4,1,0,2-0.8,2.4c-5.5,2.7-7.2,8-9,13.2
		c-1.5,4.1-5.2,6.3-8.4,8.9c-1.4,1.1-2.7,2.5-4,3.8c-2.2,2.3-2.2,4.1,1.4,4.6c1.2,0.2,2.6,0.1,2.7,1.8c0.2,1.8-0.9,3-2.5,3.5
		C151.1,98.2,148.5,98.5,145.9,99z"/>
	<path fill="#EBA961" d="M363.3,97.8c-4.1-0.2-5.8-3.2-7.2-6.3c-0.7-1.5-1.1-3.5-3.2-3.4c-2,0.2-2.4,2.1-2.5,3.8
		c-0.1,2.1-1.1,3.6-3.1,4c-2.3,0.4-4.2-0.9-5.6-2.6c-1.6-1.9,0.3-3.3,1.4-4.7c1.9-2.3,3.3-4.6,2.1-7.9c-0.8-2.2,0.5-4.6,1.6-6.5
		c1.4-2.7,3.6-1.5,5.4,0c4.8,4.1,9.1,8.6,15.2,10.8c0.7,0.3,1.4,0.7,2.1,0.9c4.7,1.6,5.4,4.4,2,7.9
		C369.2,96.3,366.3,97.3,363.3,97.8z"/>
	<path fill="#EBAB64" d="M208.5,271.1c-3.1,0.2-4.6-0.4-6.1-1.3c-4.4-2.5-8.8-3.1-13.2,0.5c-1,0.8-2.5,1.2-3.8,1.6
		c-1.4,0.4-2.9,0.2-3.4-1.5c-0.5-1.4-0.3-3,1.1-3.7c6.6-3.4,13.3-6.5,20.9-4c1.8,0.6,3.4,0.9,5.3,0.5c2.9-0.7,5.9-0.5,6.4,3.2
		c0.6,3.6-2.3,4.2-5,4.5C209.6,271,208.4,271.1,208.5,271.1z"/>
	<path fill="#EBAA63" d="M304.1,62.1c0.5,0.1,0.7,0,0.8,0.1c2,1.5,6,0.2,6.6,3c0.8,3.7-3.2,4.4-5.6,5.6c-2.7,1.4-5.5,2.2-7.5,4.8
		c-1.7,2.1-10.8-1.2-11.1-4c-0.3-2.8,2.3-3.6,4.2-4.1c3.9-1,7.7-1.6,10.4-5C302.3,62.1,303.5,62.2,304.1,62.1z"/>
	<path fill="#EBAD69" d="M83.8,128.5c-3.8-1.9-6.9,0.1-10.2,2c-1,0.6-2.3,1.4-3.2-0.1c-0.7-1.2,0-2.5,1.1-3.2
		c2.8-1.8,4.9-4.7,8.8-4.4c0.8,0.1,2-0.3,2.5-0.9c3.3-4.2,6.7,0.4,10.1-0.1c1.4-0.2,0.2,4.6-2.2,5.4C88.6,127.8,86.2,128,83.8,128.5
		z"/>
	<path fill="#EBAC67" d="M223.5,272.7c-2.7,0.2-4.3-0.5-4.9-2.3c-0.7-2,0.7-3.1,2.1-4.1c3-2,6.4-1.7,9.8-1.5
		c2.2,0.2,1.9,1.6,0.9,2.9C229.3,270.7,226.6,272.9,223.5,272.7z"/>
	<path fill="#EBB375" d="M110.1,105.2c-2-0.1-3.6-0.7-3.5-2.2c0.1-2.6,2.4-2.4,4.2-2.2c1.8,0.1,4.5,0.1,4.2,2.3
		C114.7,105.9,111.1,103.5,110.1,105.2z"/>
	<path fill="#EBB579" d="M94.4,113.7c-0.5,2.2-1.7,3.9-4.1,4.3c-1.2,0.2-1.5-0.8-1.4-1.8c0.2-2.2,1.5-3.6,3.5-4.2
		C93.6,111.5,94.2,112.5,94.4,113.7z"/>
	<path fill="#EBA960" d="M100.5,117.4c-0.6,1.9-2.2,2.8-3.9,3.2c-1.2,0.3-1.5-0.8-1.4-1.7c0.4-1.9,1.6-3.3,3.7-3.4
		C100,115.5,100.6,116.2,100.5,117.4z"/>
	<path fill="#831D1D" d="M148.4,122.5c0,1-0.4,1.8-1.4,2.2c-1,0.4-1.9,0.1-2.5-0.7c-2.3-3.1-5.4-4.7-9.2-5.2
		c-2.3-0.3-2.7-2.8-2.9-4.7c-0.2-1.9,1.4-2.7,2.6-1.8c3.8,2.8,8.6,4,11.9,7.6C147.6,120.5,148.4,121.3,148.4,122.5z"/>
</g>
</svg>
