<?xml version="1.0" standalone="no"?>
<!DOCTYPE svg PUBLIC "-//W3C//DTD SVG 1.1//EN" "http://www.w3.org/Graphics/SVG/1.1/DTD/svg11.dtd" >
<svg xmlns="http://www.w3.org/2000/svg" xmlns:xlink="http://www.w3.org/1999/xlink" version="1.1">
<metadata></metadata>
<defs>
<font id="holiday_travel_scriptregular" horiz-adv-x="1228" >
<font-face units-per-em="2048" ascent="1638" descent="-410" />
<missing-glyph horiz-adv-x="614" />
<glyph horiz-adv-x="0" />
<glyph horiz-adv-x="682" />
<glyph unicode=" "  horiz-adv-x="614" />
<glyph unicode="&#x09;" horiz-adv-x="614" />
<glyph unicode="&#xa0;" horiz-adv-x="614" />
<glyph unicode="!" horiz-adv-x="958" d="M197 -25q3 -27 22.5 -45t44.5 -16q28 3 45.5 22.5t16.5 45.5q-3 27 -22.5 44.5t-45.5 16.5q-26 -3 -44 -23t-17 -45zM227 188q-1 -20 12 -33.5t35 -13.5q5 0 9 2q15 3 25.5 15t10.5 30q-2 109 47.5 289t135.5 377q85 197 166 324t127 155q17 10 22 29.5t-6 36.5 q-9 15 -27.5 19t-35.5 -5q-70 -42 -159 -190.5t-171 -333.5q-93 -210 -143.5 -395.5t-47.5 -305.5z" />
<glyph unicode="&#x22;" horiz-adv-x="487" d="M102 1049q0 -11 7 -18t18 -7q9 0 16 7.5t7 17.5q0 54 67 163q56 95 100 134q9 6 10.5 16.5t-3.5 17.5q-18 18 -37 2q-47 -40 -113 -143q-72 -122 -72 -190zM199 1053q-2 -11 4 -19.5t16 -9.5h4q19 0 23 23q9 61 53 131q41 66 76 94q9 4 9.5 15t-5.5 18q-14 18 -35 4 q-45 -38 -91 -112t-54 -144z" />
<glyph unicode="#" horiz-adv-x="1552" d="M63 268q3 19 19.5 29.5t36.5 7.5q110 -22 196 -29q157 326 222 455q-187 24 -238 43q-18 6 -25.5 23.5t-1.5 36.5q6 17 23.5 24.5t36.5 1.5q43 -17 248 -43q83 171 129 258q9 17 26.5 22.5t34.5 -3.5t23 -28t-2 -36q-35 -64 -113 -223l188 -19q51 -5 191 -14 q262 487 293 539q10 17 29 21t34 -5q17 -10 21.5 -28t-4.5 -35q-34 -55 -271 -496q201 -6 252 6q19 6 36 -3t21 -28q5 -19 -3.5 -36t-26.5 -21q-50 -12 -162 -12q-52 0 -166 4l-82 -154q-80 -149 -121 -229q88 13 195 41q19 4 35 -5t22 -28q5 -19 -4.5 -35t-28.5 -20 q-102 -30 -272 -55q-186 -358 -195 -388q-10 -32 -43 -32q-10 0 -14 2q-19 6 -27.5 22t-3.5 35q12 39 172 348l-102 -6q-41 -2 -123 -2q-49 0 -147 4q-76 -159 -86 -188t-43 -29q-11 0 -17 2q-19 7 -26.5 25t0.5 35q15 42 73 163q-77 8 -174 29q-19 3 -29 18.5t-6 34.5z M414 268q108 -6 223 0q68 3 160 13q106 204 151 288l62 117q-134 9 -152 10q-49 4 -225 23z" />
<glyph unicode="$" horiz-adv-x="1052" d="M0 516q0 19 13.5 32t33.5 13q19 0 32 -13t13 -32q0 -160 166 -258q66 -34 98 -45q42 147 123 362q-132 80 -215 152q-133 124 -133 264q0 72 48 147t134 136q195 137 469 137q52 0 88 -8q133 221 269 350q13 12 32.5 11.5t32.5 -15.5q12 -13 11.5 -32t-15.5 -31 q-109 -103 -237 -312l26 -14q82 -51 119 -139q49 -116 4 -269q-44 -146 -170 -272q-14 -14 -33 -14t-32 14q-13 12 -13 31.5t13 31.5q108 108 147 238q36 117 -2 205q-23 58 -80 94l-27 14q-1 -1 -2 -3t-2 -3q-143 -250 -278 -573q-21 -49 -39 -99q151 -91 209 -143 q115 -100 115 -209q0 -96 -105 -147q-80 -41 -209 -41q-90 0 -186 22q-70 -249 -70 -379q0 -20 -13 -33.5t-32 -13.5q-20 0 -33.5 13.5t-13.5 33.5q0 148 74 406q-64 21 -119 55q-96 56 -150 135q-61 91 -61 201zM223 991q0 -49 22.5 -94.5t67.5 -87t89.5 -73.5t111.5 -72 q3 9 35 86q120 297 272 567q-12 2 -39 2q-243 0 -415 -121q-65 -45 -104.5 -102t-39.5 -105zM442 186q80 -18 162 -18q108 0 168 31q53 27 53 65q0 28 -15.5 57.5t-37.5 53t-60.5 53t-70.5 50t-82 50.5q-60 -158 -117 -342z" />
<glyph unicode="%" />
<glyph unicode="&#x26;" horiz-adv-x="1048" d="M41 872q0 -83 31 -162t88 -139q69 -72 170 -110q-111 -83 -111 -240q0 -113 80 -180q70 -61 170 -61q110 0 184 71q84 80 84 217q0 19 -13.5 32t-33.5 13q-19 0 -32 -13t-13 -32q0 -100 -55 -149q-47 -47 -121 -47q-63 0 -110.5 38.5t-47.5 110.5q0 125 92 178 q53 33 103 33h6q22 1 34.5 15t12.5 32q0 19 -12 32t-31 13q-2 2 -4 2q-4 0 -10 -2q-116 1 -202 53t-126.5 129t-40.5 166q0 138 88 226q105 102 283 102q146 0 237 -94q78 -84 78 -195q0 -80 -47 -137q-54 -57 -143 -57q-108 0 -125 63q-7 29 4 59t27 40q5 2 12 -5 q13 -14 32 -14t33 14q14 12 14 32t-14 32q-26 28 -59.5 33.5t-65.5 -13.5q-44 -26 -65 -84.5t-6 -115.5q5 -20 16 -39t33.5 -42t65 -37.5t98.5 -14.5q132 0 211 88q71 80 71 198q0 70 -27 137.5t-77 122t-129 88t-174 33.5q-219 0 -348 -129q-115 -118 -115 -291z M431.5 279.5q-4.5 -18.5 4.5 -33.5q12 -25 39 -25q14 0 23 6q54 31 93.5 32.5t72.5 -13.5q80 -23 120 -23q99 0 152 39q59 37 68 98q12 54 -17 107q-24 53 -76 72q-49 19 -92 -2q-45 -20 -82 -78q-9 -15 -4.5 -34.5t21.5 -29.5q15 -9 34 -4.5t29 21.5t27 32.5t35 8.5 q19 -7 28 -29.5t6 -44.5q-12 -64 -129 -64q-37 0 -92 19q-41 12 -64.5 16.5t-72.5 -4t-102 -39.5q-17 -9 -21.5 -27.5z" />
<glyph unicode="'" horiz-adv-x="382" d="M109 1063q-15 -19 2 -33q6 -6 14 -6q13 0 18 8q35 38 90 150q55 126 48 188q-1 10 -9.5 16.5t-17.5 4.5q-9 0 -14.5 -8t-3.5 -19q6 -50 -46 -164q-48 -104 -81 -137z" />
<glyph unicode="(" />
<glyph unicode=")" />
<glyph unicode="*" />
<glyph unicode="+" />
<glyph unicode="," horiz-adv-x="385" d="M-1 -88q-2 -12 5 -23q9 -12 25 -12q10 0 16 6q49 34 129 127q76 96 96 152q5 10 0.5 22t-16.5 15q-12 4 -23 -1t-16 -16q-15 -43 -88 -133q-76 -93 -117 -119q-9 -6 -11 -18z" />
<glyph unicode="-" />
<glyph unicode="." horiz-adv-x="219" d="M61 43q2 -20 17 -33t35 -12q21 1 34 16.5t11 36.5q0 20 -15.5 33.5t-36.5 11.5q-20 -1 -33.5 -17t-11.5 -36z" />
<glyph unicode="/" />
<glyph unicode="0" horiz-adv-x="1128" d="M20 494q0 -208 89 -342q102 -152 286 -152q145 0 278.5 91t239.5 261q91 147 144 326q51 175 51 334q0 192 -78 311q-90 137 -260 137q-168 0 -319 -94q-134 -87 -234 -238q-92 -137 -144.5 -305t-52.5 -329zM113 494q0 149 47.5 303t132.5 280q90 138 207 211 q127 80 270 80q118 0 184 -96q62 -97 62 -260q0 -148 -48.5 -312t-131.5 -299q-25 -40 -53 -77t-71.5 -81t-89 -76t-106 -53.5t-121.5 -21.5q-137 0 -211 111q-71 106 -71 291z" />
<glyph unicode="1" horiz-adv-x="387" d="M45 915.5q6 -17.5 21 -26.5q17 -8 35.5 -2.5t27.5 24.5q64 117 137 256q-24 -154 -86 -469q-26 -134 -58.5 -319.5t-52 -300t-20.5 -115.5q-2 -21 8 -36.5t31 -18.5q0 2 8 1l8 -1q14 2 24 12t13 25q0 3 20.5 123.5t54 309.5t60.5 331q18 92 46 241.5t40 206.5l21 152 q7 44 4.5 66t-16.5 36q-15 19 -39 12q-29 -5 -47 -41q-25 -38 -31 -51q-9 -16 -37.5 -67t-50.5 -88q-113 -216 -121 -224q-6 -19 0 -36.5z" />
<glyph unicode="2" horiz-adv-x="1105" d="M20 285q0 64 50 114q52 52 131 52q115 0 256 -127q123 94 248 270q116 163 187 333.5t71 286.5q0 68 -25 99q-24 30 -78 30q-61 0 -143 -58.5t-170 -164.5q-77 -90 -125.5 -175.5t-50.5 -113.5q-3 -20 -18 -31.5t-34 -8.5q-20 1 -31.5 15.5t-8.5 33.5q5 48 61 149 q64 106 135 191q82 100 180 174q114 82 205 82q98 0 150 -66q45 -57 45 -156q0 -135 -78 -323q-77 -180 -199 -352q-125 -177 -256 -281q37 -37 64 -68q51 -54 75.5 -79t72 -67.5t79.5 -62.5t74.5 -36.5t81.5 -16.5q88 0 114 35l7 3q7 3 14 5.5t16 4.5t17 0.5t14 -5.5 q12 -7 15.5 -20t1.5 -22l-3 -9q-2 -5 -7.5 -12t-21 -20.5t-36 -24.5t-55.5 -19t-76 -8q-115 0 -246 96q-61 46 -205 195q-3 3 -30 33t-42 45q-124 -80 -235 -80q-89 0 -139 47q-52 46 -52 113zM113 285q0 -28 18 -43q28 -25 80 -25q77 0 166 53q-102 88 -176 88 q-35 0 -61.5 -20t-26.5 -53zM1083 -37q0 2 2 2z" />
<glyph unicode="3" horiz-adv-x="1034" d="M20 289q0 -120 70 -199q77 -90 225 -90q111 0 217 53q102 54 177 137q78 86 121.5 190.5t43.5 203.5q0 128 -88 186q-4 4 -9 7t-11.5 6t-9.5 5q58 47 112 119q68 89 107 189.5t39 185.5q0 90 -47 143q-49 62 -148 62q-84 0 -178 -64q-85 -58 -158 -137 q-72 -78 -123.5 -156.5t-58.5 -123.5q-3 -19 7.5 -35t29.5 -19t34.5 7.5t18.5 29.5q5 28 50 96.5t110 137.5q74 82 144.5 127t123.5 45q55 0 78 -29q25 -32 25 -84q0 -68 -35 -155t-92 -164q-73 -100 -164 -148h-6q-43 0 -88 -10q-17 -3 -31 -10q-37 -16 -37 -50 q0 -7 2 -15.5t17 -21t40 -12.5q57 0 121 25q45 -4 80 -23q53 -35 53 -114q0 -82 -38 -170t-100.5 -159t-150 -117t-178.5 -46q-103 0 -157 60q-45 50 -45 137q0 102 55 182q54 78 119 78q38 0 61 -29q4 -6 7.5 -14t4.5 -12l2 -5l7.5 -10t19 -15t29.5 -5q16 4 25 15.5t9 21.5 l1 10q0 25 -29 67q-50 68 -137 68q-115 0 -195 -119q-72 -106 -72 -233z" />
<glyph unicode="4" horiz-adv-x="837" d="M20 637q0 56 111 311q66 150 174 377q14 33 37 80q7 19 24.5 26t36.5 -1q17 -7 24 -26t-1 -36q-11 -26 -37 -82q-91 -191 -172 -373q-104 -239 -104 -276q0 -65 55 -76q76 -18 223 35q59 185 187 516q68 186 73 203q29 84 29 98q0 19 13 32t32 13q20 0 33.5 -13t13.5 -32 q0 -33 -23.5 -104.5t-84.5 -229.5q-94 -240 -160 -434q83 41 153 88q61 43 72 66q7 17 25 23.5t37 -1.5q17 -9 23.5 -26.5t-1.5 -34.5q-22 -47 -102 -103q-68 -46 -174 -98q-39 -20 -70 -31q-96 -318 -96 -501q0 -20 -13 -33.5t-32 -13.5q-20 0 -33.5 13.5t-13.5 33.5 q0 184 81 462q-87 -24 -153 -24q-33 0 -60 6q-57 12 -92 53q-35 44 -35 113z" />
<glyph unicode="5" d="M0 238q0 122 96 233q101 113 238 113q70 0 106 -45q6 -8 11 -17t6.5 -15t3.5 -12.5t2 -7.5q2 -20 -10.5 -35t-32.5 -16q-19 -2 -33.5 10t-15.5 31q-3 15 -37 15q-94 0 -170 -82q-72 -82 -72 -172q0 -64 43 -101q51 -45 158 -45q88 0 168 51q79 50 143 129q62 78 98.5 167 t36.5 161q0 59 -24 86q-25 31 -76 31q-17 0 -33 -1t-30.5 -4t-24.5 -5t-24 -7.5t-19.5 -7.5t-20.5 -8.5t-18 -7.5q-64 -31 -111 -33q-33 0 -51 27q-12 18 -13.5 45t12 85t46.5 150q48 133 133 332l4 10h-4q-95 6 -159 70q-14 14 -14 33t14 32t33 13t32 -13q40 -40 101 -44 t167 14q182 26 318 26q83 0 133 -47q41 -43 41 -108q-1 -3 -4 -8.5t-15 -13.5t-28 -7q-11 0 -22.5 8.5t-17.5 16.5l-5 8q-1 23 -17 41q-21 18 -65 18q-111 0 -303 -24q-75 -10 -84 -11q-1 -5 -21 -49q-88 -214 -123 -311q-51 -139 -59 -195q8 2 23 8.5t20 8.5 q32 16 53.5 24.5t64.5 17.5t91 9q92 0 147 -64q45 -51 45 -145q0 -88 -41.5 -191t-113.5 -194q-71 -91 -168 -152q-103 -63 -215 -63q-143 0 -219 70q-74 65 -74 168z" />
<glyph unicode="6" horiz-adv-x="950" d="M35 201q23 -92 90 -146q67 -55 176 -55q91 0 189 57.5t186 161.5q78 94 125 193q49 107 49 186q0 71 -41 115q-41 47 -125 47q-96 0 -190 -70q-74 -58 -140 -145q-12 -16 -24 -33.5t-22 -33.5t-19 -31t-16 -29t-13.5 -25.5t-11 -21.5t-8 -17t-5.5 -12l-2 -4 q-8 -17 -1 -36t24 -26q18 -7 35.5 0t25.5 25q41 94 111 188q53 74 120 126.5t136 52.5q40 0 57 -17q17 -20 17 -53q0 -62 -42 -149t-110 -170q-73 -88 -154.5 -137.5t-150.5 -49.5q-75 0 -119 35q-41 35 -59 96q-24 101 6 250q27 143 104 307q66 145 173 285 q104 132 200 186q142 85 246 -16q12 -13 31.5 -13t31.5 13q13 12 13 31.5t-13 31.5q-78 78 -174 84q-90 3 -182 -51q-109 -63 -217.5 -198.5t-191.5 -313.5q-76 -159 -113 -327q-34 -168 -2 -291z" />
<glyph unicode="7" horiz-adv-x="937" d="M20 47q0 86 31.5 182t90.5 196.5t122.5 188.5t147.5 191h-144q-19 0 -32 13.5t-13 33.5q0 19 13 32t32 13h221q23 29 76 90q10 12 50.5 60t56 67t40.5 51t42 56q71 95 71 131q-8 16 -51 16q-36 0 -263 7.5t-269 8.5q-6 -26 -8 -72t2 -81q3 -19 -8.5 -33.5t-30.5 -17.5 t-35 8.5t-17 30.5q-9 48 -2 124q6 88 33 115q18 21 43 21h2q1 0 51.5 -2t124.5 -4.5t151.5 -5.5t141.5 -5t84 -2q63 0 105 -33q39 -31 39 -75q0 -59 -63 -148.5t-220 -275.5q-16 -20 -27 -31h131q19 0 32 -13t13 -32q0 -20 -13 -33.5t-32 -13.5h-209q-143 -173 -245 -326 q-172 -263 -172 -432q0 -20 -13 -33.5t-32 -13.5q-20 0 -34 13.5t-14 33.5z" />
<glyph unicode="8" horiz-adv-x="929" d="M20 272q0 201 136 324q62 55 127 80q-41 18 -74 47q-88 79 -88 231q0 186 108 324q91 118 228 172q80 34 147.5 32.5t104.5 -36.5q13 -14 13 -33t-13 -33t-33 -14t-33 14q-8 8 -27 10.5t-53 -3.5t-71 -21q-113 -47 -189 -145q-90 -112 -90 -267q0 -112 57 -163 q53 -48 144 -48q68 0 140 25.5t132 71.5q63 46 97 101.5t34 111.5q0 103 -53 147q-42 33 -113 35q-12 1 -22 0.5t-18.5 -1t-14.5 -1.5t-10 -1l-4 -1q-19 -5 -35 5.5t-19 29.5q-4 19 6 34.5t29 20.5q12 4 47 7.5t100.5 -8t110.5 -48.5q88 -70 88 -219q0 -123 -99.5 -226.5 t-240.5 -148.5q44 -23 84 -66q78 -90 78 -227q0 -66 -28.5 -134.5t-79.5 -125.5q-119 -125 -277 -125q-118 0 -201 47q-125 72 -125 225zM113 272q0 -100 77 -145q60 -35 156 -35q119 0 209 96q40 43 62 95t22 102q0 105 -55 166q-57 63 -142 63q-129 0 -225 -86 q-104 -91 -104 -256z" />
<glyph unicode="9" horiz-adv-x="1142" d="M20 373q0 -7 3.5 -29t18.5 -68.5t38 -87.5q107 -188 326 -188q270 0 505 518q88 191 170 469q28 76 41 141q4 23 -8 37.5t-27 18.5q-16 5 -32.5 -3.5t-22.5 -27.5q0 -4 -2 -4q0 -6 -2 -12q-22 -78 -35 -121q-19 -52 -41 -92q-52 -93 -121 -156q-61 -58 -130.5 -87.5 t-129.5 -23.5q-68 6 -106 56q-45 54 -45 159q0 156 90 287q87 122 215 180q89 36 170 27q84 -12 149 -74q13 -12 33 -11.5t33 13.5q13 14 12.5 33t-14.5 33q-87 84 -203 96q-103 15 -217 -33q-150 -63 -254 -211q-106 -154 -106 -340q0 -140 65 -217q65 -81 168 -90h29 q153 0 293 125q-23 -60 -56 -133q-102 -228 -210 -346.5t-211 -118.5q-164 0 -244 139q-18 33 -30.5 70.5t-15.5 58.5l-3 21q-1 20 -16.5 32.5t-35.5 10.5q-19 -2 -30.5 -16.5t-10.5 -34.5z" />
<glyph unicode=":" />
<glyph unicode=";" />
<glyph unicode="&#x3c;" />
<glyph unicode="=" />
<glyph unicode="&#x3e;" />
<glyph unicode="?" d="M121 2q3 -28 24.5 -47t49.5 -18q28 3 47 24.5t18 48.5q-3 28 -24 47.5t-50 18.5q-28 -3 -47 -24.5t-18 -49.5zM160 307q0 -19 13 -32t32 -13q20 0 33.5 13t13.5 32q0 26 13 55.5t43 63.5t56.5 61.5t78 69t81.5 64.5l90 69q242 183 340 285q170 179 170 342q0 88 -47 149 q-72 103 -250 103q-125 0 -247 -51.5t-224 -147.5q-83 -78 -137 -170.5t-59 -163.5q-2 -19 10.5 -33.5t32.5 -15.5q19 -1 33 11.5t16 31.5q2 40 30.5 96t81.5 117t120.5 113.5t158 86.5t184.5 34q128 0 177 -64q28 -39 28 -96q0 -41 -16 -84.5t-37.5 -80t-64.5 -83 t-74.5 -77.5t-91.5 -80t-91.5 -73.5t-97.5 -74.5q-60 -45 -91 -68.5t-81 -64.5t-76.5 -66.5t-60 -62.5t-50 -65.5t-28.5 -62.5t-12 -67z" />
<glyph unicode="@" horiz-adv-x="1857" d="M102 264q0 -234 140 -377q150 -153 438 -153q111 0 246 22q147 25 178 56q14 14 14 33t-14 32q-12 13 -30.5 13.5t-31.5 -11.5q-28 -14 -146 -33.5t-216 -19.5q-249 0 -373 127q-58 58 -84 135q-28 82 -28 176q0 175 86 376.5t233 371.5q158 181 342 280q202 111 412 111 q206 0 305 -123q90 -110 90 -301q0 -125 -38 -261.5t-107 -252.5q-66 -114 -142 -178t-145 -64q-36 0 -53 17q-17 19 -19 63t2 66q0 5 1 12t1 10q0 40 -33 53q-36 9 -59 -22v-2q-74 -103 -145 -170q-134 -125 -258 -125q-71 0 -99 35q-28 30 -28 100q0 90 49 205.5 t131 220.5q91 116 192.5 179t196.5 63q61 0 96 -41q25 -31 34 -87.5t6.5 -99.5t-9.5 -75q-4 -20 6 -35.5t29 -20.5q20 -4 36 6t19 29q0 1 1 8t3 18.5t4 25.5t3 33.5t1 37.5q0 143 -61 219q-65 74 -168 74q-122 0 -252 -82q-111 -70 -209 -195q-88 -113 -145 -243 q-55 -128 -55 -240q0 -102 51 -162q59 -65 168 -65q159 0 321 149q33 31 80 86q9 -53 41 -90q41 -47 121 -47q102 0 203 84q90 75 163 205q74 126 116 275t42 284q0 226 -110 360q-62 74 -154 115q-96 41 -223 41q-233 0 -455 -121q-203 -110 -369 -303q-155 -181 -249 -395 q-93 -225 -93 -412z" />
<glyph unicode="A" horiz-adv-x="2013" d="M0 -12q0 177 104 309q119 147 291 147q166 0 258 -98q63 -72 78 -182q5 -37 5 -70q0 -26 -3 -51q-1 -20 -15.5 -32.5t-33.5 -10.5q-20 2 -32 16.5t-9 34.5q2 24 2 46q0 122 -61 186q-63 69 -189 69q-128 0 -217 -112q-86 -109 -86 -252q0 -130 78 -211q91 -94 266 -94 q107 0 213 65q99 64 195 184q120 150 305 498q28 51 45 86q4 7 42 77t46 84t41.5 74.5t46.5 82.5t42.5 71t49 76.5t45 64t49.5 66.5q112 140 216 203q125 82 262 82q104 0 194 -33q4 0 6 -2q42 -16 76.5 -37t48 -34.5t13.5 -16.5q2 -18 -0.5 -31t-8.5 -19t-14 -9.5t-16.5 -3 t-16 1.5t-12.5 3l-4 1q-19 23 -62 43l-4 4q-191 -292 -336 -605q-64 -141 -108 -264q0 -1 -1 -3t-1 -3q-86 -239 -86 -399q0 -105 37 -176q70 -131 286 -131q56 0 126.5 27t113.5 54l43 27q15 11 35.5 8t30.5 -18q10 -17 6 -36t-19 -30q-14 -10 -23 -15.5t-51.5 -29 t-78.5 -38.5t-87.5 -28.5t-95.5 -13.5q-272 0 -368 181q-47 88 -47 216q0 157 71 375h-462q-182 -334 -304 -487q-111 -138 -217 -203q-122 -82 -262 -82q-215 0 -332 123q-104 107 -104 275zM1268 455h444q44 114 105 243q133 288 327 596q-57 11 -110 11q-106 0 -213 -66 q-100 -68 -193 -184q-59 -73 -127.5 -184t-107.5 -182t-117 -218q-1 -1 -2.5 -4l-3 -6t-2.5 -6z" />
<glyph unicode="B" horiz-adv-x="1759" d="M-225 -27q0 -78 67 -129q67 -49 183 -49q196 0 368 166q108 -51 199 -78q168 -51 387 -51q145 0 277 51t235 146q94 85 147.5 192t53.5 211q0 79 -31 146q-30 67 -90 118q2 3 16 17q84 90 137 205q56 118 56 227q0 186 -152 295q-162 116 -483 116q-230 0 -416 -63 q-179 -60 -321 -174q-133 -109 -207 -248q-74 -142 -74 -291q0 -263 319 -432q68 -33 89 -41q-80 -138 -162 -233q-67 33 -107 50t-106.5 32.5t-134.5 15.5q-110 0 -181 -59q-69 -57 -69 -140zM-133 -27q0 41 37 68q45 39 121 39q77 0 139.5 -19t138.5 -57 q-130 -117 -278 -117q-87 0 -127 31q-31 25 -31 55zM219 780q0 127 64.5 249.5t181.5 217.5q127 103 293 158q174 59 375 59q-46 -43 -90.5 -106.5t-92.5 -158.5t-81.5 -168t-88.5 -202q-133 -311 -202 -440q-29 12 -89 41q-121 63 -190 145q-80 95 -80 205zM459 33 q26 30 73 96q47 72 89 145q149 -47 227 -47q20 0 33.5 13.5t13.5 33.5q0 19 -13.5 32t-33.5 13q-64 0 -182 39q69 131 200 437q147 338 215 452q111 187 207 199q16 6 21 10q171 -21 266 -92q113 -79 113 -219q0 -87 -45 -185.5t-123 -183.5q-24 -24 -29 -28 q-122 61 -307 61q-104 0 -166 -49.5t-62 -112.5q0 -67 64 -106q53 -39 154 -39q108 0 221 61q41 20 106 70l6 -4q92 -76 92 -197q0 -85 -45 -174.5t-124 -161.5q-91 -83 -207 -127.5t-244 -44.5q-169 0 -288.5 29t-231.5 80zM1049 647q0 25 37 47.5t98 22.5q134 0 227 -37 q-125 -86 -237 -86q-69 0 -105 22q-20 15 -20 31z" />
<glyph unicode="C" horiz-adv-x="1130" d="M0 494q0 -276 131 -445q69 -90 178 -141q108 -51 254 -51q195 0 367 102q81 48 137 104q12 13 11.5 33.5t-13.5 32.5q-14 13 -33 12.5t-33 -14.5q-42 -45 -118 -90q-154 -88 -318 -88q-236 0 -358 155q-113 144 -113 390q0 183 62 372q67 203 174 351 q120 173 271.5 265.5t315.5 92.5q146 0 222 -76q65 -65 65 -172q0 -70 -29.5 -141t-82.5 -127q-52 -58 -129 -94q-78 -37 -173 -37q-130 0 -165 63q-13 23 -12 54q1 10 1 20q6 43 33 86q37 61 103 103q60 39 133 38h14q20 -1 33.5 11.5t15.5 31.5q0 20 -12.5 34t-32.5 15 q-10 1 -20 0q-92 0 -177 -51q-86 -52 -135 -133q-41 -66 -48 -132q-1 -13 -1 -26q0 -51 23 -94q64 -112 247 -112q106 0 201.5 41t167.5 118q65 71 103 158q34 84 34 174q0 147 -94 238q-102 102 -285 102q-187 0 -358 -102.5t-305 -294.5q-119 -169 -185.5 -374.5 t-66.5 -401.5z" />
<glyph unicode="D" horiz-adv-x="1894" d="M0 14q0 -71 78 -116q71 -41 198 -41q157 0 304 135q99 -40 150 -58.5t137.5 -38.5t160.5 -20q215 0 402 96q164 83 296 246q118 145 187 336q63 186 63 369q0 150 -43 278q-42 134 -131 240q-90 106 -225 166q-140 61 -320 61q-207 0 -389 -72q-163 -63 -288 -182 q-115 -110 -177.5 -250.5t-62.5 -288.5q0 -124 45 -232t131 -187q83 -77 207 -125l-41 -66q-61 -94 -125 -164q-202 82 -317 82q-98 0 -168 -45q-72 -53 -72 -123zM92 14q0 25 33 45q45 31 115 31q86 0 243 -59q-104 -82 -207 -82q-99 0 -153 28q-31 19 -31 37zM432 874 q0 128 55 252t156 222q110 104 258 163q170 64 356 64q62 0 109 -8q-71 -53 -149 -197q-63 -114 -199 -426q-167 -382 -250 -532q-108 37 -188 110q-70 64 -113 162q-35 87 -35 190zM647 63q46 54 111 150l55 88q121 -27 238 -27q20 0 33.5 14t13.5 34q0 19 -13.5 32 t-33.5 13q-105 0 -191 18q83 156 242 522q11 25 40 90.5t42.5 96t35.5 79t40 84.5t36 68q94 167 156 184q28 6 35 31q12 -3 53 -18q112 -49 193 -142q75 -90 112 -206q39 -122 39 -252q0 -170 -59 -338q-60 -176 -170 -310q-117 -145 -269 -221q-164 -86 -358 -86 q-87 0 -174.5 24.5t-206.5 71.5z" />
<glyph unicode="E" horiz-adv-x="1327" d="M0 274q0 -184 143 -297q156 -120 447 -120q150 0 280 53q118 51 203 139q77 78 120.5 176.5t43.5 194.5q0 107 -57 176q-63 78 -174 78q-176 0 -279 -103q-87 -87 -96 -215q-2 -17 -2 -34q0 -62 26 -117q37 -79 107 -88q19 -3 34.5 8t18.5 31q3 19 -8.5 33.5t-30.5 17.5 q-22 5 -39 39q-16 37 -16 88v16q10 94 72 156q73 76 213 76q68 0 102 -43q37 -43 37 -119t-35 -154q-40 -88 -102 -153q-164 -164 -418 -164q-130 0 -236 28q-88 23 -153 72q-109 83 -109 225q0 94 48 191.5t134 179.5q86 80 197 131q100 -100 258 -100q113 0 178 24 q80 31 80 93q0 61 -82 100q-77 31 -170 31q-118 0 -233 -39q-43 70 -43 166q0 98 43 188q42 100 129 180q196 187 540 187q145 0 215 -64q62 -54 62 -139q0 -54 -23 -109t-63 -98q-93 -101 -227 -104q-128 0 -158 65q-9 19 -9 42q0 15 4 32q10 43 38 80q22 27 60 47 q24 13 51 13q18 0 38 -5q19 -5 36.5 5.5t21.5 29.5t-6 34.5t-29 20.5q-28 7 -57 7q-38 0 -75 -13q-65 -23 -112 -82q-45 -58 -57 -121q-5 -24 -5 -46q0 -44 19 -85q28 -59 88 -86q64 -31 154 -31q171 3 293 134q110 123 110 270q-3 132 -92 209q-100 86 -277 86 q-378 0 -604 -213q-90 -80 -151 -209q-49 -117 -49 -225q0 -114 49 -199q-114 -54 -205 -139q-99 -93 -155 -209.5t-56 -229.5zM573 811q88 20 162 20q108 0 156 -36q-43 -27 -162 -27q-92 0 -156 43z" />
<glyph unicode="F" horiz-adv-x="1169" d="M2 184q-4 20 6.5 35.5t30.5 20.5q19 3 34.5 -7.5t18.5 -29.5q25 -127 92 -191q63 -63 160 -63q201 0 424 323q92 131 233 400h-202q-19 0 -32 13.5t-13 33.5q0 19 13 32t32 13h250q18 36 49.5 102t44.5 92q58 120 86 176.5t70.5 137t76.5 133.5q-292 51 -577 51 q-114 0 -221 -43q-98 -37 -181 -108q-77 -68 -129 -156.5t-69 -181.5q-8 -45 -7 -88q0 -108 48 -201q82 -145 268 -215q19 -7 27 -25t0 -35q-4 -13 -16.5 -21.5t-26.5 -8.5q-5 0 -17 4q-114 45 -192 108q-73 62 -123 150q-62 111 -62 238q0 54 11 110q17 103 79 211 q57 100 150 180q94 82 207 125q122 49 254 49q313 0 635 -59q55 65 96 86q17 9 35.5 3.5t27.5 -22.5q8 -17 2.5 -35.5t-22.5 -27.5q-6 -2 -33 -25q19 -4 64.5 -13t70.5 -15q129 -27 188.5 -38.5t157.5 -23.5t179 -12q77 0 137.5 18.5t91.5 42.5t51 52t25.5 43.5t5.5 19.5 q5 19 20 29.5t35 7.5q19 -3 29.5 -18.5t7.5 -34.5l-1 -4q-2 -5 -3 -10t-4.5 -13.5t-7 -16.5t-9 -19t-12.5 -21t-16 -22t-19 -23q-50 -56 -123 -86q-87 -37 -208 -37q-86 0 -187.5 12.5t-168 25t-187.5 38.5l-182 36q-48 -75 -54 -86q-60 -103 -194 -380q-6 -12 -33 -68.5 t-43 -87.5h137q19 0 33 -13t14 -32q0 -20 -14 -33.5t-33 -13.5h-182q-153 -299 -262 -453q-249 -362 -500 -362q-133 0 -223 90q-92 89 -119 237z" />
<glyph unicode="G" horiz-adv-x="1251" d="M4 -158q14 -97 66 -164q76 -108 227 -108q127 0 233 59q94 54 164 148q65 88 113 200q49 11 108 41q89 49 156 127q60 70 95.5 154.5t35.5 153.5q0 52 -22 88q-27 43 -86 43q-109 0 -185 -125q-41 -65 -110 -254q-24 -63 -58 -146q-12 -2 -39 -2q-270 0 -405 103 q-160 120 -160 405q0 128 66 275q67 148 190 284q138 148 311 228t357 80q139 0 207 -62q55 -49 55 -139q0 -71 -33.5 -151.5t-91.5 -145.5q-63 -72 -137 -112t-146 -40q-155 0 -198 74q-12 25 -12 53q0 47 36 103q44 65 119 108q71 36 146 36q11 0 22 -1q19 -2 33.5 10.5 t15.5 32.5q2 19 -10 33.5t-31 15.5q-16 1 -31 1q-97 0 -188 -48q-93 -50 -151 -137q-43 -65 -50 -131q-2 -14 -2 -27q0 -50 23 -92q31 -60 102 -90q67 -33 176 -33q92 0 184 48t167 134q70 82 109.5 176.5t39.5 182.5q0 133 -86 207q-92 86 -268 86q-203 0 -392.5 -87.5 t-342.5 -250.5q-130 -139 -205.5 -306t-75.5 -315q0 -174 51 -291q49 -112 146 -188q165 -121 458 -121q-46 -86 -79 -133q-57 -76 -136 -123q-78 -47 -188 -47q-100 0 -154 72q-26 34 -39 82q-13 43 -13 76q0 4 1 8q1 35 6 61q6 19 -2.5 35t-27.5 22q-19 5 -35.5 -4 t-22.5 -28q-10 -36 -10 -82q0 -29 4 -62zM854 90q5 14 15.5 42t15.5 42q20 54 31.5 83.5t30 73t33 67t33.5 48.5t39 35.5t42 10.5q7 0 10 -3q6 -6 6 -36q0 -58 -32.5 -127t-76.5 -119q-62 -71 -129 -107z" />
<glyph unicode="H" horiz-adv-x="2039" d="M23 29q-6 18 2 35t26 24q18 6 35 -2.5t23 -26.5l7 -15q8 -15 26 -43t40 -52q99 -105 248 -105q116 0 223 82q100 84 187 230q87 147 170 356q0 2 2 4q12 31 123 330q105 302 180 461q-189 18 -334 18q-52 0 -98 -2q-347 -18 -512 -166q-72 -60 -111 -153 q-41 -100 -41 -230q0 -201 148 -346q34 -33 71 -59.5t58 -36.5l20 -10q17 -8 24.5 -25.5t0.5 -34.5q-7 -18 -26 -25t-36 1q-104 52 -176 124q-176 173 -176 412q0 289 182 453q103 93 262 139q130 40 306 49q55 3 114 3q167 0 371 -25q115 196 252 196q68 0 110 -39 q41 -35 41 -94q0 -70 -57 -121q-61 -53 -154 -53q-15 0 -141 12q-16 -31 -33.5 -70.5t-29.5 -67t-34 -85.5t-29 -77t-34.5 -93t-31.5 -86q-79 -215 -101 -272h496q76 272 221 526q131 228 279 367q170 153 323 153q82 0 137 -37q53 -40 70 -102q9 -33 9 -70q0 -80 -44 -174 q-59 -131 -149 -186q-17 -9 -35 -4t-29 20q-9 17 -4.5 36t21.5 28q66 40 112 145q35 76 35 135q0 24 -6 45q-16 72 -117 72q-119 0 -260 -129q-135 -126 -262 -344q-124 -219 -195 -451q-16 -45 -24 -86q0 -1 -1 -3t-1 -3q-49 -186 -49 -348q0 -196 75 -299q41 -53 97 -80 q65 -30 151 -30q154 0 283 102q30 24 55.5 50.5t35.5 41.5l11 14q10 17 29.5 21.5t34.5 -6.5q15 -10 19 -29.5t-5 -34.5l-3 -5q-3 -4 -8 -10.5t-12.5 -16t-17.5 -21t-21.5 -23t-26 -25.5t-30.5 -26q-155 -125 -344 -125q-111 0 -190 39q-80 39 -131 111q-95 127 -95 352 q0 142 39 318h-510q-83 -208 -163 -342q-213 -357 -490 -357q-191 0 -319 137q-12 14 -23.5 29t-20 28t-16 25t-12.5 22.5t-8.5 17.5t-5.5 13zM1464 1382q78 -8 90 -8q62 0 93 31q26 23 26 51q0 17 -12 27q-14 14 -47 14q-75 0 -150 -115z" />
<glyph unicode="I" horiz-adv-x="1017" d="M20 96q0 -4 6.5 -23t27.5 -57t50 -71q131 -150 367 -150q112 0 215 86q86 77 160 213q44 78 92 193.5t76 194t80 229.5q59 171 94 266.5t92 223.5t111 210l57 -6q144 -16 192 -16q105 0 171.5 56t66.5 126q0 64 -53 102q-52 37 -137 37q-126 0 -238 -92 q-52 -44 -102 -111q-190 19 -408 19q-184 0 -336 -152q-139 -139 -176 -336q-8 -46 -8 -90q0 -117 55 -217q83 -154 285 -225q18 -6 34.5 2.5t22.5 26.5t-2.5 34.5t-26.5 22.5q-165 58 -233 182q-44 77 -45 171q0 38 8 79q29 166 150 287q128 125 272 125q181 0 350 -15 q-2 -4 -16 -28q-47 -84 -99.5 -208.5t-80 -201.5t-84.5 -242q-53 -151 -80 -226t-74.5 -189t-89.5 -189q-65 -122 -139 -186q-78 -66 -156 -66q-189 0 -295 115q-24 25 -40.5 55t-21.5 45.5t-5 18.5v-2zM1454 1495q109 125 234 125q52 0 84 -21q16 -13 16 -28 q0 -31 -41.5 -60.5t-106.5 -29.5q-60 0 -182 14h-4z" />
<glyph unicode="J" horiz-adv-x="1089" d="M20 246q0 -183 107 -309q123 -142 340 -142q194 0 342 139q121 118 213 330q50 117 93 274t63 258.5t47 254.5q11 68 35 184q49 215 143 367l6 10q9 15 9 28q0 18 -17 33q-3 3 -9.5 7t-22 4t-30.5 -11q-6 -6 -12 -10q-2 -1 -9 -7t-13 -9q-38 -30 -75.5 -51.5t-64 -32 t-60.5 -16.5t-49.5 -7t-47.5 -2q-23 0 -33 -2q-159 -9 -289 -72q-211 -108 -211 -317q0 -174 100 -252q49 -39 119 -52q53 -10 86 -10q11 0 19 1q36 4 49 8q19 3 29 18.5t6 34.5q-3 20 -19.5 30t-36.5 7q0 -3 -31 -6q-8 -1 -17 -1q-27 0 -63 7q-49 9 -83 35q-66 54 -66 180 q0 85 45 145q40 52 115 90q126 58 252 62q10 2 31 2q131 0 235 53q-47 -119 -76 -244q-18 -91 -34 -188q-26 -146 -46.5 -248.5t-62.5 -253.5t-90 -264q-85 -199 -191 -299q-121 -115 -278 -115q-175 0 -270 111q-84 97 -84 248q0 152 82 268q86 117 206 117q20 0 34 13.5 t14 33.5q0 19 -14 32t-34 13q-83 0 -155 -40t-125 -114q-101 -141 -101 -323z" />
<glyph unicode="K" horiz-adv-x="1935" d="M20 387q0 195 111 328q125 153 342 153q19 0 33 -13.5t14 -33.5q0 -19 -14 -32t-33 -13q-175 0 -270 -121q-90 -111 -90 -268q0 -151 82 -264q91 -113 231 -113q70 0 136.5 28.5t119 68t110 117t96 138t92 170t83 175t82.5 188.5q60 139 92 209t83.5 171.5t98.5 172.5 q-92 14 -170 19q-41 3 -85 3q-38 0 -80 -2q-88 -4 -165 -31t-135 -75q-75 -63 -116 -170q-47 -118 -47 -291q0 -87 22 -159t51 -111.5t63.5 -68.5t52.5 -37.5t26 -10.5q19 -6 27.5 -23t2.5 -36q-6 -18 -23.5 -26.5t-35.5 -2.5q-12 4 -32 13t-58 37t-70 65q-54 63 -84 143 q-35 100 -35 217q0 187 54 326q50 128 145 205q58 49 133 79q76 29 148 41q66 11 147 12q7 0 14 -1q89 -1 158 -9t154 -22q53 70 116 117q106 77 224 77q79 0 129 -47q49 -46 49 -112q0 -72 -62 -121q-60 -51 -165 -51q-41 0 -197 26q-44 10 -55 11l-19 -25 q-46 -69 -97.5 -170t-82 -169t-92.5 -210q-64 -149 -101.5 -231.5t-99.5 -200.5t-119 -199q-214 -309 -483 -309q-96 0 -176 41q-78 43 -127 109q-103 134 -103 319zM1221 700q-2 8 -2 14q0 32 36 46q24 8 54 8q39 0 88 -14q230 27 428 192q65 55 132.5 129.5t110 130 t103.5 140.5q53 75 83 115.5t73 87.5t81 73q45 32 90.5 48t77.5 15t58 -6.5t39 -12.5t14 -9q16 -38 5.5 -55.5t-32.5 -19.5l-22 -3l-2 2q-3 2 -8 4t-22.5 4.5t-36.5 1t-48 -12.5t-59 -32q-32 -22 -71.5 -66t-66 -79.5t-79.5 -108.5q-65 -90 -106.5 -145.5t-113 -135 t-141.5 -137.5q-173 -141 -360 -190q63 -53 116 -135q47 -77 117 -291q31 -97 54 -160t63.5 -148.5t85.5 -146.5q75 -103 176 -155q115 -62 264 -62q87 0 168 20.5t130.5 45t95 59t58.5 48.5t24 27l1 1q11 15 30 17.5t34 -9.5q15 -10 18 -29t-8 -34l-2 -2q-2 -3 -5.5 -7 t-9 -10t-12.5 -13l-15 -15t-18.5 -17t-22 -18t-25.5 -19.5t-29 -19.5q-181 -117 -412 -117q-172 0 -307 72q-121 65 -207 182q-49 67 -93 158t-67.5 155.5t-56.5 167.5q-2 7 -10 31.5t-10.5 32t-10 29.5t-11 30.5t-10 27.5t-10.5 28.5t-10.5 24.5t-11 25t-10.5 21.5 t-12 20.5q-78 118 -174 159h-3q-58 -4 -86 -4q-16 0 -36 4q-23 5 -33 17.5t-10 23.5zM1585 1513h6q141 -26 181 -26q69 0 108 29q27 24 27 51t-22.5 47t-63.5 20q-88 0 -168 -59q-30 -21 -68 -62z" />
<glyph unicode="L" horiz-adv-x="1550" d="M0 885q0 -92 42.5 -181.5t117.5 -158.5q178 -160 452 -160q81 0 189 23l-25 -35q-57 -80 -102 -133q-157 65 -318 65q-141 0 -235 -63q-44 -31 -69 -72t-25 -84q0 -82 75 -129q71 -47 193 -47q144 0 297 119q56 46 104 100q108 -54 232 -154q80 -66 169.5 -160 t141.5 -156.5t143 -174.5q70 -86 108.5 -131.5t94.5 -106.5t102 -98t89 -59q60 -31 114 -31q33 0 68 12q86 33 143 146l-43 16l-43 18q0 -3 -9.5 -20t-32 -40.5t-48.5 -33.5q-14 -5 -31 -5q-33 0 -75 20q-37 19 -78.5 53.5t-93 90.5t-90 101t-103.5 125 q-88 109 -145.5 177.5t-148 163.5t-173.5 163q-119 98 -227 154q25 30 90 120q37 51 88 134q104 40 211 104q243 144 475 401q208 231 344 478q135 255 135 417q0 101 -49 156q-56 62 -160 62q-84 0 -174 -84q-70 -62 -159 -199q-49 -76 -112 -188.5t-100.5 -185 t-119.5 -232.5q-226 -451 -352 -656q-137 -49 -265 -49q-236 0 -391 135q-62 57 -95.5 128.5t-33.5 144.5q0 258 150 465q132 176 356 297q181 100 382 153.5t329 57.5q19 0 32 13.5t13 33.5q-2 19 -15.5 32t-33.5 13q-140 -7 -322 -54q-246 -65 -430 -167 q-246 -135 -385 -324q-168 -230 -168 -520zM119 86q0 41 53 78q71 49 184 49q123 0 250 -45q-163 -166 -311 -166q-89 0 -143 33q-33 23 -33 51zM1022 592q104 178 291 549q12 23 55 108t58.5 115t51 98t56.5 104.5t49 84.5t53 86q157 241 258 241q64 0 91 -30 q26 -29 26 -95q0 -148 -125 -372q-128 -241 -330 -461q-225 -245 -454 -385q-8 -4 -36 -20t-44 -23z" />
<glyph unicode="M" horiz-adv-x="1726" d="M-307 1034q0 -103 57 -166q64 -69 182 -69q105 0 203 88q101 88 144 231q5 19 -4.5 35.5t-28.5 22.5q-19 5 -35.5 -4.5t-22.5 -28.5q-31 -113 -114 -187q-71 -65 -142 -65q-76 0 -114 41q-33 35 -33 102q0 62 29 132t80 130q44 52 110 94t150 42q161 0 215 -91 q32 -52 32 -137q0 -130 -75 -334q-72 -200 -267 -567q-99 -191 -110 -233q-5 -23 5 -38.5t23 -19.5q31 -13 56 15l8 12q2 3 18 31l64 108q251 450 424 703q92 132 169.5 223t129.5 132t84 57t55 16q21 0 31 -17q8 -12 13 -34q4 -18 4 -56v-16q-1 -50 -12.5 -119 t-42.5 -183.5t-79 -256.5q-62 -182 -131.5 -355t-99.5 -231q-11 -22 -11 -29l-6 -39l37 -12q15 -5 31 1t24 24l2 2q0 1 1 2t2 2.5t2 3.5q196 385 360 653q98 161 184.5 281.5t143 184t104 102.5t71.5 49t42 10q8 0 15 -1t11.5 -3t8.5 -4.5t5.5 -4t4.5 -3.5l2 -3 q17 -23 17 -75q0 -48 -15 -121q-20 -101 -100 -361q-112 -358 -136 -501q-15 -98 -15 -180q0 -25 1 -48q9 -110 64 -184q83 -115 270 -115q56 0 114.5 15.5t101 36.5t80.5 45.5t55 38t22 18.5q15 13 16 32.5t-12 32.5q-12 14 -31.5 15.5t-34.5 -10.5q0 -4 -41.5 -34.5 t-119 -64t-150.5 -33.5q-143 0 -197 78q-46 62 -46 180q0 70 16 160q26 158 131 492q29 93 44 144t35.5 126.5t27.5 121.5q7 44 11 96q1 15 1 29q-1 33 -7 59q-8 36 -28 61q-38 57 -121 57q-70 0 -156 -68q-69 -52 -156 -155q-138 -166 -317 -457q-3 -6 -10 -17.5t-10 -17.5 q75 231 100 373q20 103 20 177q0 91 -30 138q-38 60 -111 60q-108 0 -254 -146q-119 -119 -260 -323q-3 -5 -53 -80q74 210 75 354q0 110 -44 183q-79 135 -295 135q-190 0 -332 -168q-60 -72 -94.5 -158t-34.5 -164z" />
<glyph unicode="N" horiz-adv-x="1986" d="M0 342q0 116 39 237.5t108 219.5q78 114 181 174.5t219 60.5q109 0 166 -57q55 -52 55 -143q0 -62 -27.5 -126t-78.5 -118q-117 -123 -275 -123q-19 0 -33 13.5t-14 33.5q0 19 14 32t33 13q119 0 207 94q38 39 60 88.5t22 92.5q0 50 -29 77q-31 31 -100 31 q-91 0 -174.5 -51t-151.5 -146q-60 -88 -94.5 -194.5t-34.5 -208.5q0 -130 58 -207q59 -80 176 -80q189 0 399 148q190 139 358 372q158 218 255.5 460t97.5 417q0 111 -45 172q-6 9 -11 14q-42 45 -123 45q-165 0 -290 -151q-54 -61 -85.5 -136t-31.5 -139q0 -56 24 -83 q21 -27 72 -27q23 0 44 12.5t34.5 29.5t23.5 34.5t16 30.5l5 12q4 19 21 27.5t36 2.5t27.5 -22t3.5 -35l-3 -8q-3 -8 -8 -18.5t-12 -25t-17 -28.5t-22.5 -29.5t-28 -28.5t-33.5 -23.5t-40.5 -16.5t-46.5 -6q-95 0 -143 61q-45 54 -45 141q0 78 37 168.5t100 165.5 q75 89 168.5 137t193.5 48q117 0 189 -72v-2q97 -97 160 -295q51 -165 75 -393q23 -224 23 -569q0 -104 -2 -218v-114q8 28 29 92.5t32 99.5q57 177 88 272t93.5 263t119.5 290q117 245 233.5 365.5t237.5 120.5q19 0 32 -13t13 -32q0 -20 -13 -33.5t-32 -13.5 q-92 0 -194 -117q-93 -106 -193 -317q-124 -262 -297 -814q-12 -36 -29.5 -90.5t-30 -92.5t-22.5 -66q-27 -70 -45.5 -98t-46.5 -31h-4q-30 0 -49 28q-12 22 -14 79q-1 32 -1 97q0 52 1 127q2 113 2 216q0 341 -23 559q-21 215 -67 362q-18 -159 -97 -362 q-102 -249 -266 -484q-176 -244 -381 -391q-230 -166 -452 -166q-162 0 -250 117q-76 102 -76 262z" />
<glyph unicode="O" horiz-adv-x="1318" d="M20 399q0 -227 115 -376q125 -166 338 -166q217 0 395 106q167 95 291 266q114 155 178 350t64 384q0 261 -117 421q-133 187 -373 187q-226 0 -383 -117q-136 -103 -198 -287q-16 -52 -27 -104l-18 -19q-133 -139 -199 -311q-66 -167 -66 -334zM113 399q0 154 59 299 q43 114 119 211q0 -137 33 -260q34 -126 96 -231q65 -109 151 -174q15 -11 34.5 -8t29.5 18q12 15 8.5 34t-18.5 31q-71 53 -126.5 146t-84.5 209q-32 116 -32 228q0 58 9 116q54 51 119.5 93.5t154 81t203.5 60t244 21.5q20 0 33.5 13t13.5 32t-13.5 33t-33.5 14 q-399 0 -684 -199q54 136 156 213q129 99 327 99q193 0 299 -148q99 -141 99 -368q0 -174 -60 -354.5t-164 -323.5q-114 -156 -262 -242q-163 -94 -350 -94q-165 0 -266 129q-94 127 -94 321z" />
<glyph unicode="P" horiz-adv-x="1130" d="M-412 201q-3 19 8.5 34.5t30.5 18.5t35 -8.5t20 -30.5q10 -69 54 -137q82 -129 239 -129q56 0 109.5 25.5t102.5 77t93 111.5t90.5 147t83 164t81.5 181v2q45 103 53 123q160 373 254 533q41 68 59 92q-4 2 -10 2q-207 0 -389 -45q-164 -45 -283 -119q-114 -73 -184 -166 q-68 -89 -92 -192q-13 -57 -13 -113q0 -105 47 -205q80 -160 252 -248q19 -9 24.5 -26.5t-3.5 -34.5q-14 -27 -41 -27q-11 0 -21 7q-207 106 -292 290q-58 117 -58 241q0 67 17 136q26 118 106 228q83 108 209 188q142 87 309 129q186 49 412 49q26 0 80 -4q9 12 18 21 q80 86 178 126q19 6 36.5 -2t23.5 -26q6 -17 -2 -35t-25 -25q-59 -20 -117 -75q26 -5 95 -27q116 -44 190 -121q65 -65 102 -160q29 -85 29 -165q0 -176 -133 -312q-112 -121 -295 -180q-111 -38 -218 -38q-39 0 -77 5q-110 15 -184 74q-128 -282 -211 -410 q-87 -132 -180 -204q-110 -84 -226 -84q-210 0 -319 174q-24 38 -40.5 80t-22 63.5t-5.5 26.5zM631 645q57 -59 157 -72q33 -5 68 -5q87 0 186 32q157 54 258 158q107 113 107 248q0 66 -25 133q-23 69 -79 129q-69 65 -158 98q-75 26 -135 33q-58 -75 -123 -196t-104 -208 t-109 -252z" />
<glyph unicode="Q" horiz-adv-x="1339" d="M180 829q0 -181 90 -294q104 -129 291 -129q188 0 291 112q92 98 92 242q0 111 -57 190q-65 90 -170 90q-20 0 -33.5 -13.5t-13.5 -33.5q0 -19 13.5 -32t33.5 -13q58 0 96 -53q39 -55 39 -135q0 -104 -68 -178q-78 -84 -223 -84q-144 0 -217 94q-72 87 -72 237 q0 116 43.5 234.5t120.5 214.5q84 104 193 160q119 61 258 61q123 0 219 -41q87 -38 147 -110q117 -139 117 -371q0 -173 -67 -351.5t-185 -320.5q-125 -155 -295 -242q-109 -56 -229 -77q-54 18 -111 22h-26q-89 0 -125 -24q-15 -10 -21 -27.5t0 -32.5q4 -22 29 -33 q9 -4 27 -8q24 -6 67 -6q78 0 152 12q31 -12 59 -32q18 -12 50.5 -37.5t39.5 -30.5q62 -49 98.5 -75.5t105 -67.5t128.5 -62.5t146 -38t180 -16.5q35 0 73 2.5t94.5 10.5t105 28t73.5 49q12 15 11 34.5t-15 31.5q-15 12 -34.5 10t-31.5 -17q-23 -23 -100 -40 q-83 -17 -176 -17q-62 0 -119.5 8t-101.5 18.5t-93 32t-79 37t-75 46.5t-66 47t-66 51l-78 59q72 22 151 62q189 99 324 264q128 156 200 349t72 382q0 262 -139 430q-73 87 -180 135q-113 49 -256 49q-159 0 -301 -71q-124 -65 -221 -185q-87 -106 -136 -240t-49 -266z" />
<glyph unicode="R" horiz-adv-x="1669" d="M19.5 304q-1.5 11 8 23.5t29.5 12.5q24 0 38 -9t16 -17l2 -9q0 -4 3 -17.5t15.5 -41.5t30.5 -53q80 -109 244 -109q123 0 258 205q88 139 239 485q152 351 242 486h-41q-405 0 -653 -211q-102 -92 -152 -195q-47 -96 -47 -188q0 -91 43 -140q44 -53 125 -53q143 0 223 84 q74 71 74 170q0 73 -45 121q-48 51 -144 51q-20 0 -33.5 14t-13.5 33t13.5 32t33.5 13q132 0 209 -80q72 -72 72 -184q0 -135 -100 -235q-116 -111 -289 -111q-121 0 -195 84q-65 77 -65 201q0 117 61 237t170 215q272 234 713 234q38 0 108 -4q106 112 213 112 q19 0 32 -13.5t13 -33.5q0 -19 -13 -32t-32 -13q-47 0 -96 -37q134 -28 217 -88q73 -54 109 -125q35 -68 35 -149q0 -94 -52 -201q-50 -95 -139 -178q-93 -83 -205 -129q-79 -30 -145 -41q169 -285 342 -465q337 -354 715 -354q182 0 309 73q28 16 51 35t32 30l9 11 q2 2 4.5 4t11 7t17 7t19.5 -0.5t20 -11.5q14 -14 14.5 -29t-5.5 -23l-7 -9q-3 -6 -18 -23t-54.5 -46t-90.5 -54.5t-134.5 -44.5t-177.5 -19q-414 0 -783 381q-81 85 -161.5 194t-119.5 172t-95 157h-9q-50 0 -80 30q-26 26 -26 68q0 38 23 66t55 28q14 0 26 -8t17 -15 t14 -22q4 -6 31 -51q192 18 340 151q74 67 116.5 150t42.5 160q0 123 -104 198q-85 62 -242 84q-43 -61 -45 -65q-35 -56 -78 -142t-64.5 -134t-76.5 -173q-157 -359 -248 -497q-68 -108 -147 -174q-89 -74 -186 -74q-213 0 -320 149q-15 21 -27 43.5t-18.5 40.5t-11.5 33 t-7 24l-2 9q1 2 -0.5 13z" />
<glyph unicode="S" horiz-adv-x="1376" d="M-369 -186h93q-1 -33 26 -64q52 -67 197 -67q213 0 469 241q21 21 26 25q-61 20 -110 41q-305 137 -305 452q0 214 98 365q89 136 242 211q140 69 296 69h25q170 -6 275 -88q15 -12 17.5 -31t-9.5 -34q-10 -15 -29.5 -17t-34.5 9q-81 63 -221 69h-14q-143 0 -264 -59 q-133 -67 -205 -178q-84 -134 -84 -316q0 -137 74 -237q65 -80 176 -131q60 -28 145 -47q168 186 344 469q168 265 305 581q-36 60 -82 123q-42 57 -62.5 89.5t-39 81.5t-18.5 97q0 132 75 211q71 80 166 80q81 0 138 -60.5t57 -176.5q0 -125 -129 -435q0 -1 -1 -2t-1 -2 l37 -75q73 -177 73 -394q0 -356 -297 -563q-104 -69 -213 -104t-166 -35q-71 0 -153 14q-28 -30 -70 -69q-282 -267 -530 -267q-101 0 -174 31q-58 26 -99 76q-43 55 -43 117zM623 8q43 -4 77 -4q44 0 140.5 31t187.5 94q112 75 178 186q78 132 78 299q0 198 -67 359 q-113 -251 -279 -527q-151 -244 -315 -438zM1053 1468q0 -34 15.5 -72.5t32.5 -64.5t54 -78q5 -8 23.5 -32.5t27.5 -38.5q99 247 99 340q0 67 -28 106t-75 39q-52 0 -98 -49q-51 -60 -51 -150z" />
<glyph unicode="T" horiz-adv-x="815" d="M-205 66q1 2 0 11t8 20.5t27 13.5q14 1 25 -1t16.5 -6t9 -8.5t4 -7.5t0.5 -4l3 -7q2 -7 6 -16.5t10 -22t16 -27t21 -27.5q84 -97 252 -97q157 0 337 344q52 97 108 231.5t90.5 228t88.5 247.5q78 219 105 285q-9 0 -21 4q-79 17 -128 25.5t-131.5 16t-176.5 7.5h-6 q-200 0 -355 -152q-71 -68 -118 -157.5t-62 -182.5q-5 -37 -5 -71q0 -105 50 -191q74 -127 248 -182q17 -5 26 -21.5t3 -35.5q-5 -14 -17.5 -23.5t-25.5 -9.5l-15 2q-108 36 -182 92q-74 58 -117 131q-62 104 -62 234q0 44 7 90q37 227 205 391q184 178 420 178h21 q89 0 169 -8q90 -8 138 -16.5t133 -26.5l38 -8q59 127 109 149q17 8 34.5 1.5t26.5 -23.5q8 -17 1.5 -36t-23.5 -26q-17 -9 -55 -84q220 -41 564 -41h48q57 0 103 16t75 42.5t46 50.5t28 51q7 18 24.5 25.5t36.5 1.5q17 -7 24 -25t1 -37q-43 -96 -121 -151q-91 -66 -217 -66 h-66q-337 0 -583 47q-53 -135 -111 -297q-57 -161 -90.5 -252.5t-90.5 -229t-110 -237.5q-83 -165 -184 -274q-116 -119 -235 -119h-7q-206 0 -319 131q-25 30 -42.5 65.5t-23.5 53.5t-6 21z" />
<glyph unicode="U" horiz-adv-x="1290" d="M-524 889q0 95 37 191.5t104 172.5q77 89 178 137t215 48q118 0 191 -33q78 -29 125 -92q26 -36 40 -83q13 -48 17 -92q1 -15 2 -31q0 -34 -6 -77q-8 -64 -17 -110.5t-31 -123.5t-36 -120.5t-41 -126.5q-80 -240 -98 -338q-13 -64 -13 -111q0 -62 23 -94q30 -43 119 -43 q206 0 503 277q97 87 201 213q36 278 129 522q21 51 43.5 98t57.5 103.5t72 97.5t85.5 68.5t98.5 27.5q47 0 67 -33q21 -28 21 -65q0 -112 -129 -344q-132 -237 -312 -459l-43 -55q-10 -102 -10 -178q0 -230 66 -359q67 -133 196 -133q101 0 160 53q12 10 21.5 21.5 t12.5 17.5l3 6q7 18 24.5 25.5t36.5 1.5q17 -8 24.5 -25.5t0.5 -36.5q-23 -45 -62 -79q-85 -76 -221 -76q-91 0 -162.5 46.5t-115.5 135.5q-76 149 -76 402q0 43 2 63q-138 -148 -264 -244q-236 -184 -430 -184q-135 0 -193 82q-42 58 -42 155q0 54 13 119q16 87 103 351 q29 88 43 132.5t37 125.5t30.5 130.5t12.5 109.5q2 20 2 38q1 37 -7 67q-10 44 -34 76q-62 89 -240 89q-99 0 -184 -43q-79 -40 -139 -109q-57 -66 -88 -146t-31 -159q0 -101 51 -158q57 -63 162 -63q38 0 71.5 9t76 34t89.5 79.5t95 135.5q11 15 28 19.5t35 -5.5 q17 -9 21.5 -27.5t-4.5 -33.5q-57 -96 -115.5 -160t-112.5 -93.5t-96 -40t-88 -10.5q-149 0 -232 95q-73 82 -73 219zM1106 596q73 95 156 221q109 172 168 313q39 93 39 136q0 7 -1 12q-62 -3 -133 -94t-131 -244q-57 -141 -98 -344z" />
<glyph unicode="V" d="M-41 1483q0 -19 13 -32t32 -13q284 0 410 -66q67 -36 94 -86q31 -57 31 -137t-88 -365q-25 -83 -37 -124.5t-33.5 -120.5t-31 -125.5t-22 -114.5t-13.5 -113v-31q0 -31 1 -65q2 -50 15 -88.5t35 -67.5q59 -77 174 -77q137 0 309 178q152 155 293 401q138 234 227 484 q94 262 94 430q0 113 -45 180q-55 80 -155 80q-19 0 -33.5 -14t-14.5 -33q0 -18 14.5 -31.5t33.5 -13.5q53 0 79 -39q29 -43 29 -129q0 -151 -85.5 -391t-223.5 -478q-138 -239 -279 -383q-143 -149 -243 -149q-69 0 -99 41q-35 45 -34 145q0 69 16 164q29 170 119 459 q90 305 90 391q0 113 -45 184q-42 74 -131 121q-146 76 -451 76q-19 0 -32 -13.5t-13 -33.5z" />
<glyph unicode="W" horiz-adv-x="1574" d="M-1208 793q0 146 67 286q64 139 191 260q131 122 297 189q183 71 389 71q108 0 182 -30q72 -28 121 -90q46 -67 55 -168q1 -20 2 -42q0 -72 -16 -159q-24 -135 -129 -451q-98 -302 -117 -401q-15 -76 -15 -133q0 -82 31 -125q44 -59 162 -59q95 0 246 120q103 82 227 215 q-10 82 -10 152q0 263 94 469q48 108 115 166q76 70 170 70q68 0 109 -41q36 -36 36 -105q0 -113 -110 -313q-101 -179 -258 -369q-7 -9 -23.5 -28t-23.5 -29q18 -110 59 -191q81 -149 219 -149q164 0 348 190q177 183 303 467q122 278 134 518q1 18 1 36q0 234 -112 354 q-12 13 -11.5 32.5t13.5 32.5q13 12 33.5 11.5t32.5 -15.5q74 -77 110 -205q26 -107 26 -214q0 -18 -1 -36q-12 -254 -140 -551q-137 -303 -321 -493q-213 -219 -416 -219q-194 0 -301 198q-32 60 -55 150q-103 -106 -191 -174q-180 -142 -303 -142q-164 0 -235 99 q-23 32 -34.5 74.5t-14.5 84.5q-1 10 -1 22q0 34 7 80q9 62 18.5 107.5t32 122t37 121.5t43.5 131q101 310 125 436q14 76 14 137q0 105 -41 162q-61 82 -227 82q-186 0 -354 -65q-158 -65 -269 -170q-107 -98 -172 -232q-57 -126 -57 -247q0 -198 143 -320q77 -65 193 -100 q121 -39 291 -39q20 0 33.5 -14t13.5 -33t-13.5 -32t-33.5 -13q-182 0 -318 43q-132 41 -225 118q-90 75 -133 179q-43 93 -43 211zM567 428q0 -9 1 -27t1 -26q148 178 238 344q100 171 100 268q0 31 -12 41q-10 12 -41 12q-115 0 -203 -182q-84 -185 -84 -430z" />
<glyph unicode="X" horiz-adv-x="1536" d="M0 1073q0 151 86 264q50 63 111 93q68 36 153 36q119 0 230 -82q94 -72 176 -202q103 -163 266 -568l49 70q271 370 379 494q198 231 319 243h8q58 0 95 -39q14 -14 14 -33t-14 -32q-12 -13 -32 -13t-32 13q-12 12 -30 12q-81 -9 -258 -213q-130 -150 -373 -487l-86 -115 q154 -382 268 -557q88 -134 182 -201q101 -73 215 -73q19 0 32.5 -14t13.5 -34q0 -19 -13.5 -32t-32.5 -13q-267 0 -473 316q-107 160 -256 520q-181 -243 -288 -363q-113 -127 -203 -196q-110 -82 -193 -82q-20 0 -33.5 13.5t-13.5 33.5q0 19 13.5 32t33.5 13q52 0 138 64 q88 68 188 182q104 119 317 403q-2 8 -10 29q-61 151 -90.5 221t-80.5 177t-97 180q-75 118 -154 178q-81 63 -174 63q-118 0 -190 -94q-68 -87 -68 -207q0 -100 47 -162q53 -65 146 -65q25 0 47.5 9t36.5 21t24 25t14.5 21.5t4.5 9.5q8 17 25 24t36 0q18 -8 25 -25.5 t0 -35.5l-2 -5q-3 -4 -7 -11t-9 -15.5t-13.5 -19t-17.5 -19.5q-68 -71 -164 -71q-140 0 -217 100q-68 86 -68 219z" />
<glyph unicode="Y" d="M-102 1200q0 79 28 161t78 148q121 164 303 164q139 0 221 -82q34 -34 56 -80.5t30.5 -100t10.5 -86t2 -79.5v-10q0 -65 -17 -131.5t-32.5 -100.5t-47.5 -96q-26 -51 -38 -76.5t-23.5 -67.5t-11.5 -81q0 -80 53 -147q72 -93 217 -93q94 0 180 74q78 66 144 174 q81 136 116 252q3 12 29 98q88 268 238 418q14 14 33 14t32 -14t13 -33t-13 -32q-49 -49 -89.5 -108.5t-72 -135.5t-53.5 -137.5t-44 -158.5t-33 -153.5t-31 -164.5q-20 -107 -32 -167t-32.5 -145t-44.5 -151t-53 -123q-140 -277 -441 -277q-146 0 -235 68q-80 61 -98 162 q-8 37 -8 73q0 66 26 131q44 110 113 138q17 8 35 1t24 -24q8 -19 1.5 -36.5t-23.5 -24.5q-14 -5 -32 -27.5t-32 -58.5q-20 -53 -20 -102q0 -27 6 -52q31 -156 243 -156q128 0 222 60q83 58 137 166q36 69 66 171.5t44.5 174t40.5 215.5l7 31q-60 -85 -123 -136 q-116 -96 -240 -96q-191 0 -291 127q-71 93 -71 205q0 49 14.5 101.5t28 82t41.5 84.5q28 52 43.5 86.5t29 88.5t13.5 110v10q0 42 -1.5 69t-7.5 71.5t-22 80t-41 60.5q-52 55 -156 55q-133 0 -229 -127q-41 -54 -64.5 -121.5t-23.5 -132.5q0 -70 30 -115q28 -41 86 -41 q19 0 32.5 -13.5t13.5 -33.5q0 -19 -13.5 -32t-32.5 -13q-102 0 -159 78q-49 64 -49 170z" />
<glyph unicode="Z" horiz-adv-x="1161" d="M61 -152q0 54 50 131.5t161 196.5q123 131 447 432q342 322 475 463q68 73 111 129q-98 -31 -242 -31q-49 0 -94.5 10t-94.5 33.5t-76 39t-81 48.5q-68 42 -105 62.5t-100 40.5t-123 20q-87 0 -149 -84q-58 -85 -58 -182q0 -65 29 -108q29 -39 84 -39q20 0 33.5 -13 t13.5 -32q0 -20 -13.5 -33.5t-33.5 -13.5q-101 0 -158 75q-47 65 -47 164q0 129 76 236q88 123 223 123q55 0 105 -10.5t102.5 -34.5t82.5 -41t87 -52q66 -41 98.5 -59t89.5 -37.5t109 -19.5q169 0 254 43q64 28 88 90v2q2 0 2 2t2 2v2l2 2l8 8q2 0 2 2h2v2h2q8 4 11 4h2h2 v2h2h2h2h2h2h2h2h2v-2h2h2h2l2 -2h2q2 0 2 -2h2q3 0 3 -2h2v-2q4 -2 8 -6l2 -2q0 -2 2 -2v-2l2 -2q0 -2 4 -10v-3v-2v-2v-2v-2v-2q0 -118 -231 -366q-142 -153 -482 -469q-324 -305 -440 -428q-56 -58 -121 -140q66 -8 134 -33.5t109 -48t109 -63.5t109 -62.5t109 -49.5 t143 -41t162 -13q59 0 120 15t106 36.5t81 43.5t55 37t19 16q15 12 34 10t31 -17q12 -14 11 -32.5t-15 -30.5q-6 -6 -25 -21t-63 -42t-94 -50t-120.5 -40t-139.5 -17q-95 0 -178 14.5t-158.5 46t-118.5 54t-115 65.5q-60 35 -87.5 50.5t-78 38.5t-96.5 33.5t-98 12.5 q-10 -25 -10 -37q0 -20 -14 -33.5t-34 -13.5q-19 0 -32 13.5t-13 33.5z" />
<glyph unicode="[" />
<glyph unicode="\" />
<glyph unicode="]" />
<glyph unicode="^" />
<glyph unicode="_" />
<glyph unicode="a" horiz-adv-x="747" d="M-63 217q-2 -19 -2 -37q0 -68 30 -112q41 -71 144 -84q11 -2 23 -2q88 0 183 88l41 39q3 -59 27 -97q27 -35 74 -41q9 -1 19 -1q81 0 173 85q12 13 24 26.5t20.5 24t15 19.5t10.5 15l4 5q10 17 6.5 36t-20.5 28q-18 11 -35.5 7.5t-28.5 -19.5q-24 -39 -61 -74 q-61 -61 -107 -61q-5 0 -10 1q-8 0 -8 5q-10 10 -10 55q0 36 12 82q0 7 1 16.5t1 11.5q2 6 2 15q-3 33 -29 43q-5 4 -13.5 5.5t-23 -4t-26.5 -20.5q-2 -2 -6 -10q-67 -84 -111 -123q-72 -64 -126 -64q-5 0 -11 1q-53 6 -76 39q-15 25 -15 65q0 12 1 25q6 51 35 107.5 t71 103.5q81 89 168 89q10 0 19 -1q62 -9 92 -55q6 -12 10.5 -25.5t5.5 -21.5l2 -7q0 -1 0.5 -3t3 -7t7.5 -9t15.5 -8t24.5 -6q20 -3 30.5 7.5t10.5 22.5v11q1 3 -0.5 15t-9.5 33.5t-20 40.5q-50 90 -160 102q-16 2 -32 2q-52 0 -106 -23q-70 -30 -128 -96 q-53 -55 -87.5 -124t-43.5 -136z" />
<glyph unicode="b" horiz-adv-x="610" d="M0 242q0 -1 2 -14t5 -27t10 -35.5t16 -40.5q29 -56 69 -84q56 -41 131 -41q81 0 154 41.5t127 118.5q44 65 70 144.5t26 154.5q0 101 -43 162q-51 75 -145 75q-118 0 -232 -141q35 102 64 176q162 446 207 522q9 17 3.5 36t-20.5 28q-17 9 -35.5 3.5t-27.5 -22.5 q-53 -95 -219 -548q-55 -147 -113 -324q-49 -152 -49 -184zM96 225l6 8q15 30 27 50q72 136 129 209q84 112 164 112q48 0 70 -35q26 -44 26 -110q0 -61 -21.5 -127t-58.5 -119q-85 -121 -205 -121q-78 0 -116 72q-11 21 -21 61z" />
<glyph unicode="c" horiz-adv-x="634" d="M0 217q0 -103 57 -166q68 -71 189 -71q150 0 262 71q78 47 121 119q9 17 3.5 35.5t-22.5 27.5t-35 4t-28 -22q-30 -51 -88 -86q-86 -57 -213 -57q-81 0 -119 41q-35 37 -35 104q0 73 36.5 153t97.5 135.5t124 55.5q54 0 72 -43q8 -14 8 -35q0 -19 -6 -41q-13 -50 -53 -92 q-13 -14 -12.5 -32.5t14.5 -32.5q13 -12 32 -11.5t31 13.5q58 61 77 133q8 31 8 59q0 39 -15 74q-20 47 -61 73.5t-95 26.5q-73 0 -141 -45q-57 -37 -109 -104q-100 -137 -100 -287z" />
<glyph unicode="d" horiz-adv-x="845" d="M2 248q12 92 70 178q81 118 227 178q113 49 254 49q60 172 133 348q55 166 70 187q12 18 27.5 23t24 3t13.5 -6q30 -17 23 -51q0 -8 -2 -12l-11 -29q-25 -63 -36 -88q-3 -8 -6.5 -17.5t-8.5 -21t-8 -18.5l-4 -10q-91 -271 -106 -312q12 0 18 -2q20 -1 31.5 -15.5 t9.5 -35.5q-1 -19 -16.5 -31t-34.5 -10q-28 4 -43 4l-37 -90q-42 -136 -55 -238q-5 -38 -5 -68q0 -53 15 -79q9 -12 28 -12q5 0 13.5 3t36 27t59.5 66q18 24 36 51t27 42l9 15q11 17 28.5 22.5t34.5 -3.5t22.5 -28t-3.5 -36l-10 -17q-11 -17 -30.5 -46t-39.5 -55 q-100 -133 -183 -133q-69 0 -104 53q-31 48 -31 133q-120 -186 -237 -186q-120 0 -174 102q-28 53 -28 119q0 23 3 47zM94 236q-2 -17 -2 -32q0 -42 17 -79q27 -53 92 -53q50 0 118 86q70 89 140 241q5 12 21 47.5t24 55.5l6 20l12 39q-104 -6 -188 -41q-124 -52 -187 -145 q-43 -64 -53 -139z" />
<glyph unicode="e" horiz-adv-x="671" d="M-4 293q3 -211 137 -287q75 -43 199 -43h22q109 0 238 82q136 88 182 209q8 19 0.5 36t-26.5 23q-18 7 -35 -0.5t-25 -25.5q-37 -94 -147 -164q-109 -68 -189 -68h-24q-97 0 -150 29q-61 37 -82 123q18 -1 35 -1q63 0 119 9q141 21 223 94q94 80 94 207v8q-3 83 -61 129 q-49 37 -129 37q-66 -2 -133.5 -29t-120.5 -75q-127 -115 -127 -285v-8zM88 301q0 132 96 215q41 36 93 58t100 24q51 0 74 -20q24 -13 24 -54q0 -95 -61 -147q-73 -56 -178 -70q-40 -8 -91 -9q-27 1 -57 3z" />
<glyph unicode="f" horiz-adv-x="774" d="M-102 -385q0 -95 28 -141q40 -68 115 -68q99 0 190 98q71 76 136 220q62 146 92 299q118 29 207 110q30 27 54.5 58.5t34 49t9.5 19.5q8 17 1.5 36t-24.5 26q-17 7 -34.5 0.5t-26.5 -23.5q-25 -51 -80 -102q-56 -50 -123 -74q10 82 10 137q0 114 -30 178q0 3 -4 11 q29 34 88 114q140 186 233 361q103 198 103 311q0 71 -37 111q-43 43 -117 43q-52 0 -119 -70q-48 -51 -119 -158q-133 -207 -262 -491q-134 -292 -229.5 -585.5t-95.5 -469.5zM-10 -414q-1 15 -1 31q0 169 113 506q8 2 33 14q14 -24 25 -41q68 -90 174 -90q18 0 28 2 q-32 -138 -79 -246q-57 -126 -119 -194q-64 -70 -123 -70q-7 0 -12.5 2t-14.5 9t-15.5 26.5t-8.5 50.5zM197 303q6 52 34 88q31 42 91 45q-57 -66 -101 -108zM213 193q14 12 70 63q47 50 102 111q10 -48 10 -107q0 -60 -14 -160q-8 0 -24 -1t-23 -1q-42 0 -73.5 26.5 t-47.5 68.5zM256 516q16 32 33 76q137 300 262 500q33 53 63 93.5t48 60.5t33 32.5t20.5 15t7.5 2.5q35 0 49 -14q12 -12 12 -43v-6q0 -85 -82 -245q-84 -166 -229 -361q-41 -59 -84 -111q-24 12 -55 12q-40 0 -78 -12z" />
<glyph unicode="g" horiz-adv-x="552" d="M-451 -555q0 -79 50 -129q51 -51 143 -51q122 0 268 162q108 123 232 333q59 105 118 225.5t91.5 196t35.5 92.5q1 6 1 11q0 31 -29 43q-13 6 -30.5 0.5t-27.5 -21.5l-6 -10q-59 -95 -90 -129q-67 -76 -121 -76q-48 0 -71 29q-23 30 -23 82q0 50 20 106.5t54 102.5 q73 104 164 104q60 0 90 -41q22 -31 22 -49v2q2 -2 6 -5.5t15 -8.5t22 -5.5t24.5 8.5t24.5 29q1 1 -2.5 12.5t-13 30.5t-22.5 37q-60 82 -166 82q-66 0 -128 -36.5t-112 -104.5q-90 -126 -90 -264q0 -88 43 -140q50 -63 143 -63q40 0 92 27q-68 -140 -120 -230 q-121 -207 -217 -311q-117 -129 -197 -129q-53 0 -78 25q-22 22 -22 63q0 47 27.5 101t74.5 98q115 112 283 112q19 0 32 13.5t13 33.5q0 19 -13 32t-32 13q-203 0 -346 -137q-62 -59 -97 -129.5t-35 -136.5z" />
<glyph unicode="h" horiz-adv-x="776" d="M-58.5 9q5.5 -15 17.5 -23q1 0 4.5 -1.5t10 -3t12.5 -1.5q22 0 37 18l8 12q21 28 26 35q122 169 242 299q170 188 246 188h6q7 -15 -4 -63q-3 -13 -39 -135q-20 -58 -30 -92.5t-19 -77.5q-6 -29 -6 -52q-1 -12 1 -22q4 -30 21 -53q32 -41 90 -41q104 0 221 129 q61 73 86 123q9 15 4 33.5t-22 27.5t-35.5 4t-27.5 -22q-14 -24 -35.5 -54t-53 -66t-68.5 -59.5t-69 -23.5q-12 0 -16 4q-4 7 -4 21q0 18 6 47q7 31 43 145q20 57 30 89q10 31 18 73q6 29 5 51q0 11 -1 20q-4 29 -19 50q-28 37 -82 37q-115 0 -314 -217q-11 -11 -30 -33 t-21 -25q11 23 33 72.5t35 75.5q148 338 321 714q8 19 1.5 37t-23.5 25q-17 9 -36 2.5t-26 -25.5q-146 -317 -321 -714q-47 -105 -98.5 -219.5t-84.5 -187.5t-36 -79q-9 -27 -3.5 -42z" />
<glyph unicode="i" horiz-adv-x="440" d="M25 326q-25 -93 -25 -161q0 -74 29 -120q38 -65 133 -65t194 126q21 26 40.5 54.5t28.5 44.5t9 18q9 17 4 36t-22 26q-17 9 -35 3.5t-27 -22.5q-28 -53 -69 -102q-73 -92 -123 -92q-40 0 -56 22q-15 25 -16 69q0 41 14 99q26 122 99 285q9 19 2.5 36t-25.5 25 q-17 8 -34.5 1.5t-26.5 -23.5q-65 -147 -94 -260zM143 735q0 -27 20 -46t48 -19t48 19t20 46q0 29 -20 48.5t-48 19.5t-48 -19.5t-20 -48.5z" />
<glyph unicode="j" horiz-adv-x="647" d="M0 -160q0 -50 33 -88q35 -39 94 -39q51 0 90 39q37 32 62 84q25 46 53 119q94 31 176 104q56 50 94 108t45 105q3 19 -8 35t-31 19q-19 3 -34.5 -7.5t-18.5 -29.5q-5 -31 -33 -75t-76 -87q-38 -34 -77 -55q0 2 2 4q50 180 96 465q6 27 6 39q4 19 -6 34.5t-29 18.5 q-19 4 -34.5 -6t-20.5 -29q0 -4 -2.5 -18.5t-3.5 -24.5q-47 -284 -96 -455q-9 -36 -21 -67q-24 -4 -41 -4q-98 0 -162 -60q-57 -54 -57 -129zM92 -160q0 36 29 62q35 35 98 35h6q-5 -12 -15 -34t-11 -24q-42 -74 -72 -74q-35 0 -35 35zM393 731q0 -30 21 -51t51 -21t51 21 t21 51q0 29 -21.5 49.5t-50.5 20.5t-50.5 -20.5t-21.5 -49.5z" />
<glyph unicode="k" horiz-adv-x="729" d="M0 35q-1 -5 -1 -9q0 -30 30 -42q4 -4 18 -4q24 0 41 22q1 2 5.5 8t6.5 10q5 8 17.5 28.5t19.5 31.5q34 63 107 174q28 -71 59 -119q87 -131 197 -131q132 0 229 129q13 17 24 36t18.5 33.5t13.5 26.5t9 19l3 8q6 19 -2 36t-27 23t-36 -2t-23 -26q-17 -50 -54 -99 q-68 -92 -155 -92q-61 0 -119 88l-21 37q42 3 91 23q72 31 122 96q43 54 57 111q5 23 5 43q0 30 -12 55q-32 61 -109 61q-117 0 -266 -192l-4 -4q82 177 121 250q13 26 22 47q127 0 234 49q94 43 170 119q65 68 104 148t39 147q0 49 -27 88q-30 43 -86 43q-134 0 -289 -195 q-119 -145 -249 -403q-100 -194 -182 -393.5t-99 -260.5q-2 -8 -2 -18zM289 319l30 43q122 156 195 156q25 0 25 -10q8 -14 -2 -46.5t-35 -64.5q-7 -8 -14.5 -16.5t-22.5 -21t-31 -21t-39 -17.5t-46 -8.5t-52 4.5zM440 805q78 136 164 248q129 159 217 159q13 0 13 -6 q8 -12 8 -32q0 -45 -30.5 -108.5t-86.5 -121.5q-117 -122 -285 -139z" />
<glyph unicode="l" horiz-adv-x="358" d="M20 37q34 -57 107 -57q111 0 233 131q25 27 48.5 56t35 46.5t11.5 19.5q11 15 6.5 34.5t-21.5 29.5q-15 9 -34 5t-29 -21q-15 -25 -40 -56t-60 -67.5t-75.5 -61t-74.5 -24.5q-21 0 -27 12q-10 15 -10 46q0 46 21 130q31 126 110 313q101 231 275 560q18 31 20 34 q8 19 2.5 37t-22.5 27t-35.5 2.5t-26.5 -23.5q-2 -3 -20 -34q-176 -332 -277 -566q-84 -199 -117 -327q-21 -87 -21 -148.5t21 -97.5z" />
<glyph unicode="m" horiz-adv-x="811" d="M-80.5 32q4.5 -19 21.5 -28q15 -11 34 -7t29 21l2 5q70 115 180 270q78 108 129 162q37 42 66 61q0 -36 -23 -123q-19 -76 -69 -221q-21 -65 -27 -80q-6 -21 -7.5 -29t-0.5 -22t8 -25q13 -20 39 -20q33 0 57 51q10 16 37 68q105 195 152 264q48 70 83 103.5t54 33.5 q6 -19 2 -61q-2 -18 -6 -41t-11 -55.5t-10 -49.5q-13 -62 -19 -94.5t-15 -92.5q-9 -57 -9 -95q0 -37 5 -92q4 -48 19.5 -87t41.5 -71q79 -101 254 -101q41 0 79 11.5t63 27.5t45 34t28.5 29.5t9.5 14.5q10 15 6.5 34t-18.5 30t-34.5 6.5t-29.5 -21.5q-11 -17 -36 -35 q-46 -38 -113 -38q-131 0 -182 65q-19 23 -30.5 54t-13.5 73q-1 32 -1 58q1 9 1 17q0 32 9 87t14 81t17 85q18 85 25 127q5 30 5 62q0 14 -1 28q-3 47 -23 72q-26 30 -70 30q-96 0 -215 -176l-12 -18q13 60 13 101q0 48 -17 71q-21 30 -60 30q-36 0 -87 -39t-140 -153 q48 127 51 182q0 19 -12.5 33t-32.5 14q-19 2 -33 -11t-14 -32q-4 -59 -94 -286q-78 -203 -107 -254l-2 -2q-9 -17 -4.5 -36z" />
<glyph unicode="n" horiz-adv-x="673" d="M2.5 10q5.5 -16 20.5 -24q11 -9 31 -6t32 20l4 8l16 25q119 176 220 301q43 54 80 93.5t60 58.5t41.5 30.5t25.5 13.5t12 2q16 0 16 -4q14 -20 14 -75v-15q-2 -44 -22 -182q-14 -94 -20 -148t-8 -134v-17q-1 -69 15 -122q18 -59 54 -101q73 -82 209 -82q53 0 103.5 17.5 t82 38.5t60.5 50t36.5 39.5t14.5 20.5q11 17 6.5 35t-21.5 28q-15 11 -34 7t-29 -21q-3 -5 -9 -13.5t-27.5 -29.5t-45 -37t-61 -29.5t-76.5 -13.5q-97 0 -139 51q-48 54 -48 182q0 67 27 265q15 98 21 150q3 24 3 49q1 29 -3 60q-6 57 -33 87q-32 37 -86 37q-66 0 -148 -76 q-53 -46 -145 -156l-25 -35q47 157 52 220q2 19 -11 33t-32 14q-19 2 -34 -10.5t-16 -32.5q-4 -74 -70 -264t-106 -263l-4 -8q-9 -21 -3.5 -37z" />
<glyph unicode="o" horiz-adv-x="641" d="M0 176q0 -84 49 -139q54 -57 154 -57q76 0 156 43.5t149 123.5q62 72 97.5 155t35.5 153q0 84 -51 135q-56 53 -156 53q-89 0 -172 -47q-79 -47 -135 -117q-59 -69 -93 -150t-34 -153zM92 176q0 55 28.5 121.5t76.5 122.5q109 131 237 131q58 0 92 -27q23 -26 23 -69 q0 -54 -30.5 -121t-82.5 -127q-55 -64 -112 -98q-61 -37 -121 -37q-58 0 -86 28q-25 25 -25 76z" />
<glyph unicode="p" horiz-adv-x="663" d="M-246 -500v-6q0 -37 35 -45q2 -2 10 -2q28 0 43 27q0 1 1 3t1 3q50 125 123 323q54 125 103 226q18 32 28 55q18 -36 39 -57q47 -47 117 -47q71 0 147 51q59 42 119 119q53 72 83 151t30 145q0 69 -35 113q-42 47 -115 47q-76 0 -147 -51q-67 -51 -129 -127l-19 -25 q30 81 70 187q7 17 -0.5 34t-26.5 25q-18 6 -35 -1t-24 -25q-142 -379 -217 -582q-59 -165 -74 -203q-51 -119 -88 -220.5t-39 -117.5zM164 201q67 111 117 172q114 141 202 141q36 0 43 -14q15 -19 15 -54q0 -51 -26.5 -116t-70.5 -125q-44 -63 -94.5 -98t-95.5 -35 q-54 0 -76 61q-7 19 -14 68z" />
<glyph unicode="q" horiz-adv-x="602" d="M0 186q0 -87 43 -139q48 -61 141 -61q92 0 166 51q1 0 2 1t2 1l-223 -592q-6 -17 2 -34t25 -25q6 -2 16 -2q14 0 26.5 8.5t16.5 21.5q2 3 82 215t166 440t98 259v4v2h2q6 20 -2 36.5t-26 22.5q-11 7 -31 1t-29 -27v-2v-2q-12 -28 -23 -52t-40 -71.5t-59 -79.5t-76 -58 t-95 -26t-69 26q-23 30 -23 82q0 55 22.5 119.5t61.5 120.5q87 123 180 123q80 0 123 -55q11 -14 19.5 -29.5t11.5 -24.5l2 -8q1 -3 4.5 -6.5t17 -10t33.5 0.5q19 4 28 14t8 18l-1 7q0 1 -2 7t-5.5 15t-8.5 20t-13 24.5t-18 25.5q-77 94 -199 94q-75 0 -145 -49 q-62 -43 -111 -113q-46 -66 -73 -145t-27 -148z" />
<glyph unicode="r" horiz-adv-x="428" d="M-63 518q0 -38 36 -57q15 -9 35 -12q-7 -23 -22.5 -66.5t-16.5 -46.5q-8 -19 0 -36.5t27 -23.5q17 -7 34 0.5t25 26.5q37 98 47 137h27q69 0 98 -2q27 -4 45 -10q0 -29 -16 -78q-29 -83 -63 -162q-82 -194 -103 -276q-21 -78 -21 -136q0 -69 29 -112q50 -74 166 -74 q19 0 32 13t13 32q0 20 -13 34t-32 14q-68 0 -90 32q-13 20 -13 58q0 44 17 114q22 80 98 267q23 54 34 81.5t26 68t20 63.5t7.5 49.5t-4 44.5t-19.5 31q-18 19 -56 28.5t-66 10.5t-87 1h-8q1 14 1 26q0 41 -15 63q-18 30 -60 30q-72 0 -100 -61q-12 -27 -12 -72zM31 537 q0 10 2 14q0 -2 -1 -6.5t-1 -7.5z" />
<glyph unicode="s" horiz-adv-x="393" d="M-38 223.5q7 -17.5 26 -24.5q17 -7 34 0t25 24q15 36 70 148q6 11 15 30.5t11 22.5q55 -57 86 -105t31 -98q0 -56 -27 -108q-25 -42 -59 -56q-17 -6 -33 -6q-41 0 -80 39q-13 14 -32 14t-33 -14q-14 -12 -14 -32t14 -33q51 -48 104 -62q28 -4 43 -4q36 0 68 14 q64 26 102.5 94t38.5 154q0 43 -14 84t-42.5 80.5t-51 65t-60.5 63.5q41 90 41 135q0 47 -37 74q-30 20 -67 20q-46 0 -82 -28q-39 -31 -39 -90q0 -31 18 -60.5t56 -70.5q-2 -5 -39 -82q-52 -102 -72 -152q-8 -19 -1 -36.5zM92 625q0 18 14 24q4 2 15 2q10 0 12 -2 q0 -11 -18 -63l-4 6q-8 11 -12.5 19.5t-5.5 10.5z" />
<glyph unicode="t" horiz-adv-x="585" d="M0 831q0 20 13 34t32 14h172q29 69 60 137.5t47 102.5l16 34q9 18 26.5 24.5t36.5 -1.5q17 -9 23 -27t-2 -37q-1 0 -15 -28.5t-40 -85.5t-52 -119h119q20 0 33.5 -14t13.5 -34q0 -19 -13.5 -32t-33.5 -13h-155q-6 -18 -19.5 -52.5t-19.5 -51.5q-48 -137 -74 -244 t-28 -171q-1 -19 -1 -35q0 -38 4 -64q6 -36 19 -57q24 -39 82 -39q87 0 176 139q22 34 41.5 72.5t28 60t8.5 23.5q6 19 23 26.5t36 -0.5q17 -6 25 -23t2 -34q0 -3 -9.5 -26.5t-30 -65.5t-44.5 -80q-48 -74 -103 -123q-73 -61 -153 -61q-111 0 -160 83q-39 60 -39 164 q0 58 12 129q19 134 99 357q13 40 26 73h-137q-19 0 -32 13t-13 32z" />
<glyph unicode="u" horiz-adv-x="921" d="M18 53q35 -73 140 -73q70 0 166 83q49 39 131 132q-7 -34 -7 -65.5t7 -59.5q14 -43 47 -66.5t80 -23.5q129 0 247 180q11 17 21.5 35t19 33.5t16 30.5l13.5 27t10 21t7 15l2 6q7 19 -0.5 36t-26.5 23q-17 7 -34.5 -0.5t-25.5 -24.5q-13 -34 -36.5 -78t-56.5 -94.5 t-75 -84t-81 -33.5q-30 0 -35 16q-8 18 -8 45q0 71 55 205q10 27 45 104q50 71 66 111q1 2 2 5.5t2 4.5q8 35 -15 51q-26 22 -55 4q-19 -14 -53 -77q-2 -3 -6.5 -13t-10 -20.5t-10.5 -20.5q-57 -87 -143 -194q-92 -113 -159 -167t-99 -54q-51 0 -58 22q-10 18 -10 45 q0 66 57 191q59 132 140 248q12 15 8 33.5t-19 29.5t-34 8t-29 -18q-88 -123 -150 -264q-64 -138 -64 -229q0 -50 19 -85z" />
<glyph unicode="v" horiz-adv-x="612" d="M41 76q45 -96 178 -96q89 0 184 100q82 85 136 203q49 103 53 187q0 6 -1 13q0 75 -39 121q-12 15 -31 16.5t-32 -10.5q-15 -12 -16.5 -32t10.5 -33q16 -19 16 -59q1 -13 -1 -29q-8 -62 -43 -135q-48 -104 -119 -179q-68 -71 -117 -71q-74 0 -96 43q-11 25 -11 60 q0 68 42 175q26 65 56 121.5t46 73.5q12 15 10 34t-16 31q-15 12 -34.5 10t-31.5 -16q-22 -27 -55.5 -89t-60.5 -132q-46 -121 -46 -208q0 -57 19 -99z" />
<glyph unicode="w" horiz-adv-x="774" d="M2 213q-2 -22 -2 -41q0 -58 20 -98q39 -74 127 -74q83 0 160 88q1 -5 4 -13t4 -9q35 -66 103 -66q92 0 180 102q75 80 129 209q41 103 47 187q1 11 0 21q0 90 -47 138q-13 13 -32 13t-33 -13t-14 -32t14 -33q21 -21 21 -70q0 -11 -1 -24q-6 -68 -41 -150 q-42 -108 -111 -184q-66 -72 -112 -72q-13 0 -19 14q-13 25 -13 80q0 11 1 23q32 60 53 119.5t21 91.5q0 17 -6 29q-12 30 -45 30q-18 0 -33 -11t-19 -17.5t-12 -20.5q-9 -19 -24 -68q-19 -65 -25 -126q-31 -60 -70 -99q-45 -45 -80 -45q-33 0 -45 25q-12 23 -12 61 q0 63 33 166q24 70 57.5 140t65.5 114q11 15 8 34.5t-18 29.5q-15 11 -34.5 7.5t-31.5 -18.5q-82 -113 -135 -278q-27 -88 -33 -160z" />
<glyph unicode="x" horiz-adv-x="825" d="M2 219q-5 19 4.5 36t28.5 21q19 5 35 -4t22 -28q12 -41 37 -82q45 -70 98 -70q4 0 12.5 4.5t38.5 32t68 74.5q40 53 84 114q-37 135 -61 187q-44 94 -82 94q-59 0 -103 -86q-12 -22 -21 -47t-12.5 -38t-3.5 -15q-3 -19 -18.5 -29t-34.5 -6q-20 3 -30 18.5t-7 34.5 q0 3 4.5 19.5t15.5 47t25 56.5q69 137 185 137q102 0 166 -149q25 -58 45 -125q10 19 28 45q84 125 130.5 187.5t80.5 86.5q15 12 34 9.5t30 -17.5q12 -15 9.5 -34t-17.5 -31q-42 -31 -189 -252l-74 -111q0 -1 11 -39q70 -249 108 -328q38 -74 68 -100q36 -33 76 -33 q24 0 48.5 11t42 26.5t32 31.5t21.5 27l7 11q9 17 28 21t36 -5t21 -27.5t-5 -35.5q-101 -152 -231 -152q-77 0 -138 55q-44 41 -90 129q-41 85 -104 312q-74 -102 -130.5 -152.5t-103.5 -50.5q-29 0 -56 9t-47 24t-38 34.5t-30.5 39t-23 40t-16.5 35t-10 26.5z" />
<glyph unicode="y" horiz-adv-x="622" d="M-123 -459q0 -57 29 -90q32 -41 92 -41q44 0 91 43t104 135q69 115 159 308q41 6 80 6q104 0 166 -35q35 -24 35 -64q0 -69 -80 -139q-90 -74 -197 -74q-20 0 -33.5 -14t-13.5 -33t13.5 -32t33.5 -13q140 0 256 96q54 45 83.5 100.5t29.5 108.5q0 90 -78 140 q-76 51 -215 51q-25 0 -37 -2q83 191 154 375q40 90 82 219l6 14v6q7 20 -1.5 36.5t-25.5 23.5q-16 5 -34 -2.5t-25 -26.5l-2 -4q-1 -1 -2.5 -7.5t-3.5 -9.5q-7 -19 -34.5 -94.5t-43.5 -115.5q-20 -47 -49 -97q-115 -198 -240 -198q-50 0 -67 26q-14 20 -14 58q0 43 18 108 q22 88 84 242q14 31 22 53q7 19 0 36t-24 23q-19 7 -36.5 0t-25.5 -24q-19 -51 -20 -53q-64 -157 -90 -252q-19 -74 -19 -130q0 -69 29 -112q44 -68 143 -68q79 0 152 50l-33 -76l-3 -6q-3 -7 -5 -11q-38 -7 -88 -28q-96 -42 -174 -117q-68 -65 -108 -143.5t-40 -145.5z M-31 -459q0 44 30.5 105.5t88.5 117.5q66 63 145 97q-58 -125 -116 -219q-36 -60 -66 -95t-41 -40l-12 -5q-4 0 -8 0.5t-6.5 1.5t-4 2t-3.5 2h-1q-6 9 -6 33z" />
<glyph unicode="z" horiz-adv-x="598" d="M-657 -678q0 -87 47 -138.5t125 -51.5q137 0 286 104q120 83 244 236q110 136 174 270l4 6q75 -24 159 -70.5t137 -83.5t143 -104q87 -63 129 -92.5t114.5 -72.5t135 -63.5t126.5 -25.5q10 -2 33 -2q54 0 115 13t105 28.5t90.5 37.5t61.5 30.5t27 15.5q15 9 20 27.5 t-5 33.5q-9 17 -28 21.5t-36 -4.5q-6 -6 -58 -32.5t-146 -54.5q-80 -24 -149 -25q-12 0 -23 1q-45 3 -94.5 20t-86 34t-95 55.5t-86.5 59t-95 69.5q-196 148 -311 207q-69 38 -146 61q31 91 31 135q0 66 -39 115q126 63 217 184q70 88 113 199q41 103 41 186q0 61 -25 103 q-36 49 -96 49q-37 0 -197 -19q-12 -1 -38 -4t-40 -4q35 62 35 107q0 24 -10 43q-22 49 -92 49q-85 0 -146 -80q-51 -67 -51 -135q0 -44 23.5 -67t56.5 -23q20 0 82 4q16 -3 27 2q65 5 163 16q152 19 187 19q14 0 18 -9q10 -15 10 -51q0 -69 -34 -153q-40 -97 -101 -176 q-111 -143 -248 -181q-35 6 -59 6q-35 0 -59 -6q-5 -1 -13.5 -4.5t-9.5 -3.5q-33 -16 -33 -47q0 -16 11 -30.5t34 -18.5q8 -2 35 -2q39 0 94 10q12 -4 21 -10q31 -21 31 -68q0 -34 -29 -110q-66 14 -141 14q-161 0 -295 -55q-124 -50 -215 -138q-82 -76 -129 -172t-47 -184z M-565 -678q0 68 40 147t107 142q172 168 447 168q58 0 102 -8q-65 -126 -158 -242q-117 -146 -236.5 -225.5t-221.5 -79.5q-39 0 -60 24q-20 27 -20 74zM55 762q0 29 29 74q34 47 76 47h10q-7 -34 -31 -74q-4 -9 -13.5 -24.5t-12.5 -20.5q-12 0 -31.5 -1t-26.5 -1z" />
<glyph unicode="{" />
<glyph unicode="|" />
<glyph unicode="}" />
<glyph unicode="~" />
<glyph unicode="&#xa1;" />
<glyph unicode="&#xa2;" />
<glyph unicode="&#xa3;" />
<glyph unicode="&#xa4;" />
<glyph unicode="&#xa5;" />
<glyph unicode="&#xa6;" />
<glyph unicode="&#xa7;" />
<glyph unicode="&#xa9;" />
<glyph unicode="&#xab;" />
<glyph unicode="&#xac;" />
<glyph unicode="&#xad;" />
<glyph unicode="&#xae;" />
<glyph unicode="&#xb0;" />
<glyph unicode="&#xb1;" />
<glyph unicode="&#xb6;" />
<glyph unicode="&#xb7;" />
<glyph unicode="&#xbb;" />
<glyph unicode="&#xbf;" />
<glyph unicode="&#xd7;" />
<glyph unicode="&#xf7;" />
<glyph unicode="&#x2000;" horiz-adv-x="1035" />
<glyph unicode="&#x2001;" horiz-adv-x="2071" />
<glyph unicode="&#x2002;" horiz-adv-x="1035" />
<glyph unicode="&#x2003;" horiz-adv-x="2071" />
<glyph unicode="&#x2004;" horiz-adv-x="690" />
<glyph unicode="&#x2005;" horiz-adv-x="517" />
<glyph unicode="&#x2006;" horiz-adv-x="345" />
<glyph unicode="&#x2007;" horiz-adv-x="345" />
<glyph unicode="&#x2008;" horiz-adv-x="258" />
<glyph unicode="&#x2009;" horiz-adv-x="414" />
<glyph unicode="&#x200a;" horiz-adv-x="115" />
<glyph unicode="&#x2010;" />
<glyph unicode="&#x2011;" />
<glyph unicode="&#x2012;" />
<glyph unicode="&#x2013;" />
<glyph unicode="&#x2014;" />
<glyph unicode="&#x2018;" horiz-adv-x="430" d="M102 1049q0 -11 7 -18t18 -7q9 0 17 7.5t8 17.5q-3 52 65 163q59 99 102 134q19 18 3 34q-6 8 -15.5 9t-17.5 -5q-48 -38 -113 -145q-74 -121 -74 -190z" />
<glyph unicode="&#x2019;" horiz-adv-x="382" d="M109 1063q-15 -19 2 -33q6 -6 14 -6q13 0 18 8q35 38 90 150q55 126 48 188q-1 10 -9.5 16.5t-17.5 4.5q-9 0 -14.5 -8t-3.5 -19q6 -50 -46 -164q-48 -104 -81 -137z" />
<glyph unicode="&#x201a;" d="M-1 -88q-2 -12 5 -23q9 -12 25 -12q10 0 16 6q49 34 129 127q76 96 96 152q5 10 0.5 22t-16.5 15q-12 4 -23 -1t-16 -16q-15 -43 -88 -133q-76 -93 -117 -119q-9 -6 -11 -18z" />
<glyph unicode="&#x201c;" horiz-adv-x="487" d="M102 1049q0 -11 7 -18t18 -7q9 0 16 7.5t7 17.5q0 54 67 163q56 95 100 134q9 6 10.5 16.5t-3.5 17.5q-18 18 -37 2q-47 -40 -113 -143q-72 -122 -72 -190zM199 1053q-2 -11 4 -19.5t16 -9.5h4q19 0 23 23q9 61 53 131q41 66 76 94q9 4 9.5 15t-5.5 18q-14 18 -35 4 q-45 -38 -91 -112t-54 -144z" />
<glyph unicode="&#x201d;" horiz-adv-x="446" d="M109 1137q7 -7 16 -7q11 0 18 7q39 42 74 118t35 144q0 8 -7 15t-16 7q-10 0 -17 -7t-7 -15q0 -59 -33 -131q-26 -57 -63 -99q-14 -18 0 -32zM164 1086.5q0 -9.5 8 -15.5q6 -6 14 -6q14 0 19 8q39 39 90 150q56 128 47 188q-2 11 -9.5 16.5t-17.5 4.5q-9 0 -14.5 -8 t-3.5 -19q6 -52 -45 -164q-45 -97 -80 -137q-8 -8 -8 -17.5z" />
<glyph unicode="&#x201e;" d="M-1 -88q-2 -12 5 -23q9 -12 25 -12q10 0 16 6q49 34 129 127q76 96 96 152q5 10 0.5 22t-16.5 15q-12 4 -23 -1t-16 -16q-15 -43 -88 -133q-76 -93 -117 -119q-9 -6 -11 -18zM-1 -88q-2 -12 5 -23q9 -12 25 -12q10 0 16 6q49 34 129 127q76 96 96 152q5 10 0.5 22 t-16.5 15q-12 4 -23 -1t-16 -16q-15 -43 -88 -133q-76 -93 -117 -119q-9 -6 -11 -18z" />
<glyph unicode="&#x2022;" />
<glyph unicode="&#x2026;" d="M61 43q2 -20 17 -33t35 -12q21 1 34 16.5t11 36.5q0 20 -15.5 33.5t-36.5 11.5q-20 -1 -33.5 -17t-11.5 -36zM61 43q2 -20 17 -33t35 -12q21 1 34 16.5t11 36.5q0 20 -15.5 33.5t-36.5 11.5q-20 -1 -33.5 -17t-11.5 -36zM61 43q2 -20 17 -33t35 -12q21 1 34 16.5t11 36.5 q0 20 -15.5 33.5t-36.5 11.5q-20 -1 -33.5 -17t-11.5 -36z" />
<glyph unicode="&#x202f;" horiz-adv-x="414" />
<glyph unicode="&#x2039;" />
<glyph unicode="&#x203a;" />
<glyph unicode="&#x205f;" horiz-adv-x="517" />
<glyph unicode="&#x20ac;" />
<glyph unicode="&#x2122;" horiz-adv-x="2541" d="M-205 66q1 2 0 11t8 20.5t27 13.5q14 1 25 -1t16.5 -6t9 -8.5t4 -7.5t0.5 -4l3 -7q2 -7 6 -16.5t10 -22t16 -27t21 -27.5q84 -97 252 -97q157 0 337 344q52 97 108 231.5t90.5 228t88.5 247.5q78 219 105 285q-9 0 -21 4q-79 17 -128 25.5t-131.5 16t-176.5 7.5h-6 q-200 0 -355 -152q-71 -68 -118 -157.5t-62 -182.5q-22 -148 45 -262q74 -127 248 -182q17 -5 26 -21.5t3 -35.5q-5 -14 -17.5 -23.5t-25.5 -9.5l-15 2q-108 36 -182 92q-74 58 -117 131q-83 139 -55 324q37 227 205 391q184 178 420 178q100 1 190 -7.5t138 -17t133 -26.5 l38 -8q59 127 109 149q17 8 34.5 1.5t26.5 -23.5q8 -17 1.5 -36t-23.5 -26q-17 -9 -55 -84q235 -44 612 -41q57 0 103 16t75 42.5t46 50.5t28 51q7 18 24.5 25.5t36.5 1.5q17 -7 24 -25t1 -37q-43 -96 -121 -151q-91 -66 -217 -66q-379 -5 -649 47q-53 -135 -111 -297 q-57 -161 -90.5 -252.5t-90.5 -229t-110 -237.5q-83 -165 -184 -274q-116 -119 -235 -119h-7q-206 0 -319 131q-25 30 -42.5 65.5t-23.5 53.5t-6 21zM508 1034q0 -103 57 -166q64 -69 183 -69q104 0 202 88q101 88 144 231q5 19 -4.5 35.5t-28.5 22.5q-19 4 -35 -5t-22 -28 q-30 -112 -115 -187q-71 -65 -141 -65q-77 0 -115 41q-33 35 -33 102q0 62 29 132t80 130q44 52 110 94t150 42q161 0 215 -91q80 -133 -43 -471q-72 -200 -267 -567q-99 -191 -110 -233q-5 -23 5 -38.5t24 -19.5q30 -13 55 15l8 12q2 3 18 31l64 108q251 450 424 703 q92 132 169.5 223t129.5 132t84 57t55 16q21 0 31 -17q8 -13 13 -34.5t4 -72t-12.5 -119t-42.5 -183t-79 -256.5q-62 -182 -131.5 -355t-99.5 -231q-10 -20 -10 -29l-7 -39l37 -12q15 -5 31.5 1t24.5 24l2 2l4 8q196 385 360 653q98 161 184.5 281.5t143 184t104 102.5 t71.5 49t42 10q8 0 15 -1t11.5 -3t8.5 -4.5t5.5 -4l3.5 -3.5l3 -3q32 -45 2 -196q-20 -101 -100 -361q-39 -124 -55.5 -178.5t-41.5 -152t-38 -170.5q-21 -131 -15 -228q9 -110 64 -184q83 -115 270 -115q56 0 114.5 15.5t101 36.5t80.5 45.5t55 38t22 18.5q15 13 15.5 32.5 t-11.5 32.5q-12 14 -31.5 15.5t-34.5 -10.5q0 -4 -41.5 -34.5t-119 -64t-150.5 -33.5q-143 0 -197 78q-73 98 -30 340q26 158 131 492q29 93 44 144t35.5 126.5t27.5 121t10.5 97t-5 87t-28.5 61.5q-38 57 -121 57q-70 0 -156 -68q-67 -50 -155 -155q-141 -171 -318 -457 q-3 -6 -10 -17.5t-10 -17.5q75 231 100 373q44 229 -10 315q-38 60 -111 60q-108 0 -254 -146q-119 -119 -260 -323q-3 -5 -53 -80q131 370 31 537q-80 135 -295 135q-190 0 -332 -168q-60 -72 -94.5 -158t-34.5 -164z" />
<glyph unicode="&#x25fc;" horiz-adv-x="747" d="M0 0v748h748v-748h-748z" />
</font>
</defs>
</svg>
