<?xml version="1.0" standalone="no"?>
<!DOCTYPE svg PUBLIC "-//W3C//DTD SVG 1.1//EN" "http://www.w3.org/Graphics/SVG/1.1/DTD/svg11.dtd" >
<svg xmlns="http://www.w3.org/2000/svg" xmlns:xlink="http://www.w3.org/1999/xlink" version="1.1">
<metadata></metadata>
<defs>
<font id="holiday_travel_script_altRg" horiz-adv-x="1228" >
<font-face units-per-em="2048" ascent="1638" descent="-410" />
<missing-glyph horiz-adv-x="500" />
<glyph horiz-adv-x="0" />
<glyph horiz-adv-x="682" />
<glyph unicode=" " />
<glyph unicode="," />
<glyph unicode="-" />
<glyph unicode="." />
<glyph unicode="0" />
<glyph unicode="1" />
<glyph unicode="2" />
<glyph unicode="3" />
<glyph unicode="4" />
<glyph unicode="5" />
<glyph unicode="6" />
<glyph unicode="7" />
<glyph unicode="8" />
<glyph unicode="9" />
<glyph unicode="A" />
<glyph unicode="B" />
<glyph unicode="C" />
<glyph unicode="D" />
<glyph unicode="E" horiz-adv-x="1366" d="M0 283q0 -91 37 -166q37 -79 110 -137q159 -123 457 -123q109 0 219 45q100 44 178 98q83 58 166 141q13 15 12.5 34.5t-14.5 31.5q-14 13 -32.5 12.5t-32.5 -14.5l-32.5 -32.5t-73.5 -62t-110 -76t-132 -59t-148 -26.5q-135 0 -244 28q-96 28 -155 76q-113 84 -113 230 q0 95 50.5 195t138.5 184q87 81 200 133q100 -103 264 -103q117 0 181 27q82 32 82 92q0 61 -84 100q-70 31 -172 31q-125 0 -240 -37q-43 70 -43 168q0 102 43 195q48 104 131 182q205 192 553 192q147 0 221 -65q62 -55 62 -143v-7q0 -108 -88 -206q-97 -105 -232 -105h-7 q-121 0 -155 66q-9 20 -9 45q0 15 3 31q9 44 39 81q32 40 70 54q25 9 52 9q16 0 34 -3q19 -5 35 4.5t20 28.5q5 19 -4.5 35t-28.5 20q-29 7 -58 7q-40 0 -78 -14q-67 -24 -114 -83q-44 -54 -57 -121q-5 -26 -5 -49q0 -46 19 -86q28 -57 91 -88q59 -29 140 -29h15 q177 3 297 135q55 59 85 131q28 68 28 135v9q0 130 -92 213q-101 88 -283 88q-381 0 -616 -217q-99 -91 -152 -213q-51 -111 -51 -232q0 -115 49 -203q-108 -50 -209 -141q-102 -97 -159.5 -215t-57.5 -231zM584 829q82 21 168 21q62 0 102.5 -11.5t56.5 -25.5 q-46 -29 -166 -29q-94 0 -161 45z" />
<glyph unicode="F" />
<glyph unicode="G" horiz-adv-x="1296" d="M-287 -358q0 -117 88 -193q90 -84 248 -84q274 0 486 270q24 28 55 74q77 -36 121 -57q116 -55 176.5 -83t177.5 -74.5t205.5 -69.5t209.5 -41.5t240 -18.5q296 0 445 53q96 32 155 95q62 68 62 168q0 56 -39 98q-31 35 -88 57q-99 41 -244 41q-169 0 -299 -49 q-71 -27 -113 -66q-51 -51 -51 -108q0 -20 13.5 -33.5t33.5 -13.5q19 0 32 13.5t13 33.5q0 46 105 88q115 43 266 43q122 0 209 -33q70 -30 70 -71q0 -122 -154 -177q-134 -47 -416 -47q-261 0 -526 88q-166 55 -444 191q-21 9 -59 27t-50 24q45 77 115 213q100 9 186 57 q100 53 176 144q67 79 107.5 173t40.5 171q0 57 -25 96q-30 47 -92 47q-122 0 -225 -160q-62 -89 -176 -331q-24 -53 -52 -107q-300 0 -456 117q-91 69 -136 174q-49 119 -49 291q0 150 76 315q78 176 217 324q152 165 334 252q208 100 428 100q162 0 240 -72 q65 -56 65 -164q0 -80 -39 -172t-106 -168q-70 -83 -155 -128.5t-169 -45.5q-183 0 -231 88q-15 26 -15 59q0 12 2 26q8 48 41 98q48 74 138 125q79 42 162 42q15 0 30 -1q20 -1 34.5 10.5t16.5 30.5q2 20 -10.5 35t-32.5 16q-16 1 -32 1q-111 0 -211 -54 q-105 -55 -172 -154q-46 -72 -55 -145q-2 -17 -2 -33q0 -55 24 -101q77 -135 313 -135q107 0 212 57.5t180.5 145.5t122 196t46.5 207q0 146 -94 234q-108 94 -303 94q-230 0 -444.5 -98.5t-384.5 -282.5q-148 -158 -233 -346.5t-85 -355.5q0 -194 57 -328q57 -132 164 -211 q170 -126 467 -135q-64 -121 -96 -172q-270 121 -473 121q-169 0 -272 -94q-97 -87 -97 -211zM-195 -358q0 66 41.5 116t103 73.5t132.5 23.5q171 0 422 -107q-11 -19 -41 -57q-84 -108 -184 -170q-107 -64 -230 -64q-119 0 -188 60q-56 53 -56 125zM805 102l24 56 q111 230 161 307q86 131 159 131q11 0 14 -6q11 -11 11 -45q0 -56 -32 -134.5t-93 -150.5q-69 -78 -150 -121q-52 -27 -94 -37z" />
<glyph unicode="H" d="M-410 1241q0 -104 72 -205q72 -98 188 -166q59 -37 119 -59q-24 -105 -24 -213q0 -181 80 -317q66 -113 182 -183q86 -52 179.5 -75t158.5 -23q21 0 67 4q-40 -102 -80 -176q-358 100 -534 100q-140 0 -229 -80q-86 -77 -86 -184t88 -176q89 -74 249 -74q177 0 308 70 q119 64 209 182l38 55q45 -14 150 -46t162 -50q167 -51 244.5 -74t234.5 -67.5t258 -67t235 -49t250 -38t224 -11.5q527 0 827 82q310 85 426 274q10 18 5.5 35.5t-19.5 28.5q-17 9 -36 5t-28 -19q-100 -160 -373 -236q-295 -78 -802 -78q-125 0 -276.5 20t-271 44 t-303.5 73.5t-278 77.5t-289 88q-57 18 -156.5 48.5t-135.5 41.5q55 108 96 222q168 46 291 163q82 74 131 165t49 165q0 62 -35 100q-41 41 -106 41q-141 0 -236 -153q-24 -39 -50 -99t-39 -95.5t-44 -123.5q-20 -53 -31 -86q-55 -10 -104 -10q-52 0 -133.5 20.5 t-155.5 65.5q-219 133 -219 420q0 92 18 180q192 -61 400 -61q176 0 344 47q161 42 297 129q141 91 217 214t76 261q0 134 -109 205q-94 63 -250 63q-168 0 -355 -71.5t-343 -194.5q-176 -141 -275 -326q-38 -66 -63 -143q-37 15 -96 49q-102 61 -158.5 137.5t-56.5 153.5 q0 75 50 152t142 141t202.5 100.5t213.5 36.5q20 0 33.5 13t13.5 32q0 20 -13.5 33.5t-33.5 13.5q-115 0 -246 -43q-125 -42 -223 -112q-110 -76 -171 -173t-61 -194zM-225 -336q0 68 60 120t163 52q155 0 483 -88q-9 -15 -18 -27q-79 -101 -178 -155q-111 -60 -265 -60 q-126 0 -192 54q-53 41 -53 104zM80 866q19 64 57 135q92 167 252 297q147 117 328 183q167 63 313 63q128 0 199 -47q67 -46 67 -129q0 -117 -67 -221q-65 -99 -185 -176q-119 -77 -273 -119.5t-316 -42.5q-198 0 -375 57zM760 135q4 18 8 25q71 209 125 299 q66 108 156 108q27 0 38 -11t11 -38q0 -59 -45 -132t-105 -130q-82 -78 -188 -121z" />
<glyph unicode="I" />
<glyph unicode="J" />
<glyph unicode="K" />
<glyph unicode="L" d="M-410 840q0 -203 115 -324q58 -61 150 -98q93 -35 206 -35q194 0 392 66q-48 -87 -76 -127q-33 -55 -76 -111q-229 72 -395 72q-108 0 -180 -62q-66 -57 -66 -141q0 -86 66 -143q72 -62 180 -62q159 0 307 115q59 44 119 114q56 -18 133 -49q217 -86 670 -305 q434 -214 702 -319q387 -148 631 -148q159 0 262 86q86 74 111 193q3 19 -7.5 35t-29.5 20q-19 3 -35 -7.5t-19 -29.5q-18 -87 -81 -141q-76 -64 -201 -64q-73 0 -161 15.5t-163.5 34.5t-188.5 61.5t-182.5 70t-202.5 89t-191.5 89t-202.5 97.5q-457 223 -676 309 q-65 25 -107 39q61 89 62 90q62 99 129 230q43 18 96 49q267 143 487 391q196 214 322 469q119 244 119 412q0 102 -45 159q-50 68 -146 68q-105 0 -207 -88q-86 -77 -166 -213q-109 -183 -294 -641q-155 -377 -234 -535q-229 -96 -455 -96q-189 0 -288 105q-90 93 -90 260 q0 149 71 309q79 172 211 307q145 151 330 234q204 92 432 92q20 0 33.5 13.5t13.5 33.5q0 19 -13.5 32t-33.5 13q-255 0 -471 -100q-201 -89 -358 -254q-145 -151 -228 -334q-80 -184 -80 -346zM-248 80q0 45 35 72q41 38 119 38q138 0 330 -55q-44 -47 -80 -74 q-122 -94 -250 -94q-77 0 -119 39q-35 27 -35 74zM649 637q73 153 187 434q60 150 97.5 238t90.5 200.5t100 190.5q152 256 293 256q50 0 72 -31q27 -34 27 -104q0 -148 -109 -371q-118 -241 -307 -449q-205 -230 -451 -364z" />
<glyph unicode="M" />
<glyph unicode="N" />
<glyph unicode="O" />
<glyph unicode="P" />
<glyph unicode="Q" />
<glyph unicode="R" />
<glyph unicode="S" d="M0 496q0 -261 129 -418q160 -201 496 -201q170 0 323 64q139 63 238 174q94 104 144 242.5t50 293.5q0 184 -69 328q-41 85 -142 211q-48 58 -72.5 92.5t-44.5 88t-20 110.5q0 83 33 125q43 49 139 49q42 0 62 -25q22 -29 22 -104v-19q-3 -44 -31 -176q-5 -19 4.5 -35 t28.5 -20q19 -5 35.5 4.5t20.5 28.5q20 78 29 139q5 34 5 71q0 29 -3 59q-7 69 -40 110q-44 59 -133 59q-140 0 -209 -84q-55 -64 -55 -182q0 -106 49 -197q30 -56 109 -151q39 -49 56.5 -73t48.5 -75.5t46 -93.5t27 -106t12 -134q0 -138 -44.5 -260.5t-127.5 -214.5 q-89 -101 -214.5 -154t-276.5 -53q-292 0 -424 166q-109 134 -109 361q0 109 43 208t125 177q69 66 153.5 104.5t159.5 38.5q203 0 320 -57q53 -27 86 -68q9 -17 27.5 -22t33.5 6q17 9 22 27.5t-5 35.5q-11 19 -28 37.5t-55.5 44t-88.5 44t-132 31.5t-180 13q-90 0 -192 -45 q-103 -47 -184 -125q-95 -91 -146 -207t-51 -243z" />
<glyph unicode="T" horiz-adv-x="817" d="M-818 1391q8 99 60 178q45 68 121 110q85 45 191 45q183 0 435 -40t591 -111q93 193 151 287q9 17 28 21t36 -7q15 -9 19.5 -28t-5.5 -36q-45 -66 -135 -258l28 -6q460 -95 598 -112q73 -9 119 -9q167 0 279 70q112 66 112 182q0 20 14 33.5t34 13.5q19 0 32 -13.5 t13 -33.5q0 -83 -43 -153q-41 -63 -113 -107q-136 -84 -328 -84q-69 0 -196 19.5t-231 40t-308 63.5q-29 7 -51 10q-103 -213 -209 -493q-123 -323 -164 -559q-22 -119 -22 -208q0 -114 36 -177q45 -80 152 -80q46 0 86.5 12t64.5 27t43.5 33.5t26 27.5t8.5 14q3 3 9 6.5 t24 7.5t33 -9q11 -6 14.5 -18t1.5 -21l-2 -9q-2 -5 -11.5 -19.5t-35 -40t-58.5 -48t-87.5 -39t-116.5 -16.5q-85 0 -139 32q-54 28 -92 95q-45 79 -48 198v24q0 98 21 224q45 246 170 576q87 237 201 481q-340 69 -576.5 107t-408.5 38q-80 0 -148 -33q-51 -29 -86 -79 q-41 -60 -45 -136q-2 -17 -1 -32q0 -46 13 -82q8 -17 1.5 -35t-23.5 -25q-6 -4 -19 -4q-30 0 -43 27q-22 46 -22 115q-1 21 1 43z" />
<glyph unicode="U" />
<glyph unicode="V" />
<glyph unicode="W" />
<glyph unicode="X" />
<glyph unicode="Y" />
<glyph unicode="Z" />
<glyph unicode="a" d="M0 172q0 -91 45 -145q51 -64 148 -64q101 0 196 111l12 12v-55q9 -157 82 -242q80 -92 230 -92q122 0 234.5 58.5t201.5 168.5q72 86 123 211q43 110 43 219q0 137 -70 213q-80 92 -221 92q-150 0 -264 -139q-39 -49 -64.5 -101.5t-33.5 -84.5q-3 -19 6.5 -35t27.5 -20 q19 -3 35.5 6.5t20.5 27.5q5 26 26.5 69t52.5 81q82 104 193 104q102 0 152 -59q47 -53 47 -154q0 -89 -39 -189t-107 -183q-76 -94 -170 -143.5t-194 -49.5q-108 0 -160 61q-59 68 -59 210q0 70 14 157q0 6 1 15.5t1 13.5q2 4 2 12q-3 32 -33 45q-10 4 -18 4q-23 0 -39 -26 q-5 -10 -6 -11q-51 -88 -94 -135q-72 -80 -129 -80q-51 0 -76 31q-25 28 -25 86q0 53 21 112.5t57 108.5q77 109 172 109q61 0 98 -43q8 -11 14 -24t8 -20l3 -7q2 -3 6.5 -8t18 -12.5t28.5 -4.5q16 3 25 13.5t11 19.5l1 10l-3 9l-6.5 19.5t-11.5 26.5t-18 29q-62 84 -174 84 q-140 0 -248 -148q-94 -131 -94 -274z" />
<glyph unicode="b" horiz-adv-x="686" d="M-1001 1112q-3 -20 -3 -38q0 -73 41 -130q56 -81 160 -108q19 -6 35.5 2.5t22.5 27.5q5 19 -5 36.5t-28 21.5q-68 20 -104 68q-30 40 -31 88q0 10 2 20q12 85 100 149t236 64q139 0 284 -74q97 -52 252 -170q179 -136 293 -190q-80 -157 -129 -291q-78 -222 -78 -371 q0 -96 33 -149q46 -68 125 -68q95 0 178.5 45t137 114.5t84 149.5t30.5 154q0 92 -47 151q-52 68 -148 68q-82 0 -161 -55q-41 -32 -60 -49q52 138 123 266q93 -27 180 -27q126 0 241 46t206 134q78 75 123 164.5t45 169.5t-45 131q-50 54 -140 54q-161 0 -338 -154 q-146 -129 -284 -352q-19 -30 -31 -52q-104 48 -283 185q-68 52 -105 78.5t-104 68t-118.5 62t-122 37t-141.5 16.5q-179 0 -299 -88q-112 -82 -127 -205zM139 217q0 53 8 102l15 27q15 26 34 55.5t40 55.5q107 133 204 133q53 0 76 -33q27 -34 27 -94q0 -79 -40 -163 t-120 -146t-178 -62q-28 0 -47 25q-19 33 -19 100zM387 928l21 33q129 210 268 331q149 131 276 131q48 0 72 -24q20 -22 20 -68q0 -60 -38 -133t-101 -135q-77 -74 -176.5 -114t-206.5 -40q-67 0 -135 19z" />
<glyph unicode="c" horiz-adv-x="796" d="M-82 967q0 -101 80 -160q68 -53 184 -59q-35 -93 -55 -154q-40 -124 -55 -227l-4 -7q-6 -15 -2 -30q-5 -82 -5 -90q0 -107 39 -166q47 -74 142 -74q91 0 173.5 42t147.5 120q55 68 86 150t31 159q0 99 -51 162q-60 69 -164 69q-132 0 -242 -114q30 95 58 160 q103 9 190 55q104 55 178 141q67 78 107.5 173t40.5 175q0 62 -29 109q-39 51 -102 51q-82 0 -193 -149q-89 -121 -188 -320l-68 -145q-112 3 -164 43q-43 30 -43 86q0 40 22.5 85t61.5 81q92 86 207 86q20 0 33.5 13t13.5 32q0 20 -13.5 33.5t-33.5 13.5q-153 0 -270 -111 q-113 -107 -113 -233zM154 240q0 51 8 100q28 63 82 133q107 137 221 137q62 0 92 -37q31 -39 31 -102q0 -59 -25 -124.5t-68 -122.5t-110.5 -94.5t-142.5 -37.5q-46 0 -66 33q-22 36 -22 115zM324 848l43 94q84 172 180 305q37 49 67 77.5t41 31.5l11 4q18 0 26 -12 q13 -20 13 -56q0 -68 -37 -147t-88 -139q-69 -78 -150 -121q-67 -31 -106 -37z" />
<glyph unicode="d" d="M-479 872q-12 43 -12 83q0 46 16 89q30 92 123 144q82 43 189 44q24 0 50 -3q71 -6 134 -23.5t123.5 -51.5t96.5 -58t99 -70q94 -69 168 -111t162 -63q130 231 254 371q149 168 264 168q71 0 110 -50q33 -42 33 -110q0 -74 -37.5 -158t-101.5 -153q-78 -85 -178 -130 t-209 -45q-35 0 -86 7l-37 -74q2 0 6 -1t6 -1q19 -3 30.5 -18.5t8.5 -34.5t-18.5 -30t-34.5 -7q-24 4 -39 4q-53 -114 -90 -225q-82 -235 -82 -379q0 -89 31 -131q23 -39 82 -39q32 0 62.5 10.5t52 25t38.5 29t25 25.5l8 10q12 15 31.5 18.5t34.5 -8.5q15 -10 18 -29t-8 -34 q-4 -5 -13.5 -17t-35 -34.5t-54 -41t-72 -32.5t-87.5 -14q-105 0 -160 79q-45 67 -45 183q0 38 6 82q-78 -68 -166 -68q-122 0 -170 94q-22 44 -22 98q1 30 7 64q20 94 87 186q93 125 231 191q108 51 234 51q10 24 41 84q-92 25 -169 69.5t-169 114.5q-59 43 -93 65.5 t-89 53t-109.5 46t-116.5 20.5q-21 2 -41 2q-88 0 -145 -33q-60 -31 -82 -92q-11 -30 -10 -60q0 -27 8 -55q18 -58 65 -90q17 -10 20.5 -29.5t-7.5 -34.5q-10 -17 -29.5 -20t-34.5 8q-74 50 -102 139zM129 135q21 -43 88 -43q47 0 94 35q40 34 76 90q35 54 55 117l7 18v2 q1 2 6.5 17.5t7.5 23.5q38 103 78 195q-85 -10 -152 -41q-115 -54 -194 -160q-38 -52 -58 -104q-20 -51 -19 -86q-1 -36 11 -64zM768 840q12 -2 37 -2q95 0 182 41q77 39 137 102q58 64 86 131q29 69 29 119q0 35 -12 53q-14 14 -39 14q-74 0 -195 -137q-108 -116 -225 -321 z" />
<glyph unicode="e" d="M0 356q13 -144 100 -241q106 -118 279 -133q27 -2 78 -2q258 0 483 129q228 133 373 360q119 182 155 383q13 70 13 131q0 113 -45 197q-37 67 -101 104t-151 37q-253 0 -402 -199q-16 -20 -29.5 -41t-23.5 -39.5t-18.5 -35.5t-13.5 -31.5t-9 -25t-6 -17.5l-2 -6 q-5 -19 5 -36.5t28 -21.5q19 -4 35 5t22 28q23 86 86 168q127 160 328 160q120 0 170 -92q35 -66 35 -158q0 -52 -11 -111q-30 -174 -143 -348q-134 -211 -340 -332q-206 -116 -443 -116q-32 0 -65 2q-136 12 -217 102q-49 52 -68 129q38 -5 76 -5q58 0 116 12q96 18 163 71 q110 82 110 233q0 82 -57 127q-48 39 -129 39q-64 0 -131 -26t-121 -72q-129 -114 -129 -287v-32v-9zM92 401q0 128 98 213q39 35 91 55.5t100 20.5t72 -18q22 -16 22 -56q0 -102 -74 -161q-59 -43 -149 -57q-41 -6 -78 -6q-44 0 -82 9z" />
<glyph unicode="f" horiz-adv-x="2037" d="M0 1006q0 -83 45 -136t115 -53q20 0 33.5 13.5t13.5 33.5q0 19 -13.5 32t-33.5 13q-22 0 -37 12t-21 31t-8 31.5t-2 22.5q0 83 62 145q73 76 200 76q73 0 144 -16.5t122 -37t117.5 -62t101 -67t101.5 -77.5q66 -51 102 -78t92.5 -61t106.5 -52q-20 -31 -67 -106 q-183 -293 -312 -590q-133 -318 -133 -479q0 -90 37 -136q39 -59 123 -59q91 0 176 75t152 216q52 107 83 237q103 20 191 95q106 89 135 200q5 19 -4.5 35.5t-28.5 22.5q-19 4 -35 -5t-22 -28q-9 -35 -35.5 -78t-68.5 -78q-51 -41 -109 -63q12 79 12 151q0 64 -11.5 112 t-28 73.5t-38.5 41t-39 19.5t-34 4t-45 -8q65 118 112 193q80 123 86 133q16 -2 52 -2q301 0 485 163q78 69 123 154q41 80 41 158q0 74 -41 121q-44 53 -121 53q-129 0 -334 -227q-112 -123 -248 -318q-47 15 -101.5 46t-91.5 57.5t-104 78.5q-58 45 -88 67.5t-88.5 62.5 t-103 61t-105.5 45t-125 34.5t-133 10.5q-165 0 -266 -105q-88 -91 -88 -208zM821 -399q0 145 127 444q35 86 70 152v-4q0 -105 37 -175q50 -96 137 -96h10q-30 -109 -69 -186q-54 -113 -118 -175.5t-126 -62.5q-32 0 -49 21q-19 30 -19 82zM1110 193q0 66 23 114 q20 37 51 37q25 0 39 -31q20 -41 20 -127q0 -80 -18 -172h-33q-28 0 -55 45q-27 59 -27 134zM1399 844q106 151 211 268q74 81 134.5 128.5t87 58t44.5 10.5q34 0 51 -21q19 -22 19 -61q0 -53 -31 -117q-39 -70 -100 -125q-163 -139 -416 -141z" />
<glyph unicode="g" horiz-adv-x="624" d="M-430 -553q0 -78 51 -129q49 -53 146 -53q124 0 274 166q106 118 219 313q54 -15 123 -47q86 -44 235 -166q52 -43 84.5 -68t87 -59.5t100.5 -53t109 -32.5t129 -14q159 0 261 98q90 90 96 205q1 11 1 22q0 62 -30 111q-42 67 -117 76q-19 3 -34.5 -8t-18.5 -31 q-2 -19 9.5 -34.5t29.5 -16.5q38 -6 55 -38q13 -28 13 -62v-13q-6 -84 -70 -145q-72 -72 -195 -72q-128 0 -247 61q-68 37 -203 146q-8 7 -38 30t-42 32.5t-38.5 29t-44.5 31.5t-42.5 26.5t-48.5 26.5q-66 32 -117 47q56 100 110 211.5t83 180t32 85.5q3 18 -5 32.5 t-25 18.5q-11 7 -29 2.5t-29 -22.5q0 -2 -4 -10q-50 -86 -94 -134q-65 -75 -125 -75q-52 0 -74 28q-24 27 -24 84q0 110 76 217q79 107 170 107q60 0 94 -43q8 -11 14 -23.5t8 -18.5l2 -7q2 -4 6 -10t19 -13.5t31 -3.5t25 15t10 21v9q0 3 -3.5 14t-13 30.5t-22.5 37.5 q-58 84 -170 84q-139 0 -244 -145q-44 -60 -69 -132.5t-25 -138.5q0 -87 45 -141q47 -63 145 -63q50 0 101 26q-11 -21 -48 -91t-59 -110q-73 15 -156 15q-99 0 -191 -37t-163 -105q-63 -60 -99 -132.5t-36 -141.5zM-338 -553q0 49 28.5 105.5t78.5 103.5q121 115 290 115 q55 0 107 -9q-105 -169 -197 -272q-118 -133 -202 -133q-55 0 -82 27q-23 23 -23 63z" />
<glyph unicode="h" horiz-adv-x="780" d="M-817 1001q-3 -22 -3 -42q0 -58 27 -107q43 -75 125 -102q19 -6 36.5 2.5t23.5 25.5q6 19 -2 36.5t-27 23.5q-52 15 -76 59q-15 26 -14 60q0 14 2 30q10 67 67.5 117.5t149.5 50.5q151 0 287 -68q83 -42 221 -149q59 -46 96.5 -73t96 -59t114.5 -48q-135 -255 -295 -668 q-9 -21 -12 -33l-6 -16q-2 -8 -2 -15q0 -28 26 -40q6 -6 21 -6q24 0 41 22q2 2 14 18q6 9 21.5 31.5t21.5 32.5q120 184 211 295q67 83 113 123q50 43 74 43q18 0 18 -6q11 -11 2 -62q-7 -36 -39 -133q-24 -77 -34.5 -119t-10.5 -95.5t23 -86.5q37 -49 112 -49q66 0 125 53 q41 38 76 103q11 20 21 41t16.5 38t11 30.5t7.5 22t3 9.5q5 19 -4 35t-28 20q-19 6 -35.5 -3t-22.5 -28q0 -2 -5 -18.5t-17 -47t-27 -56.5q-60 -107 -121 -107q-30 0 -37 10q-8 11 -8 35q0 17 4 41q3 19 39 143q19 59 26.5 87t15.5 71q5 27 6 48q0 12 -2 23q-5 28 -21 50 q-33 43 -94 43q-98 0 -259 -199l-49 -63q90 207 174 364q36 -4 58 -4q258 0 428 152q67 67 104 143q35 75 35 146q0 75 -40 121t-105 46q-75 0 -160 -51q-74 -48 -143 -125q-108 -120 -226 -327q-52 14 -107 43.5t-89 54t-99 74.5q-71 55 -115.5 85.5t-119 71t-156 59.5 t-174.5 19q-125 0 -213 -76q-81 -72 -96 -170zM451 827q100 173 196 279q130 145 234 145q24 0 37 -16q16 -22 16 -59q0 -49 -27 -109t-84 -113q-140 -127 -364 -127h-8z" />
<glyph unicode="i" horiz-adv-x="512" d="M41 385q-22 -85 -22 -153q0 -90 38 -150q61 -102 222 -102q59 0 110.5 14t85 36t47 33.5t24.5 23.5v1h1q17 33 -8 51q-13 10 -29.5 11.5t-26.5 -2.5l-10 -3q-14 -18 -47 -36q-61 -37 -147 -37q-106 0 -144 59q-24 37 -24 98q0 56 20 133q27 106 72 197q9 17 2.5 35.5 t-23.5 26.5q-17 9 -35 2.5t-26 -23.5q-53 -106 -80 -215zM166 723q0 -25 18 -42t43 -17t42.5 17t17.5 42t-17.5 42t-42.5 17t-43 -17t-18 -42z" />
<glyph unicode="j" horiz-adv-x="790" d="M29 410q-29 -110 -29 -193q0 -91 35 -149q61 -88 180 -88q253 0 395 227q50 79 74.5 160.5t24.5 124.5q0 93 -47 155q-47 60 -123 72q-23 4 -46 4q-75 0 -149 -47q-100 -65 -147 -189q-6 -19 1.5 -36t24.5 -23q19 -8 36.5 0t23.5 27q37 95 110 143q52 34 101 34 q14 0 28 -3q44 -8 69 -44t25 -93q0 -29 -21.5 -99t-62.5 -137q-52 -81 -124 -129q-82 -55 -193 -55q-73 0 -100 45q-20 32 -23 85v21q0 44 8 90q11 57 29 117.5t36 106.5t34 77q9 17 2.5 35t-23.5 27q-17 8 -34.5 2t-26.5 -23q-59 -131 -88 -245zM162 745q0 -23 17 -39 t40 -16t40 16t17 39q0 25 -17 41.5t-40 16.5t-40 -16.5t-17 -41.5z" />
<glyph unicode="k" />
<glyph unicode="l" horiz-adv-x="423" d="M-791 942q-7 -29 -7 -58q0 -45 18 -87q35 -74 118 -125q17 -9 35.5 -5t28.5 21q9 17 5 35.5t-21 28.5q-56 32 -78 76q-14 27 -13 54q0 18 5 36q15 57 74 100t141 43q70 0 132 -14t122.5 -45.5t99.5 -57t104 -72.5q3 -2 26 -18t28.5 -19.5t26 -17.5t29 -19t27 -16.5 t30 -17.5t28 -15t31.5 -15.5t30 -12.5q-81 -157 -128.5 -307.5t-47.5 -251.5q0 -76 29 -123q38 -59 108 -59q106 0 201 114q13 15 25 31.5t20 29.5t14.5 24t10.5 17l4 7q8 17 2 34.5t-23 26.5t-35.5 3t-27.5 -23q-15 -30 -40.5 -65.5t-69 -71t-81.5 -35.5q-20 0 -30 16 q-15 25 -15 74q0 93 47.5 238t126.5 294q55 -12 117 -12q194 0 352 149q68 63 108 137.5t40 137.5q0 61 -43 104q-42 39 -121 39q-123 0 -260 -131q-113 -107 -225 -295l-13 -20q-41 15 -89 42t-73.5 44.5t-84.5 58.5q-145 101 -224 139q-138 66 -288 66q-113 0 -195 -61 q-86 -58 -111 -150zM369 780q103 173 206 273q110 104 197 104q43 0 57 -14q15 -15 15 -37q0 -40 -30.5 -96.5t-88.5 -110.5q-50 -48 -124.5 -86.5t-164.5 -38.5q-37 0 -67 6z" />
<glyph unicode="m" horiz-adv-x="913" d="M-328 -369q3 -76 58 -125q55 -55 157 -55q88 0 179 15t186.5 47t157 55.5t157.5 64.5q7 3 21.5 8.5t21.5 8.5q6 -88 45 -139q57 -72 162 -72q93 0 166.5 81.5t73.5 170.5q0 59 -41 100q-42 39 -117 39q-72 0 -190 -41q15 99 84 344q39 141 55 210.5t18 133.5v7 q0 59 -24 91q-32 37 -80 37q-96 0 -215 -176l-12 -18q14 59 14 101q0 49 -19 73q-19 29 -57 29q-36 0 -88 -40t-141 -155q48 130 51 184q0 19 -12.5 33t-32.5 14q-19 2 -33 -11t-14 -32q-4 -59 -94 -286q-80 -209 -107 -256l-2 -2q-9 -17 -5 -35.5t21 -28.5q15 -9 34 -4.5 t28 21.5l4 4q107 169 180 270q78 108 129 162q43 46 66 61q0 -34 -21 -123q-28 -102 -69 -221q-17 -47 -27 -80q-10 -28 -10 -48q0 -17 8 -28q17 -20 39 -20q21 0 33 12.5t26 36.5q4 9 17 32t20 38q90 176 150 264q94 137 139 137h6q7 -7 7 -32q0 -28 -9 -78 q-13 -77 -64 -250q-70 -255 -84 -357l-6 -53q-34 -13 -80 -33q-108 -44 -157.5 -63t-146 -51.5t-178.5 -46t-163 -13.5q-117 0 -123 95v7q0 37 19 70q21 36 49 39q20 1 32 16.5t9 34.5q-1 19 -15.5 31t-33.5 10q-69 -6 -115 -77q-37 -57 -37 -127v-11zM700 -313 q128 51 199 51q18 0 29 -1.5t24 -12.5t13 -33q0 -54 -47 -107t-101 -53q-62 0 -88 35q-29 40 -29 121z" />
<glyph unicode="n" horiz-adv-x="759" d="M-614 -442q0 -96 73 -160q84 -72 230 -72q93 0 208.5 27t192.5 54.5t211 80.5q107 42 172 63q7 -125 59 -188q63 -78 183 -78q116 0 184 68q66 63 66 151q0 82 -58 140q-57 61 -159 61q-73 0 -179 -27q9 101 66 365q50 228 59 315q5 43 5 79q0 107 -40 155 q-38 49 -108 49q-107 0 -303 -242l-33 -43q51 152 57 236q1 19 -11.5 33t-31.5 16q-20 0 -33.5 -12t-15.5 -31q-5 -81 -75 -279.5t-109 -271.5q-4 -4 -4 -6q-8 -21 -3 -37t19 -24q13 -10 32 -7.5t32 21.5q2 4 6 6q1 1 6 11t10 16q151 222 225 315q45 56 84.5 97t63.5 61.5 t44 32t27.5 14t12.5 2.5q23 0 37 -14q19 -25 19 -91q0 -33 -5 -75q-8 -89 -57 -306q-62 -285 -72 -413q-83 -29 -205 -76q-139 -53 -206 -77.5t-178 -51.5t-195 -27q-108 0 -168 50q-43 37 -43 90q0 42 21.5 66t51.5 24q19 0 32.5 13.5t13.5 33.5q0 19 -13.5 32t-32.5 13 q-70 0 -117.5 -52.5t-47.5 -129.5zM563 -418q117 31 185 31q61 0 94 -33q30 -30 30 -76q0 -47 -36 -86q-44 -41 -121 -41q-74 0 -111 43q-38 46 -41 162z" />
<glyph unicode="o" horiz-adv-x="759" d="M4 41q-6 -12 -6 -23q0 -21 22 -38q13 -9 32 -6t32 20q4 4 6 8l6 10q5 9 10 15q128 191 218 303q69 85 123 133.5t71 56.5t27 8q16 0 16 -6q14 -14 14 -73v-15q-2 -47 -22 -184q-15 -94 -20.5 -148t-7.5 -134v-16q-1 -69 15 -122q18 -59 54 -102q73 -82 209 -82 q53 0 103.5 17.5t82.5 38.5t61 49.5t37.5 40t14.5 20.5q9 17 4.5 35.5t-19.5 27.5q-17 11 -35.5 7t-27.5 -21l-5 -7q-5 -7 -15 -17.5t-23.5 -23.5t-32 -26.5t-40 -24t-49 -17.5t-56.5 -7q-97 0 -139 51q-48 54 -48 184q0 65 27 263q15 98 21 150q3 24 3 49q1 29 -3 61 q-6 58 -33 88q-32 37 -86 37q-63 0 -148 -76q-66 -57 -145 -158l-27 -33q49 144 54 217q0 20 -12 34.5t-31 15.5q-20 1 -35 -11.5t-15 -31.5q-6 -74 -72.5 -265.5t-105.5 -263.5z" />
<glyph unicode="p" horiz-adv-x="657" d="M-819 -618q0 66 37 142t100 144q154 160 334 160q80 0 162 -10q27 49 65 121q107 208 195 426t112 301q4 18 21 27t35 3q18 -4 27.5 -21t4.5 -36q-19 -59 -63 -174q174 174 315 174q74 0 115 -66q31 -54 31 -133q0 -74 -26.5 -149.5t-72.5 -136.5q-55 -70 -129 -111 q-85 -43 -184 -43q-90 0 -141 57q-27 30 -45 76q-60 -133 -113 -237l-53 -99q61 -17 120 -46.5t88 -48.5t85 -58q50 -37 78.5 -55.5t76.5 -42.5t101.5 -34t120.5 -10q50 0 94.5 24t54.5 66q8 33 -13 58t-50 39q-17 9 -23 27.5t2 35.5q9 17 28 22.5t36 -3.5q66 -35 96 -88 q18 -35 18 -74q0 -19 -4 -39q-19 -71 -84 -115q-70 -45 -155 -45q-77 0 -141.5 12t-119.5 39t-87 47.5t-85 59.5q-114 85 -188 115q-47 21 -96 30q-88 -145 -187 -266q-77 -92 -163 -149q-92 -62 -181 -62q-69 0 -109 39t-40 107zM-727 -618q0 -29 13 -41.5t44 -12.5 q122 0 275 178q67 81 157 224q-52 6 -110 6q-74 0 -146 -38t-121.5 -93.5t-80.5 -116t-31 -106.5zM145 242q4 -81 41 -123q27 -27 74 -27q149 0 240 117q80 108 80 231q0 54 -16 80.5t-38 26.5q-122 0 -295 -197q-28 -31 -86 -108z" />
<glyph unicode="q" horiz-adv-x="503" d="M-451 -256q0 -53 24.5 -105.5t67.5 -94t108 -67.5t138 -26q20 0 33.5 13.5t13.5 33.5q0 19 -13.5 32t-33.5 13q-106 0 -180 68q-65 62 -65 133q0 54 39 86q53 41 155 41q236 0 434 -98l31 -19v-22q-1 -15 -1 -30q0 -133 50 -202q52 -73 148 -73q51 0 77 26q31 28 31 74 q0 61 -57 136t-152 140q5 55 31 189q38 171 102 358q7 21 -1.5 38.5t-24.5 23.5q-17 5 -35 -2t-25 -27q-28 -82 -88 -166q-93 -125 -204 -125q-49 0 -70 27q-23 26 -23 84q0 56 22.5 120t61.5 119q39 58 86.5 89.5t92.5 31.5q78 0 124 -55q11 -13 19.5 -27.5t10.5 -22.5 l3 -9l6 -3t17 -4.5t28 2.5q13 3 22.5 9.5t13.5 12.5l3 5l-3 7q-2 6 -5.5 14.5t-8.5 19.5t-13.5 24.5t-18.5 26.5q-71 92 -198 92q-73 0 -144 -47q-62 -44 -110 -112q-47 -67 -74 -146t-27 -147q0 -89 41 -142q48 -61 144 -61q88 0 165 51q11 7 37 29q-3 -11 -8 -34t-8 -34 q-15 -71 -29 -157q-63 34 -153 63q-145 45 -320 45q-137 0 -213 -61q-74 -61 -74 -158zM393 -307q65 -56 99 -107q23 -36 23 -56q0 -5 -1 -9l-5 -1q-5 -1 -11 -1q-50 0 -72 35q-33 44 -33 139z" />
<glyph unicode="r" horiz-adv-x="989" d="M-41 612q0 -38 37 -57q15 -8 47 -14q29 -4 107 -4q58 0 94 -5q30 -3 39 -6q0 -9 -9 -30q-3 -13 -14 -41t-14 -37q-20 -47 -29.5 -71t-23.5 -70q-15 -46 -17 -76q-1 -9 0 -18q0 -23 4 -49q6 -36 25 -64q60 -90 237 -90q118 0 217 45q94 46 158 116q61 66 96 149t35 163 q0 102 -51 159q-57 72 -158 72q-137 0 -225 -82q-79 -69 -100 -182q-4 -19 6 -34.5t29 -20.5q19 -3 35 7t20 29q4 21 11.5 42t25.5 49.5t42.5 49t65 35.5t90.5 15q58 0 88 -37q29 -40 29 -102t-28.5 -129t-77.5 -121q-122 -131 -308 -131q-127 0 -159 49q-14 20 -15 51v5 q0 29 10 66q12 40 23 69t29 71q31 73 39 102q5 25 5 44q0 38 -20 59q-26 26 -74.5 33.5t-129.5 7.5h-15q6 22 6 41q0 26 -12 43q-18 30 -57 30q-74 0 -101 -59q-12 -29 -12 -72z" />
<glyph unicode="s" horiz-adv-x="356" d="M-717 -260q6 -62 53 -100q55 -39 140 -39q73 0 168 18t156.5 36t171.5 52q21 7 32 10q7 2 21.5 7.5t21.5 7.5q6 -47 29 -80q49 -76 170 -76q95 0 154 55.5t59 124.5q0 57 -41 92q-40 37 -111 37q-61 0 -157 -26l6 26q22 85 102 279q36 86 51 125.5t30 92.5q12 42 12 69 q0 7 -1 14q-4 30 -24 51q-19 19 -59 29t-67.5 11.5t-93.5 2.5h-10q6 23 6 43q0 25 -10 45q-23 35 -69 35q-75 0 -103 -64q-14 -29 -14 -73q0 -41 37 -60q20 -9 51 -14q31 -4 112 -4q17 -1 52 -2t51 -2q31 -4 49 -10q0 -29 -18 -82q-6 -20 -66 -172q-82 -194 -108 -289 q-2 -7 -8.5 -36t-8.5 -44l-74 -25q-113 -37 -174 -55t-157 -37.5t-168 -19.5q-89 0 -99 45q-5 24 5.5 50.5t21.5 31.5q19 5 29.5 19.5t7.5 33.5t-18.5 30.5t-34.5 8.5q-50 -10 -80 -66q-25 -47 -25 -96v-10zM0 563q0 7 4 19q0 3 6 6q-7 -21 -8 -25h-2zM137 -240 q125 33 170 33q37 0 49 -12q11 -8 11 -25q0 -32 -33 -60t-88 -28q-71 0 -94 35q-15 26 -15 57z" />
<glyph unicode="t" d="M0 858q0 20 13 33.5t32 13.5h145q23 61 50 119t43 90l16 31q9 17 27.5 22t35.5 -4t22.5 -27.5t-3.5 -35.5q-1 0 -13 -23.5t-34 -71.5t-43 -100h96q20 0 33.5 -13.5t13.5 -33.5q0 -19 -13.5 -32t-33.5 -13h-131q-21 -60 -23 -68q-65 -206 -65 -351q0 -126 49 -206 q36 -62 109 -98q79 -39 209 -39q319 0 509 221q76 90 121 215q39 107 39 224q0 138 -53 221q-53 80 -141 80q-71 0 -137.5 -33.5t-112 -80.5t-80.5 -96.5t-51.5 -82t-16.5 -35.5q-7 -17 -25.5 -23.5t-35.5 1.5t-24.5 25t-0.5 34q55 110 121 188q72 85 150 133q103 62 213 62 q74 0 127 -33q51 -29 90 -90q69 -103 69 -270q0 -132 -43 -254q-49 -135 -139 -244q-41 -48 -91 -89t-120.5 -80.5t-165.5 -62t-202 -22.5q-290 0 -398 182q-61 104 -61 255q0 26 2 53q9 145 67 325l13 39h-113q-19 0 -32 13t-13 32z" />
<glyph unicode="u" horiz-adv-x="360" d="M-340 1018q-8 -29 -8 -59q0 -36 12 -74q23 -70 80 -101q12 -6 23 -6q27 0 40 23q9 17 4 35.5t-20 27.5q-27 14 -39 52q-7 22 -8 45q0 16 4 32q12 42 47 66q42 33 117 33q118 0 248.5 -21.5t209.5 -43t208 -60.5q102 -30 141.5 -41t107.5 -24t117 -13q167 0 238 86 q39 47 39 100q0 3 -2 6.5t-13.5 10t-29.5 6.5q-16 0 -28 -6t-16 -12l-4 -5q0 -22 -20 -45q-49 -49 -164 -49q-42 0 -102.5 12t-105 24.5t-132.5 39.5q-140 41 -212 60.5t-214 43t-266 23.5q-103 0 -170 -49q-64 -45 -82 -117zM16 262q-13 -68 -13 -120q0 -71 24 -115 q43 -88 157 -88q43 0 93 17t76.5 32t31.5 20q17 10 20.5 29.5t-6.5 34.5q-11 15 -29.5 18.5t-35.5 -6.5q-87 -53 -150 -53q-52 0 -75 37q-15 30 -15 79q0 122 96 359q53 127 114 242.5t93 160.5q11 15 8 34.5t-18 29.5q-15 11 -34 8t-29 -18q-38 -51 -103 -174t-117 -248 q-68 -168 -88 -279z" />
<glyph unicode="v" />
<glyph unicode="w" />
<glyph unicode="x" />
<glyph unicode="y" horiz-adv-x="561" d="M-434 -520q0 -63 35 -101q34 -43 108 -43q73 0 160 52q71 46 147 129q107 119 220 311q61 -15 122 -45.5t98 -56.5t97 -72q55 -41 82 -60t83 -52.5t100.5 -49t109.5 -28.5t135 -13q126 0 210 69t103 161q3 20 3 39q0 48 -21 90q-35 62 -109 92q-17 6 -34 -2t-25 -25 q-7 -19 0.5 -36t26.5 -23q70 -30 70 -93q0 -13 -3 -26q-10 -60 -65 -103q-64 -51 -156 -51q-61 0 -118 11.5t-96 25.5t-89 43.5t-75.5 48t-76.5 56.5q-145 109 -227 145q-57 28 -98 37q117 209 247 518q65 140 70 174q4 19 -4 34t-25 21q-17 5 -33.5 -1t-23.5 -25 q-2 -2 -2 -6l-8 -19q-9 -24 -29 -71t-29 -70q-24 -53 -59 -115q-66 -113 -130 -173t-118 -60q-39 0 -47 16q-12 16 -12 48q0 36 16 93q20 73 82 222q3 8 18 46t21 56q6 17 -2 34t-25 23q-19 8 -36 0.5t-23 -26.5q-4 -13 -10.5 -28.5t-15 -36t-13.5 -32.5q-34 -84 -51 -130.5 t-37 -115.5q-16 -61 -16 -106v-14q3 -49 26 -84q40 -57 125 -57q62 0 121 36l-63 -116q-1 -2 -3.5 -6.5t-3.5 -6.5q-83 11 -141 11q-91 0 -180 -43t-164 -123q-61 -67 -100 -150q-39 -74 -39 -147zM-342 -520q0 44 29.5 108.5t85.5 124.5q130 137 276 137q32 0 90 -4 q-95 -160 -192 -268q-134 -149 -238 -149q-29 0 -41 12q-10 10 -10 39z" />
<glyph unicode="z" />
<glyph unicode="&#x25fc;" horiz-adv-x="1024" d="M0 0z" />
</font>
</defs>
</svg>
